<?xml version="1.0" encoding="UTF-8" standalone="no"?>
<!-- Created with Inkscape (http://www.inkscape.org/) -->

<svg
   width="50mm"
   height="50mm"
   viewBox="0 0 50 50"
   version="1.1"
   id="svg1580"
   inkscape:version="1.1.2 (b8e25be833, 2022-02-05)"
   sodipodi:docname="chiralnimod.svg"
   xmlns:inkscape="http://www.inkscape.org/namespaces/inkscape"
   xmlns:sodipodi="http://sodipodi.sourceforge.net/DTD/sodipodi-0.dtd"
   xmlns="http://www.w3.org/2000/svg"
   xmlns:svg="http://www.w3.org/2000/svg">
  <sodipodi:namedview
     id="namedview1582"
     pagecolor="#505050"
     bordercolor="#eeeeee"
     borderopacity="1"
     inkscape:pageshadow="0"
     inkscape:pageopacity="0"
     inkscape:pagecheckerboard="0"
     inkscape:document-units="mm"
     showgrid="false"
     showguides="true"
     inkscape:guide-bbox="true"
     inkscape:zoom="1.3273709"
     inkscape:cx="-172.89817"
     inkscape:cy="163.48105"
     inkscape:window-width="1920"
     inkscape:window-height="1009"
     inkscape:window-x="-8"
     inkscape:window-y="-8"
     inkscape:window-maximized="1"
     inkscape:current-layer="layer1">
    <sodipodi:guide
       position="-132.40419,33.630117"
       orientation="1,0"
       id="guide5684" />
  </sodipodi:namedview>
  <defs
     id="defs1577">
    <inkscape:path-effect
       effect="knot"
       id="path-effect8810"
       is_visible="true"
       lpeversion="1"
       switcher_size="15"
       interruption_width="2.6"
       prop_to_stroke_width="true"
       add_stroke_width="inkscape_1.0_and_up"
       both="false"
       inverse_width="false"
       add_other_stroke_width="inkscape_1.0_and_up"
       crossing_points_vector="-129.58138 | 26.132338 | 0 | 0 | 0 | 5 | 3.556983 | 6.3503939 | 1 | -128.98623 | 26.382507 | 0 | 1 | 1 | 7 | 3.6765338 | 2.5303653 | -1 | -123.57852 | 27.05377 | 0 | 1 | 2 | 10 | 4.398493 | 3.6303866 | 1 | -126.00197 | 25.491907 | 0 | 1 | 3 | 9 | 5.9379185 | 3.0975865 | 1 | -128.11803 | 25.797273 | 0 | 1 | 4 | 8 | 6.1700757 | 2.7202792 | -1 | -129.92516 | 29.035037 | 0 | 0 | 7 | 10 | 7.6025054 | 10.397495 | 1 | -130.1574 | 28.963625 | 0 | 1 | 6 | 6 | 7.5691797 | 2.0120412 | -1 | -123.07548 | 29.850779 | 0 | 1 | 8 | 0 | 8.4174068 | 0.14160857 | 1 | -123.07548 | 28.219301 | 0 | 1 | 9 | 11 | 9.5825932 | 3.8583914 | 1 | -130.1574 | 29.106449 | 0 | 1 | 11 | 5 | 10.43082 | 1.9879598 | -1 | -129.58138 | 31.937736 | 0 | 0 | 12 | 17 | 11.649606 | 14.443017 | 1 | -128.11805 | 32.272798 | 0 | 1 | 13 | 3 | 11.829922 | 1.2797244 | -1 | -126.00195 | 32.578171 | 0 | 1 | 14 | 2 | 12.062083 | 0.90241068 | 1 | -123.57852 | 31.016308 | 0 | 1 | 15 | 1 | 13.601507 | 0.36961302 | 1 | -128.98624 | 31.687568 | 0 | 1 | 16 | 4 | 14.323467 | 1.4696361 | -1" />
    <inkscape:path-effect
       effect="knot"
       id="path-effect8802"
       is_visible="true"
       lpeversion="1"
       switcher_size="15"
       interruption_width="2.6"
       prop_to_stroke_width="true"
       add_stroke_width="inkscape_1.0_and_up"
       both="false"
       inverse_width="false"
       add_other_stroke_width="inkscape_1.0_and_up"
       crossing_points_vector="-129.58138 | 26.132338 | 0 | 0 | 0 | 5 | 3.556983 | 6.3503939 | 1 | -128.98623 | 26.382507 | 0 | 1 | 1 | 7 | 3.6765338 | 2.5303653 | -1 | -123.57852 | 27.05377 | 0 | 1 | 2 | 10 | 4.398493 | 3.6303866 | 1 | -126.00197 | 25.491907 | 0 | 1 | 3 | 9 | 5.9379185 | 3.0975865 | 1 | -128.11803 | 25.797273 | 0 | 1 | 4 | 8 | 6.1700757 | 2.7202792 | -1 | -129.92516 | 29.035037 | 0 | 0 | 7 | 10 | 7.6025054 | 10.397495 | 1 | -130.1574 | 28.963625 | 0 | 1 | 6 | 6 | 7.5691797 | 2.0120412 | -1 | -123.07548 | 29.850779 | 0 | 1 | 8 | 0 | 8.4174068 | 0.14160857 | 1 | -123.07548 | 28.219301 | 0 | 1 | 9 | 11 | 9.5825932 | 3.8583914 | 1 | -130.1574 | 29.106449 | 0 | 1 | 11 | 5 | 10.43082 | 1.9879598 | -1 | -129.58138 | 31.937736 | 0 | 0 | 12 | 17 | 11.649606 | 14.443017 | 1 | -128.11805 | 32.272798 | 0 | 1 | 13 | 3 | 11.829922 | 1.2797244 | -1 | -126.00195 | 32.578171 | 0 | 1 | 14 | 2 | 12.062083 | 0.90241068 | 1 | -123.57852 | 31.016308 | 0 | 1 | 15 | 1 | 13.601507 | 0.36961302 | 1 | -128.98624 | 31.687568 | 0 | 1 | 16 | 4 | 14.323467 | 1.4696361 | -1" />
    <inkscape:path-effect
       effect="knot"
       id="path-effect8250"
       is_visible="true"
       lpeversion="1"
       switcher_size="15"
       interruption_width="3"
       prop_to_stroke_width="true"
       add_stroke_width="inkscape_1.0_and_up"
       both="false"
       inverse_width="false"
       add_other_stroke_width="inkscape_1.0_and_up"
       crossing_points_vector="-129.58138 | 26.132338 | 0 | 0 | 0 | 5 | 3.556983 | 6.3503939 | 1 | -128.98623 | 26.382507 | 0 | 1 | 1 | 7 | 3.6765338 | 2.5303653 | -1 | -123.57852 | 27.05377 | 0 | 1 | 2 | 10 | 4.398493 | 3.6303866 | 1 | -126.00197 | 25.491907 | 0 | 1 | 3 | 9 | 5.9379185 | 3.0975865 | 1 | -128.11803 | 25.797273 | 0 | 1 | 4 | 8 | 6.1700757 | 2.7202792 | -1 | -129.92516 | 29.035037 | 0 | 0 | 7 | 10 | 7.6025054 | 10.397495 | 1 | -130.1574 | 28.963625 | 0 | 1 | 6 | 6 | 7.5691797 | 2.0120412 | -1 | -123.07548 | 29.850779 | 0 | 1 | 8 | 0 | 8.4174068 | 0.14160857 | 1 | -123.07548 | 28.219301 | 0 | 1 | 9 | 11 | 9.5825932 | 3.8583914 | 1 | -130.1574 | 29.106449 | 0 | 1 | 11 | 5 | 10.43082 | 1.9879598 | -1 | -129.58138 | 31.937736 | 0 | 0 | 12 | 17 | 11.649606 | 14.443017 | 1 | -128.11805 | 32.272798 | 0 | 1 | 13 | 3 | 11.829922 | 1.2797244 | -1 | -126.00195 | 32.578171 | 0 | 1 | 14 | 2 | 12.062083 | 0.90241068 | 1 | -123.57852 | 31.016308 | 0 | 1 | 15 | 1 | 13.601507 | 0.36961302 | 1 | -128.98624 | 31.687568 | 0 | 1 | 16 | 4 | 14.323467 | 1.4696361 | -1" />
    <inkscape:path-effect
       effect="knot"
       id="path-effect5988"
       is_visible="true"
       lpeversion="1"
       switcher_size="15"
       interruption_width="3"
       prop_to_stroke_width="true"
       add_stroke_width="inkscape_1.0_and_up"
       both="false"
       inverse_width="false"
       add_other_stroke_width="inkscape_1.0_and_up"
       crossing_points_vector="-129.58138 | 26.132338 | 0 | 0 | 0 | 5 | 3.556983 | 6.3503939 | 1 | -128.98623 | 26.382507 | 0 | 1 | 1 | 7 | 3.6765338 | 2.5303653 | -1 | -123.57852 | 27.05377 | 0 | 1 | 2 | 10 | 4.398493 | 3.6303866 | 1 | -126.00197 | 25.491907 | 0 | 1 | 3 | 9 | 5.9379185 | 3.0975865 | 1 | -128.11803 | 25.797273 | 0 | 1 | 4 | 8 | 6.1700757 | 2.7202792 | -1 | -129.92516 | 29.035037 | 0 | 0 | 7 | 10 | 7.6025054 | 10.397495 | 1 | -130.1574 | 28.963625 | 0 | 1 | 6 | 6 | 7.5691797 | 2.0120412 | -1 | -123.07548 | 29.850779 | 0 | 1 | 8 | 0 | 8.4174068 | 0.14160857 | 1 | -123.07548 | 28.219301 | 0 | 1 | 9 | 11 | 9.5825932 | 3.8583914 | 1 | -130.1574 | 29.106449 | 0 | 1 | 11 | 5 | 10.43082 | 1.9879598 | -1 | -129.58138 | 31.937736 | 0 | 0 | 12 | 17 | 11.649606 | 14.443017 | 1 | -128.11805 | 32.272798 | 0 | 1 | 13 | 3 | 11.829922 | 1.2797244 | -1 | -126.00195 | 32.578171 | 0 | 1 | 14 | 2 | 12.062083 | 0.90241068 | 1 | -123.57852 | 31.016308 | 0 | 1 | 15 | 1 | 13.601507 | 0.36961302 | 1 | -128.98624 | 31.687568 | 0 | 1 | 16 | 4 | 14.323467 | 1.4696361 | -1" />
    <marker
       style="overflow:visible"
       id="Arrow2Mend"
       refX="0"
       refY="0"
       orient="auto"
       inkscape:stockid="Arrow2Mend"
       inkscape:isstock="true">
      <path
         transform="scale(-0.6)"
         d="M 8.7185878,4.0337352 -2.2072895,0.01601326 8.7185884,-4.0017078 c -1.7454984,2.3720609 -1.7354408,5.6174519 -6e-7,8.035443 z"
         style="fill:context-stroke;fill-rule:evenodd;stroke:context-stroke;stroke-width:0.625;stroke-linejoin:round"
         id="path4588" />
    </marker>
    <marker
       style="overflow:visible"
       id="marker1569"
       refX="0"
       refY="0"
       orient="auto"
       inkscape:stockid="Arrow2Mend"
       inkscape:isstock="true">
      <path
         transform="scale(-0.6)"
         d="M 8.7185878,4.0337352 -2.2072895,0.01601326 8.7185884,-4.0017078 c -1.7454984,2.3720609 -1.7354408,5.6174519 -6e-7,8.035443 z"
         style="fill:context-stroke;fill-rule:evenodd;stroke:context-stroke;stroke-width:0.625;stroke-linejoin:round"
         id="path1567" />
    </marker>
  </defs>
  <g
     inkscape:label="Vrstva 1"
     inkscape:groupmode="layer"
     id="layer1">
    <ellipse
       style="display:inline;fill:none;stroke:#000000;stroke-width:1;stroke-miterlimit:4;stroke-dasharray:none;stroke-dashoffset:0"
       id="circle1670"
       cx="-83.895607"
       cy="25.282372"
       rx="8.6990004"
       ry="8.6718264" />
    <path
       style="display:inline;fill:none;stroke:#000000;stroke-width:1;stroke-miterlimit:4;stroke-dasharray:none"
       d="m -75.501317,30.189806 c 1.94107,0.286557 2.88635,0.935153 2.88635,1.871586 0,1.835911 -3.63322,2.565427 -11.28042,1.629453 -7.6472,-0.935998 -13.84647,-3.183061 -13.84647,-5.018972 0,-0.898849 1.48607,-1.896287 3.90054,-2.790157 m 19.78203,-2.448156 c 2.47918,0.297264 4.0104,0.936409 4.0104,1.848818 0,1.835911 -6.1993,2.565427 -13.8465,1.629429 -7.6472,-0.935974 -13.84647,-3.183037 -13.84647,-5.018948 0,-1.04336 2.0023,-2.219555 5.13473,-3.212401 m 13.20248,-2.189277 c 4.5864,-0.176246 6.78968,0.582501 6.78968,2.012181 0,1.835906 -3.63322,2.565429 -11.28042,1.629443 -7.6472,-0.935986 -9.99734,-3.183048 -9.99734,-5.018952 0,-2.507946 5.23051,-2.600347 7.80631,-2.337576 3.08485,0.314707 4.4784,-0.388026 4.85713,-1.987291 0.45641,-1.927306 1.88877,-7.1623136 1.88877,-7.1623136 m -12.90556,29.2872116 c -1.18366,0.826267 -1.64665,1.722144 -1.64665,2.537027 0,2.093449 1.90096,2.139053 3.83485,2.657236 1.93388,0.518183 2.95988,1.620888 2.67799,3.876037"
       id="path1672"
       sodipodi:nodetypes="ccccsccccsccccscssc" />
    <path
       style="display:inline;fill:none;stroke:#000000;stroke-width:1;stroke-miterlimit:4;stroke-dasharray:none;marker-end:url(#Arrow2Mend)"
       d="m 58.886475,38.640173 c 0,-0.814883 0.462987,-1.71076 1.646652,-2.537027 m 16.744751,-2.724078 c 1.941078,0.286557 2.886352,0.935153 2.886352,1.871586 0,1.835911 -3.633216,2.565427 -11.280415,1.629453 -7.647199,-0.935998 -13.846471,-3.183061 -13.846471,-5.018972 0,-0.898849 1.486068,-1.896287 3.900534,-2.790157 m 19.782036,-2.448156 c 2.47918,0.297264 4.010395,0.936409 4.010395,1.848818 0,1.835911 -6.199295,2.565427 -13.846494,1.629429 -7.647199,-0.935974 -13.846471,-3.183037 -13.846471,-5.018948 0,-1.04336 2.0023,-2.219555 5.134729,-3.212401 m 13.202483,-2.189277 c 4.586395,-0.176246 6.789674,0.582501 6.789674,2.012181 0,1.835906 -3.633216,2.565429 -11.280415,1.629443 -7.647199,-0.935986 -9.99734,-3.183048 -9.99734,-5.018952 0,-2.507946 5.230503,-2.600347 7.806305,-2.337576 3.084857,0.314707 4.4784,-0.388026 4.857131,-1.987291 0.456416,-1.927306 0.761194,-3.215804 0.761194,-3.215804"
       id="path1676"
       sodipodi:nodetypes="ccccsccccsccccscssc" />
    <ellipse
       style="display:inline;fill:none;stroke:#000000;stroke-width:1;stroke-miterlimit:4;stroke-dasharray:none;stroke-dashoffset:0"
       id="ellipse3765"
       cx="24.591682"
       cy="28.926626"
       rx="8.6990004"
       ry="8.6718264" />
    <path
       style="display:inline;fill:none;stroke:#000000;stroke-width:1;stroke-miterlimit:4;stroke-dasharray:none"
       d="m 32.985967,34.363229 c 1.941078,0.286557 2.886352,0.935153 2.886352,1.871586 0,1.835911 -3.633216,2.789672 -11.280415,1.853698 -7.647199,-0.935998 -13.846471,-3.407306 -13.846471,-5.243217 0,-0.898849 1.486068,-1.896287 3.900534,-2.790157 m 19.782036,-2.448156 c 2.47918,0.297264 4.010395,0.936409 4.010395,1.848818 0,1.835911 -6.199295,2.565427 -13.846494,1.629429 -7.647199,-0.935974 -13.846471,-3.183037 -13.846471,-5.018948 0,-1.04336 2.0023,-2.219555 5.134729,-3.212401 m 14.435767,-2.330224 c 4.586395,-0.176246 5.55639,0.723448 5.55639,2.153128 0,1.835906 -3.633216,2.565429 -11.280415,1.629443 -7.647199,-0.935986 -9.99734,-3.183048 -9.99734,-5.018952 0,-2.507946 5.230503,-2.600347 7.806305,-2.337576 3.084857,0.314707 4.4784,-0.388026 4.857131,-1.987291 0.456416,-1.927306 0.79643,-3.497697 0.79643,-3.497697 M 16.241216,37.087307 c -1.183665,0.826267 -1.646652,1.722144 -1.646652,2.537027 0,2.093449 1.900961,2.139053 3.834845,2.657236 1.933885,0.518183 2.959883,1.620888 2.677989,3.876037"
       id="path3767"
       sodipodi:nodetypes="ccccsccccsccccscsscsc" />
    <path
       style="color:#000000;fill:#000000;stroke-width:1;stroke-miterlimit:4;stroke-dasharray:none"
       d="m -52.714055,54.03144 -0.820782,3.063198 c -0.207877,0.775809 -0.545914,1.065283 -1.174138,1.234923 -0.628244,0.169633 -1.559546,0.155163 -2.759691,0.155162 -1.954033,-1e-6 -3.311246,0.100097 -4.271149,0.39652 -0.959903,0.296423 -1.535804,0.843417 -1.745359,1.625485 -0.23892,0.89166 0.08228,2.000196 1.220538,3.160719 1.138279,1.160528 3.099154,2.410621 6.239554,3.679428 3.131622,1.265256 5.510836,1.953093 7.198335,2.129977 0.843764,0.08843 1.517425,0.05135 2.038143,-0.130195 0.520739,-0.181547 0.894211,-0.541599 1.022087,-1.018838 0.100692,-0.375785 0.03539,-0.769237 -0.175782,-1.117219 -0.211232,-0.347999 -0.555238,-0.659833 -1.02504,-0.950974 -0.939604,-0.582284 -2.393653,-1.092061 -4.411049,-1.541496 l -0.12054,0.545564 c 1.984118,0.442029 3.394042,0.951183 4.236683,1.473374 0.421312,0.261086 0.694078,0.524543 0.839632,0.764319 0.145494,0.239757 0.176081,0.445167 0.112919,0.680889 -0.08021,0.299359 -0.265874,0.497416 -0.662604,0.635747 -0.396749,0.138323 -0.999706,0.184542 -1.794949,0.10119 -1.590486,-0.166708 -3.944149,-0.839732 -7.049509,-2.094374 -3.096581,-1.251099 -4.993932,-2.477022 -6.047141,-3.550822 -1.053209,-1.073799 -1.25544,-1.960218 -1.078181,-2.621757 0.16532,-0.616981 0.519753,-0.976807 1.367788,-1.238682 0.848034,-0.261872 2.171177,-0.368225 4.105179,-0.368222 1.192804,-2e-6 2.144494,0.02998 2.906459,-0.175763 0.761966,-0.205745 1.326152,-0.715887 1.570932,-1.629419 l 0.820782,-3.063198 z m -2.335241,9.801514 c -1.615879,-0.432972 -3.252211,-0.329532 -4.715156,0.2005 l 0.192741,0.526779 c 1.359136,-0.492437 2.873545,-0.586946 4.376879,-0.184131 2.12501,0.569397 3.776944,2.016737 4.67517,3.846678 l 0.502604,-0.246291 c -0.966604,-1.969229 -2.748143,-3.531512 -5.032238,-4.143535 z m -7.853119,-0.229388 c -1.461647,0.0647 -2.694549,0.234229 -3.616099,0.507833 -0.460796,0.136797 -0.845629,0.300743 -1.144781,0.502268 -0.299151,0.201525 -0.522783,0.449359 -0.605499,0.758059 -0.144707,0.540053 0.14457,1.109626 0.651277,1.706919 0.506727,0.5973 1.267279,1.245095 2.233321,1.921084 1.932104,1.351986 4.687281,2.815481 7.822424,4.082153 3.13514,1.266685 6.055171,2.095139 8.268662,2.416771 1.106738,0.160801 2.037157,0.198525 2.746603,0.08532 0.354715,-0.05661 0.657933,-0.151692 0.902703,-0.301741 0.244687,-0.150069 0.432842,-0.369372 0.505196,-0.639401 0.07529,-0.280989 0.01405,-0.575885 -0.135357,-0.836716 -0.14932,-0.260811 -0.383375,-0.501149 -0.684658,-0.735635 -0.602564,-0.468974 -1.488859,-0.917727 -2.606082,-1.344651 l -0.200287,0.524199 c 1.086128,0.415049 1.933541,0.852441 2.461012,1.262973 0.263741,0.205278 0.448911,0.401907 0.545038,0.569809 0.09615,0.167911 0.110173,0.29142 0.0772,0.414488 -0.03169,0.118271 -0.103759,0.213018 -0.257958,0.307562 -0.154199,0.09454 -0.390902,0.174982 -0.697787,0.223955 -0.613791,0.09794 -1.498917,0.07456 -2.572176,-0.08138 -2.146517,-0.311892 -5.041945,-1.134346 -8.143781,-2.387583 -3.101841,-1.253219 -5.824734,-2.69979 -7.707173,-4.017028 -0.941219,-0.658618 -1.674726,-1.287683 -2.130639,-1.825081 -0.455891,-0.537395 -0.597799,-0.963931 -0.534417,-1.200475 0.03623,-0.135201 0.145587,-0.284894 0.374464,-0.439003 0.228688,-0.154158 0.567231,-0.301485 0.992075,-0.427612 0.849667,-0.25226 2.04903,-0.420619 3.481292,-0.484029 z m 1.376676,1.331986 c -1.230428,0.838676 -2.231155,2.031107 -2.831573,3.474674 l 0.516973,0.211282 c 0.55764,-1.340924 1.487322,-2.440953 2.630713,-3.2203 z m 12.158663,4.944411 -0.551461,0.109066 c 0.218443,1.074311 0.198901,2.213071 -0.104408,3.345038 -0.07388,0.27572 -0.158951,0.544141 -0.262264,0.802945 l 0.518042,0.207293 c 0.110013,-0.278899 0.207955,-0.568345 0.287365,-0.864707 0.326016,-1.21671 0.347928,-2.442752 0.11271,-3.599643 z m -16.07914,-0.473086 c -1.18774,0.100934 -2.181888,0.277987 -2.927665,0.542483 -0.745755,0.264504 -1.285918,0.613666 -1.431604,1.157374 -0.144707,0.540055 0.14457,1.109626 0.651276,1.70692 0.506728,0.597301 1.26728,1.245094 2.233322,1.921085 1.932103,1.351988 4.687284,2.815469 7.822423,4.082153 3.131624,1.265251 5.510836,1.953094 7.198335,2.129977 0.843764,0.08843 1.517425,0.05136 2.038143,-0.130195 0.520739,-0.181546 0.894211,-0.541596 1.022087,-1.018836 0.131758,-0.491727 -0.02502,-1.001084 -0.409248,-1.428046 -0.38421,-0.426956 -0.983728,-0.80424 -1.808879,-1.156721 l -0.21926,0.514834 c 0.781278,0.333738 1.315221,0.684533 1.611699,1.013998 0.296498,0.329471 0.365215,0.601965 0.282568,0.910406 -0.08021,0.299362 -0.265874,0.497417 -0.662604,0.635746 -0.396749,0.138323 -0.999705,0.184544 -1.794949,0.10119 -1.590486,-0.166707 -3.944148,-0.83973 -7.049509,-2.094373 -3.101839,-1.253229 -5.824734,-2.699788 -7.707173,-4.017028 -0.941219,-0.65862 -1.674727,-1.287683 -2.130638,-1.825083 -0.455891,-0.537394 -0.597801,-0.963927 -0.534418,-1.200475 0.06381,-0.238141 0.404218,-0.534914 1.076109,-0.773215 0.671912,-0.238295 1.630201,-0.417377 2.787822,-0.515746 z m 1.140245,0.840588 -0.553063,-0.09255 c -0.333759,2.001365 0.1274,3.985542 1.176623,5.593103 l 0.471525,-0.305985 c -0.975036,-1.493876 -1.405238,-3.33496 -1.095085,-5.194568 z m 13.219468,5.378471 c -1.105921,1.585589 -2.804079,2.669712 -4.690292,3.015154 l 0.10108,0.549304 c 2.031319,-0.372022 3.859923,-1.535824 5.051184,-3.243773 z m -14.96845,0.158398 c -1.17882,0.453208 -1.833986,1.157386 -2.040294,1.927423 -0.171052,0.638374 0.02111,1.271451 0.387457,1.828849 0.366331,0.557394 0.906315,1.064931 1.504816,1.524699 1.197021,0.919545 2.632996,1.65038 3.328322,2.051831 0.644233,0.371949 1.018485,0.931107 1.186959,1.640711 0.168495,0.709611 0.118711,1.569863 -0.126006,2.483158 l 0.539151,0.144465 c 0.262267,-0.978796 0.328051,-1.924441 0.130594,-2.755879 -0.197396,-0.83142 -0.673929,-1.545087 -1.4518,-1.994188 -0.726738,-0.419582 -2.125546,-1.142559 -3.264696,-2.017658 -0.569585,-0.437553 -1.068636,-0.910713 -1.379825,-1.384197 -0.311208,-0.473487 -0.433172,-0.923418 -0.311834,-1.376258 0.153079,-0.571302 0.62943,-1.139447 1.694935,-1.549108 z"
       id="path44956"
       sodipodi:nodetypes="cssssssssssssccssssssssssssccsccsccscsssssssssscsccsssssssssscscccccccccsccssccsssssssssccssssssssscccccccccccccsssssccssssscc" />
    <path
       id="path5686"
       style="fill:#000000;stroke:#000000;stroke-width:0.264582px;stroke-linecap:butt;stroke-linejoin:miter;stroke-opacity:1"
       d="m -50.829968,48.085718 -4.404635,7.629833 2.792177,-1.612058 1.613108,2.79245 z" />
    <circle
       style="display:inline;fill:none;stroke:#000000;stroke-width:0.264582;stroke-miterlimit:4;stroke-dasharray:none;stroke-dashoffset:0"
       id="circle5807"
       cx="-156.31"
       cy="32.840603"
       r="3.5878823" />
    <path
       style="display:inline;fill:none;stroke:#000000;stroke-width:0.264582"
       d="m -156.31004,24.361352 v 1.498904 c 0,0.826169 -0.63094,0.949302 -1.72281,1.241868 -1.77406,0.475357 -2.4004,0.847147 -2.4004,1.531348 0,0.759587 0.96927,1.689287 4.12321,2.076542 3.15394,0.387257 4.65239,0.08542 4.65239,-0.674166 0,-0.759586 -1.49845,-1.061423 -4.65239,-0.674166 -3.15394,0.387255 -5.71071,1.316955 -5.71071,2.076542 0,0.759587 2.55677,1.689287 5.71071,2.076537 3.15394,0.38726 5.71072,0.08543 5.71072,-0.67416 0,-0.75957 -2.55678,-1.06142 -5.71072,-0.67417 -3.15394,0.38726 -5.71071,1.31696 -5.71071,2.07654 0,0.75959 2.55677,1.68929 5.71071,2.07655 3.15394,0.38725 4.65239,0.08542 4.65239,-0.67417 0,-0.75957 -1.49845,-1.06142 -4.65239,-0.67417 -3.15394,0.38726 -4.12321,1.31696 -4.12321,2.07655 0,1.067312 2.19615,1.499771 2.94541,1.700534 0.74926,0.200763 1.08535,0.954558 1.08535,1.879879"
       id="path5809"
       sodipodi:nodetypes="cssscscscscscsscsc" />
    <path
       id="path5811"
       style="fill:#000000;stroke:#000000;stroke-width:0.264583px;stroke-linecap:butt;stroke-linejoin:miter;stroke-opacity:1"
       d="m -156.31004,21.418379 -1.07694,4.01991 1.07694,-1.076937 1.07745,1.076937 z" />
    <path
       id="path8246"
       style="display:inline;fill:none;stroke:#000000;stroke-width:0.264582"
       d="m -167.26129,-0.59882423 v 1.498904 c 0,0.82616903 -0.63094,0.94930203 -1.72281,1.24186803 -1.77406,0.475357 -2.4004,0.847147 -2.4004,1.531348 0,0.759587 0.96927,1.689287 4.12321,2.076542 3.15394,0.387257 4.65239,0.08542 4.65239,-0.674166 0,-0.5981131 -0.92908,-0.9124081 -2.86392,-0.8299367 m -5.359,0.89609 c -1.30479,0.4122692 -2.14018,0.9020369 -2.14018,1.3362227 0,0.759587 2.55677,1.689287 5.71071,2.076537 3.15394,0.38726 5.71072,0.08543 5.71072,-0.67416 0,-0.3952073 -0.69216,-0.6665024 -1.80046,-0.7812942 m -0.82747,-0.053974 c -0.88923,-0.028419 -1.94731,0.021681 -3.08279,0.1610987 -0.94759,0.1163515 -1.84128,0.2816685 -2.62792,0.4766256 m -1.38911,0.4143966 c -1.0458,0.3776861 -1.69368,0.8031559 -1.69368,1.1855178 0,0.7595902 2.55677,1.6892902 5.71071,2.0765502 3.15394,0.38725 4.65239,0.08542 4.65239,-0.67417 0,-0.391319 -0.39771,-0.661152 -1.21461,-0.7778608 m -0.9102,-0.063913 c -0.67591,-0.00984 -1.51671,0.043487 -2.52758,0.1676041 -0.79095,0.09712 -1.44451,0.228351 -1.97984,0.382461 m -1.50337,0.672344 c -0.45928,0.334055 -0.64,0.693758 -0.64,1.021745 0,1.067312 2.19615,1.499771 2.94541,1.700534 0.74926,0.200763 1.08535,0.954558 1.08535,1.879879 m 3.30555,-9.3859432 c 0.23989,0.4813019 0.37483,1.024094 0.37483,1.598402 0,0.1398871 -0.008,0.2779043 -0.0236,0.4136187 m -0.18956,0.8074602 c -0.32275,0.8918286 -0.98896,1.6192103 -1.83886,2.0223773 m -3.92963,-0.570802 c -0.65141,-0.5838294 -1.08815,-1.402328 -1.17727,-2.3225478 m 0.0147,-0.828112 c 0.094,-0.7060574 0.39333,-1.3472161 0.83599,-1.8614712 m 0.66912,-0.6046181 c 0.58134,-0.4057863 1.28848,-0.6437866 2.05121,-0.6437871 1.07813,7e-7 2.04519,0.4755298 2.70288,1.2282878"
       inkscape:path-effect="#path-effect8250"
       inkscape:original-d="m -167.26129,-0.59882423 v 1.498904 c 0,0.82616903 -0.63094,0.94930203 -1.72281,1.24186803 -1.77406,0.475357 -2.4004,0.847147 -2.4004,1.531348 0,0.759587 0.96927,1.689287 4.12321,2.076542 3.15394,0.387257 4.65239,0.08542 4.65239,-0.674166 0,-0.759586 -1.49845,-1.061423 -4.65239,-0.674166 -3.15394,0.387255 -5.71071,1.316955 -5.71071,2.076542 0,0.759587 2.55677,1.689287 5.71071,2.076537 3.15394,0.38726 5.71072,0.08543 5.71072,-0.67416 0,-0.75957 -2.55678,-1.06142 -5.71072,-0.67417 -3.15394,0.38726 -5.71071,1.31696 -5.71071,2.07654 0,0.7595902 2.55677,1.6892902 5.71071,2.0765502 3.15394,0.38725 4.65239,0.08542 4.65239,-0.67417 0,-0.7595702 -1.49845,-1.0614202 -4.65239,-0.67417 -3.15394,0.38726 -4.12321,1.31696 -4.12321,2.07655 0,1.067312 2.19615,1.499771 2.94541,1.700534 0.74926,0.200763 1.08535,0.954558 1.08535,1.879879 m 3.68038,-7.7875412 a 3.5878823,3.5878823 0 0 1 -3.58788,3.5878822 3.5878823,3.5878823 0 0 1 -3.58788,-3.5878822 3.5878823,3.5878823 0 0 1 3.58788,-3.587882 3.5878823,3.5878823 0 0 1 3.58788,3.587882 z" />
    <path
       id="path8252"
       style="fill:#000000;stroke:#000000;stroke-width:0.264583px;stroke-linecap:butt;stroke-linejoin:miter;stroke-opacity:1"
       d="m -167.26129,-3.5417969 -1.07694,4.01990967 1.07694,-1.076937 1.07745,1.076937 z" />
    <path
       style="color:#000000;fill:#000000;-inkscape-stroke:none"
       d="m 1.6609173,-47.72242 -0.91015601,3.398438 c -0.217769,0.812727 -0.520941,1.057384 -1.177734,1.232422 -0.65679299,0.175037 -1.68669599,0.160735 -3.02929699,0.158203 -2.188648,-0.0041 -3.717646,0.10127 -4.826172,0.439453 -1.108525,0.338182 -1.8246393,1.011393 -2.0722663,1.935547 -0.286199,1.068113 0.118037,2.368916 1.4199223,3.6875 1.301886,1.318584 3.511225,2.716696 7.035157,4.136718 3.50836,1.413751 6.177148,2.189428 8.0937495,2.392579 0.9583,0.101575 1.733038,0.06612 2.355468,-0.148438 0.62243,-0.21456 1.099573,-0.669206 1.257813,-1.259766 0.114155,-0.42603 0.05584,-0.884468 -0.15625,-1.28125 -0.212087,-0.396781 -0.556181,-0.739588 -1.009766,-1.054687 -0.90717,-0.630199 -2.273256,-1.16817 -4.1582025,-1.654297 l -0.25,0.966797 c 1.8221885,0.469941 3.1048115,1.000506 3.8378905,1.509766 0.366539,0.25463 0.590328,0.499408 0.699218,0.703125 0.108891,0.203717 0.124566,0.357549 0.07227,0.552734 -0.0725,0.270563 -0.217708,0.433887 -0.619141,0.572266 -0.401432,0.138379 -1.051501,0.192071 -1.923828,0.09961 -1.7446535,-0.184925 -4.3643845,-0.931189 -7.8261715,-2.326172 -3.446215,-1.388705 -5.547209,-2.745349 -6.697265,-3.910156 -1.150056,-1.164808 -1.339338,-2.074379 -1.164063,-2.728516 0.16805,-0.627168 0.48725,-0.958944 1.396485,-1.236328 0.909235,-0.277384 2.380078,-0.400551 4.533203,-0.396484 1.329604,0.0025 2.394204,0.04708 3.28906199,-0.191406 0.894859,-0.238484 1.60061001,-0.878968 1.88476601,-1.939454 l 0.912109,-3.398437 z m -4.861328,10.429688 c -0.825238,0.01438 -1.635784,0.140918 -2.408203,0.371093 l 0.28711,0.958985 c 1.373182,-0.409199 2.873812,-0.456265 4.36523399,-0.05664 2.16593301,0.580362 3.88074401,1.987461 4.90039101,3.785156 l 0.86914,-0.49414 c -1.147023,-2.022266 -3.08286,-3.605047 -5.51171901,-4.25586 -0.83623299,-0.224067 -1.67671499,-0.322968 -2.50195299,-0.308594 z m -6.8554683,0.05859 c -1.49821,0.08985 -2.760841,0.2804 -3.720703,0.585938 -0.959863,0.305538 -1.704566,0.716575 -1.908204,1.476562 -0.188519,0.703563 0.185434,1.384762 0.769532,2.06836 0.584097,0.683597 1.444801,1.40833 2.533203,2.166015 2.176804,1.515371 5.2627533,3.146249 8.7773433,4.5625 3.51458799,1.416264 6.788783,2.350164 9.2832035,2.714844 1.24721,0.18234 2.297492,0.226707 3.121093,0.09766 0.411801,-0.06453 0.770658,-0.170946 1.074219,-0.355468 0.3035612,-0.184522 0.5541782,-0.472437 0.6484382,-0.824219 0.09324,-0.347968 0.02225,-0.716311 -0.144532,-1.025391 -0.166783,-0.309079 -0.4184842,-0.580355 -0.7363282,-0.839843 -0.635687,-0.518976 -1.5489,-0.999118 -2.697265,-1.460938 l -0.373047,0.927734 c 1.092459,0.439338 1.935739,0.898956 2.4375,1.308594 0.25088,0.204819 0.411366,0.396527 0.488281,0.539063 0.07691,0.142536 0.07947,0.21505 0.05859,0.292968 -0.02111,0.07878 -0.05971,0.140574 -0.201172,0.226563 -0.141463,0.08599 -0.382181,0.171449 -0.708985,0.222656 -0.653606,0.102414 -1.632437,0.07406 -2.820312,-0.09961 -2.3757505,-0.347331 -5.59912951,-1.259867 -9.0546875,-2.652344 -3.455559,-1.392464 -6.49351,-3.001166 -8.5820313,-4.455078 -1.04426,-0.726956 -1.850512,-1.418834 -2.34375,-1.996094 -0.493238,-0.57726 -0.606671,-1.002595 -0.564453,-1.160156 0.04561,-0.170198 0.418003,-0.517035 1.248047,-0.78125 0.830044,-0.264215 2.03097,-0.454321 3.4765623,-0.541016 z m 1.6367183,1.72461 c -1.14539,0.854102 -2.0924903,1.984407 -2.7246093,3.328125 l 0.90625,0.425781 c 0.5605493,-1.191579 1.3983313,-2.194252 2.4160163,-2.953125 z m -4.5605463,4.736328 c -1.165942,0.128139 -2.142179,0.329802 -2.892579,0.623047 -0.7504,0.293245 -1.342913,0.686034 -1.517578,1.33789 -0.188519,0.703564 0.185434,1.38476 0.769532,2.06836 0.584097,0.683599 1.446754,1.408328 2.535156,2.166015 2.176803,1.515375 5.2627563,3.146237 8.7773433,4.5625 3.508362,1.413742 6.17714999,2.189428 8.09375,2.392579 0.958301,0.101575 1.733039,0.06612 2.355469,-0.148438 0.6224305,-0.21456 1.1015245,-0.669204 1.2597655,-1.259766 0.15152,-0.56548 -0.01369,-1.171212 -0.408203,-1.654296 -0.394514,-0.483085 -0.9931185,-0.889369 -1.7988275,-1.269532 l -0.427735,0.904297 c 0.725036,0.342099 1.204481,0.695972 1.451172,0.998047 0.246691,0.302075 0.2862125,0.504608 0.216797,0.763672 -0.0725,0.270567 -0.217708,0.433887 -0.619141,0.572266 -0.401432,0.138379 -1.051501,0.192072 -1.923828,0.09961 -1.744654,-0.184926 -4.364382,-0.931197 -7.826172,-2.326172 -3.455557,-1.392476 -6.4915583,-3.001162 -8.5800783,-4.455078 -1.04426,-0.726958 -1.850512,-1.418832 -2.34375,-1.996094 -0.493237,-0.577262 -0.606672,-1.002591 -0.564453,-1.160156 0.03911,-0.145976 0.298947,-0.422922 0.916016,-0.664063 0.617068,-0.24114 1.525558,-0.438428 2.636719,-0.560546 z m 18.8476558,1.060547 -0.9863275,0.15625 c 0.166174,1.055015 0.118468,2.157703 -0.175782,3.255859 -0.04912,0.183329 -0.103089,0.364478 -0.164062,0.541016 l 0.945312,0.326172 c 0.06866,-0.198806 0.1303155,-0.401296 0.1855465,-0.607422 0.330841,-1.234716 0.382677,-2.482328 0.195313,-3.671875 z m -17.7988278,0.294922 c -0.219335,1.877757 0.175148,3.726212 1.046875,5.310547 l 0.875,-0.482422 c -0.77489,-1.408337 -1.124246,-3.045295 -0.929688,-4.710938 z m 3.3085933,5.035156 c -13.4205723,-22.458331 -6.7102863,-11.229166 0,0 z m -4.9160153,0.833984 c -1.070219,0.510838 -1.7101,1.254185 -1.927735,2.066407 -0.206824,0.771878 0.03012,1.53639 0.458985,2.183593 0.428863,0.647204 1.049627,1.219642 1.728515,1.738282 1.357776,1.037279 2.975187,1.85988 3.7421883,2.300781 0.676239,0.388727 1.058636,0.957037 1.238281,1.703124 0.179645,0.746087 0.13053,1.670061 -0.134766,2.660156 l 0.966797,0.259766 c 0.296869,-1.10793 0.372815,-2.189986 0.140625,-3.154297 -0.23219,-0.964311 -0.799358,-1.810805 -1.71289,-2.335937 -0.822771,-0.472959 -2.3779833,-1.269882 -3.6328133,-2.228515 -0.627415,-0.479317 -1.17203,-0.998203 -1.501953,-1.496094 -0.329923,-0.497891 -0.445515,-0.932988 -0.328125,-1.371094 0.133285,-0.497424 0.515975,-1.004474 1.394531,-1.423828 z m 16.8632813,0.03711 c -1.072105,1.380492 -2.58024201,2.367025 -4.26562501,2.810547 l 0.253906,0.966796 c 1.89624601,-0.499011 3.59182301,-1.607351 4.80078101,-3.164062 z"
       id="path8798"
       sodipodi:nodetypes="ccscsssssssssccssssssssscscccsccsccsscsssscssssssccsssssscsscsccccccccsssscssssccsssscssssccccsccscccccccccsssssccsssssccccccc" />
    <path
       id="path8804"
       style="fill:#000000;stroke:#000000;stroke-width:1;stroke-linecap:butt;stroke-linejoin:miter;stroke-miterlimit:4;stroke-dasharray:none;stroke-opacity:1"
       d="m 3.9319053,-54.265031 -4.90259001,8.455298 3.11463101,-1.782546 1.807243,3.101358 z" />
    <path
       id="path8806"
       style="display:inline;fill:none;stroke:#000000;stroke-width:1;stroke-miterlimit:4;stroke-dasharray:none"
       d="m -13.154587,47.552965 -0.910637,3.398543 c -0.501926,1.873215 -2.018165,1.76617 -4.690373,1.761131 -4.341777,-0.0082 -5.998576,0.451373 -6.414252,2.002696 -0.461475,1.722252 1.188074,4.423548 8.158228,7.232279 6.970154,2.808736 10.5768581,3.041642 11.0383321,1.319395 0.3329092,-1.242432 -1.2604758,-2.422102 -4.9676151,-3.378171 m -14.383359,-1.478805 c -2.943804,0.176546 -4.927096,0.762686 -5.176339,1.692872 -0.461476,1.72225 4.814842,5.395336 11.784999,8.204055 6.970152,2.808743 12.9946901,3.689524 13.4561681,1.967267 0.2282321,-0.851774 -1.0403705,-1.832538 -3.2811978,-2.733697 m -2.5735703,-0.875073 c -1.943399,-0.564612 -4.26042,-1.058865 -6.782242,-1.415635 -1.951961,-0.276143 -3.832712,-0.442487 -5.553612,-0.506542 m -4.774147,0.126154 c -2.277103,0.250257 -3.766601,0.794984 -3.98038,1.592817 -0.461479,1.72226 4.814839,5.395346 11.784991,8.204089 6.970158,2.808719 10.5768571,3.041642 11.0383351,1.319385 0.2209359,-0.824545 -0.4065694,-1.621461 -1.9373161,-2.343724 m -2.825561,-0.980841 c -1.468828,-0.390366 -3.283448,-0.744583 -5.456295,-1.051981 -1.665595,-0.235631 -3.097609,-0.342622 -4.322332,-0.347438 m -4.698684,0.786953 c -0.974388,0.465096 -1.4849,1.089903 -1.66036,1.744726 -0.648429,2.419971 4.106115,4.744883 5.695889,5.658744 1.589773,0.91386 1.89964,2.828717 1.337475,4.926744 M -9.9235193,65.510665 c 0.1767695,1.122282 0.1269471,2.297661 -0.1855987,3.464098 -0.05218,0.194728 -0.11082,0.386011 -0.175639,0.573682 m -1.294659,2.391628 c -1.140533,1.468603 -2.742185,2.516361 -4.533002,2.987628 m -9.632965,-4.130375 c -0.823309,-1.496337 -1.19499,-3.239385 -0.988043,-5.011087 m 0.744006,-2.608596 c 0.596335,-1.26765 1.489155,-2.335558 2.570693,-3.142047 m 2.655169,-1.332325 c 1.45901,-0.434775 3.055461,-0.483702 4.637408,-0.05982 2.297398,0.615587 4.122698,2.110054 5.206034,4.020036"
       inkscape:path-effect="#path-effect8810"
       inkscape:original-d="m -13.154587,47.552965 -0.910637,3.398543 c -0.501926,1.873215 -2.018165,1.76617 -4.690373,1.761131 -4.341777,-0.0082 -5.998576,0.451373 -6.414252,2.002696 -0.461475,1.722252 1.188074,4.423548 8.158228,7.232279 6.970154,2.808736 10.5768581,3.041642 11.0383321,1.319395 0.461476,-1.722249 -2.778475,-3.323898 -10.2191731,-4.376538 -7.440696,-1.052645 -13.846664,-0.509817 -14.30814,1.212434 -0.461476,1.72225 4.814842,5.395336 11.784999,8.204055 6.970152,2.808743 12.9946901,3.689524 13.4561681,1.967267 0.461465,-1.722212 -5.1963161,-3.971748 -12.6370101,-5.024405 -7.440699,-1.052633 -13.846668,-0.509805 -14.308139,1.212429 -0.461479,1.72226 4.814839,5.395346 11.784991,8.204089 6.970158,2.808719 10.5768571,3.041642 11.0383351,1.319385 0.461465,-1.722214 -2.7784771,-3.323892 -10.2191721,-4.376546 -7.440699,-1.052634 -10.219898,0.461983 -10.681376,2.184241 -0.648429,2.419971 4.106115,4.744883 5.695889,5.658744 1.589773,0.91386 1.89964,2.828717 1.337475,4.926744 m 13.139324,-15.404145 a 8.4859527,8.4219613 15 0 1 -10.37656,5.938667 8.4859527,8.4219613 15 0 1 -6.017032,-10.331316 8.4859527,8.4219613 15 0 1 10.37656,-5.938665 8.4859527,8.4219613 15 0 1 6.017032,10.331314 z" />
    <path
       id="path8812"
       style="fill:#000000;stroke:#000000;stroke-width:1;stroke-linecap:butt;stroke-linejoin:miter;stroke-miterlimit:4;stroke-dasharray:none;stroke-opacity:1"
       d="m -11.366628,40.880213 -4.90259,8.455298 3.114631,-1.782546 1.807243,3.101358 z" />
    <path
       id="path9755"
       style="fill:#000000;stroke:#000000;stroke-width:1;stroke-linecap:butt;stroke-linejoin:miter;stroke-miterlimit:4;stroke-dasharray:none;stroke-opacity:1"
       d="m 29.318117,4.6731365 -4.230281,8.8109105 2.966594,-2.019335 2.042926,2.95144 z"
       inkscape:transform-center-x="0.26606177"
       inkscape:transform-center-y="-2.4792019" />
  </g>
</svg>
