<?xml version="1.0" encoding="UTF-8" standalone="no"?>
<!-- Created with Inkscape (http://www.inkscape.org/) -->

<svg
   width="160mm"
   height="85mm"
   viewBox="0 0 160 85"
   version="1.1"
   id="svg5"
   sodipodi:docname="xposdependenceintuition.svg"
   inkscape:version="1.1.2 (b8e25be833, 2022-02-05)"
   inkscape:export-filename="C:\Fyzing\Baka\Figures\xposdependenceintuition.png"
   inkscape:export-xdpi="150"
   inkscape:export-ydpi="150"
   xmlns:inkscape="http://www.inkscape.org/namespaces/inkscape"
   xmlns:sodipodi="http://sodipodi.sourceforge.net/DTD/sodipodi-0.dtd"
   xmlns="http://www.w3.org/2000/svg"
   xmlns:svg="http://www.w3.org/2000/svg"
   xmlns:ns1="http://www.iki.fi/pav/software/textext/">
  <sodipodi:namedview
     id="namedview7"
     pagecolor="#ffffff"
     bordercolor="#eeeeee"
     borderopacity="1"
     inkscape:pageshadow="0"
     inkscape:pageopacity="0"
     inkscape:pagecheckerboard="0"
     inkscape:document-units="mm"
     showgrid="false"
     showguides="true"
     inkscape:guide-bbox="true"
     inkscape:snap-bbox="true"
     inkscape:snap-bbox-midpoints="true"
     inkscape:snap-intersection-paths="true"
     inkscape:object-paths="true"
     inkscape:snap-smooth-nodes="true"
     inkscape:snap-bbox-edge-midpoints="true"
     inkscape:snap-midpoints="true"
     inkscape:snap-object-midpoints="true"
     inkscape:zoom="2"
     inkscape:cx="169.75"
     inkscape:cy="135.5"
     inkscape:window-width="1920"
     inkscape:window-height="1009"
     inkscape:window-x="-8"
     inkscape:window-y="-8"
     inkscape:window-maximized="1"
     inkscape:current-layer="layer1" />
  <defs
     id="defs2">
    <marker
       style="overflow:visible;"
       id="marker5301"
       refX="0.0"
       refY="0.0"
       orient="auto"
       inkscape:stockid="Arrow1Mend"
       inkscape:isstock="true">
      <path
         transform="scale(0.4) rotate(180) translate(10,0)"
         style="fill-rule:evenodd;fill:context-stroke;stroke:context-stroke;stroke-width:1.0pt;"
         d="M 0.0,0.0 L 5.0,-5.0 L -12.5,0.0 L 5.0,5.0 L 0.0,0.0 z "
         id="path5299" />
    </marker>
    <marker
       style="overflow:visible;"
       id="marker3351"
       refX="0.0"
       refY="0.0"
       orient="auto"
       inkscape:stockid="Arrow1Mend"
       inkscape:isstock="true">
      <path
         transform="scale(0.4) rotate(180) translate(10,0)"
         style="fill-rule:evenodd;fill:context-stroke;stroke:context-stroke;stroke-width:1.0pt;"
         d="M 0.0,0.0 L 5.0,-5.0 L -12.5,0.0 L 5.0,5.0 L 0.0,0.0 z "
         id="path3349" />
    </marker>
    <marker
       style="overflow:visible;"
       id="marker3341"
       refX="0.0"
       refY="0.0"
       orient="auto"
       inkscape:stockid="Arrow1Mend"
       inkscape:isstock="true">
      <path
         transform="scale(0.4) rotate(180) translate(10,0)"
         style="fill-rule:evenodd;fill:context-stroke;stroke:context-stroke;stroke-width:1.0pt;"
         d="M 0.0,0.0 L 5.0,-5.0 L -12.5,0.0 L 5.0,5.0 L 0.0,0.0 z "
         id="path3339" />
    </marker>
    <marker
       style="overflow:visible;"
       id="marker3307"
       refX="0.0"
       refY="0.0"
       orient="auto"
       inkscape:stockid="Arrow1Mend"
       inkscape:isstock="true">
      <path
         transform="scale(0.4) rotate(180) translate(10,0)"
         style="fill-rule:evenodd;fill:context-stroke;stroke:context-stroke;stroke-width:1.0pt;"
         d="M 0.0,0.0 L 5.0,-5.0 L -12.5,0.0 L 5.0,5.0 L 0.0,0.0 z "
         id="path3305" />
    </marker>
    <marker
       style="overflow:visible;color:#0000ff"
       id="Arrow2Mend"
       refX="0.0"
       refY="0.0"
       orient="auto"
       inkscape:stockid="Arrow2Mend"
       inkscape:isstock="true">
      <path
         transform="scale(0.6) rotate(180) translate(0,0)"
         d="M 8.7185878,4.0337352 L -2.2072895,0.016013256 L 8.7185884,-4.0017078 C 6.9730900,-1.6296469 6.9831476,1.6157441 8.7185878,4.0337352 z "
         style="stroke:context-stroke;fill-rule:evenodd;fill:context-stroke;stroke-width:0.62500000;stroke-linejoin:round;"
         id="path1564" />
    </marker>
    <marker
       style="overflow:visible;"
       id="Arrow2Lend"
       refX="0.0"
       refY="0.0"
       orient="auto"
       inkscape:stockid="Arrow2Lend"
       inkscape:isstock="true">
      <path
         transform="scale(1.1) rotate(180) translate(1,0)"
         d="M 8.7185878,4.0337352 L -2.2072895,0.016013256 L 8.7185884,-4.0017078 C 6.9730900,-1.6296469 6.9831476,1.6157441 8.7185878,4.0337352 z "
         style="stroke:context-stroke;fill-rule:evenodd;fill:context-stroke;stroke-width:0.62500000;stroke-linejoin:round;"
         id="path1558" />
    </marker>
    <marker
       style="overflow:visible;"
       id="Arrow1Send"
       refX="0.0"
       refY="0.0"
       orient="auto"
       inkscape:stockid="Arrow1Send"
       inkscape:isstock="true">
      <path
         transform="scale(0.2) rotate(180) translate(6,0)"
         style="fill-rule:evenodd;fill:context-stroke;stroke:context-stroke;stroke-width:1.0pt;"
         d="M 0.0,0.0 L 5.0,-5.0 L -12.5,0.0 L 5.0,5.0 L 0.0,0.0 z "
         id="path1552" />
    </marker>
    <marker
       style="overflow:visible;"
       id="marker1798"
       refX="0.0"
       refY="0.0"
       orient="auto"
       inkscape:stockid="Arrow1Mend"
       inkscape:isstock="true">
      <path
         transform="scale(0.4) rotate(180) translate(10,0)"
         style="fill-rule:evenodd;fill:context-stroke;stroke:context-stroke;stroke-width:1.0pt;"
         d="M 0.0,0.0 L 5.0,-5.0 L -12.5,0.0 L 5.0,5.0 L 0.0,0.0 z "
         id="path1546" />
    </marker>
    <marker
       style="overflow:visible"
       id="marker2103"
       refX="0"
       refY="0"
       orient="auto"
       inkscape:stockid="Arrow1Mend"
       inkscape:isstock="true">
      <path
         transform="matrix(-0.4,0,0,-0.4,-4,0)"
         style="fill:context-stroke;fill-rule:evenodd;stroke:context-stroke;stroke-width:1pt"
         d="M 0,0 5,-5 -12.5,0 5,5 Z"
         id="path2101" />
    </marker>
    <marker
       style="overflow:visible"
       id="Arrow1Mend"
       refX="0"
       refY="0"
       orient="auto"
       inkscape:stockid="Arrow1Mend"
       inkscape:isstock="true">
      <path
         transform="matrix(-0.4,0,0,-0.4,-4,0)"
         style="fill:context-stroke;fill-rule:evenodd;stroke:context-stroke;stroke-width:1pt"
         d="M 0,0 5,-5 -12.5,0 5,5 Z"
         id="path1495" />
    </marker>
    <marker
       style="overflow:visible"
       id="Arrow1Lend"
       refX="0"
       refY="0"
       orient="auto"
       inkscape:stockid="Arrow1Lend"
       inkscape:isstock="true">
      <path
         transform="matrix(-0.8,0,0,-0.8,-10,0)"
         style="fill:context-stroke;fill-rule:evenodd;stroke:context-stroke;stroke-width:1pt"
         d="M 0,0 5,-5 -12.5,0 5,5 Z"
         id="path1489" />
    </marker>
    <style
       type="text/css"
       id="style2599">
*{stroke-linecap:butt;stroke-linejoin:round;}
  </style>
    <path
       d="M 0,0 V 3.5"
       id="m55ec57df94"
       style="stroke:#000000;stroke-width:0.8" />
    <path
       d="M 42,31.640625 C 42,37.75 41.90625,48.125 37.703125,56.109375 34,63.109375 28.09375,65.59375 22.90625,65.59375 18.09375,65.59375 12,63.40625 8.203125,56.203125 4.203125,48.71875 3.796875,39.4375 3.796875,31.640625 3.796875,25.953125 3.90625,17.28125 7,9.671875 11.296875,-0.609375 19,-2 22.90625,-2 27.5,-2 34.5,-0.109375 38.59375,9.375 41.59375,16.28125 42,24.359375 42,31.640625 Z M 22.90625,-0.40625 c -6.40625,0 -10.203125,5.484375 -11.609375,13.09375 -1.09375,5.875 -1.09375,14.46875 -1.09375,20.0625 0,7.6875 0,14.078125 1.296875,20.171875 C 13.40625,61.390625 19,64 22.90625,64 27,64 32.296875,61.296875 34.203125,53.125 35.5,47.4375 35.59375,40.734375 35.59375,32.75 c 0,-6.5 0,-14.484375 -1.1875,-20.375 -2.109375,-10.890625 -8,-12.78125 -11.5,-12.78125 z"
       id="CMR17-48" />
    <path
       d="m 18.40625,4.796875 c 0,2.890625 -2.40625,4.875 -4.8125,4.875 -2.890625,0 -4.890625,-2.390625 -4.890625,-4.78125 C 8.703125,2 11.09375,0 13.5,0 c 2.90625,0 4.90625,2.390625 4.90625,4.796875 z"
       id="CMMI12-58" />
    <path
       d="M 11.40625,57.6875 C 12.40625,57.28125 16.5,56 20.703125,56 30,56 35.09375,61.109375 38,64.0625 38,64.953125 38,65.5 37.40625,65.5 c -0.109375,0 -0.3125,0 -1.109375,-0.453125 -3.5,-1.640625 -7.59375,-2.96875 -12.59375,-2.96875 -3,0 -7.5,0.40625 -12.40625,2.59375 -1.09375,0.5 -1.296875,0.5 -1.390625,0.5 -0.5,0 -0.609375,-0.109375 -0.609375,-2.09375 v -28.65625 c 0,-1.78125 0,-2.28125 1,-2.28125 0.5,0 0.703125,0.203125 1.203125,0.890625 3.203125,4.484375 7.59375,6.375 12.59375,6.375 3.5,0 11,-2.1875 11,-19.265625 0,-3.1875 0,-8.96875 -3,-13.5625 -2.5,-4.09375 -6.390625,-6.1875 -10.6875,-6.1875 C 14.796875,0.390625 8.09375,5 6.296875,12.71875 6.703125,12.609375 7.5,12.421875 7.90625,12.421875 c 1.296875,0 3.796875,0.703125 3.796875,3.796875 C 11.703125,18.90625 9.796875,20 7.90625,20 5.59375,20 4.09375,18.59375 4.09375,15.796875 4.09375,7.09375 11,-2 21.59375,-2 c 10.3125,0 20.109375,8.875 20.109375,21.75 0,11.96875 -7.796875,21.25 -17.5,21.25 -5.109375,0 -9.40625,-1.890625 -12.796875,-5.46875 z"
       id="CMR17-53" />
    <path
       d="M 26.59375,63.40625 C 26.59375,65.5 26.5,65.5 25.09375,65.5 21.203125,61.1875 15.296875,59.796875 9.703125,59.796875 c -0.296875,0 -0.796875,0 -0.90625,-0.296875 C 8.703125,59.296875 8.703125,59.09375 8.703125,57 11.796875,57 17,57.59375 21,59.984375 V 7.203125 C 21,3.6875 20.796875,2.5 12.203125,2.5 h -3 V 0 C 14,0 19,0 23.796875,0 28.59375,0 33.59375,0 38.40625,0 v 2.5 h -3 c -8.609375,0 -8.8125,1.09375 -8.8125,4.65625 z"
       id="CMR17-49" />
    <path
       d="M 41.703125,15.453125 H 39.90625 C 38.90625,8.375 38.09375,7.171875 37.703125,6.5625 37.203125,5.765625 30,5.765625 28.59375,5.765625 H 9.40625 C 13,9.671875 20,16.75 28.5,24.953125 34.59375,30.734375 41.703125,37.53125 41.703125,47.421875 41.703125,59.21875 32.296875,66 21.796875,66 10.796875,66 4.09375,56.3125 4.09375,47.34375 4.09375,43.4375 7,42.9375 8.203125,42.9375 c 1,0 4,0.609375 4,4.09375 0,3.078125 -2.609375,3.96875 -4,3.96875 C 7.59375,51 7,50.90625 6.59375,50.703125 8.5,59.21875 14.296875,63.40625 20.40625,63.40625 c 8.6875,0 14.390625,-6.890625 14.390625,-15.984375 C 34.796875,38.734375 29.703125,31.25 24,24.75 L 4.09375,2.28125 V 0 h 35.203125 z"
       id="CMR17-50" />
    <path
       d="M 22.09375,33.703125 C 31,33.703125 34.90625,25.96875 34.90625,17.03125 34.90625,5 28.5,0.390625 22.703125,0.390625 c -5.296875,0 -13.90625,2.640625 -16.609375,10.4375 0.5,-0.203125 1,-0.203125 1.5,-0.203125 2.40625,0 4.203125,1.59375 4.203125,4.1875 C 11.796875,17.703125 9.59375,19 7.59375,19 5.90625,19 3.296875,18.203125 3.296875,14.46875 3.296875,5.234375 12.296875,-2 22.90625,-2 34,-2 42.5,6.71875 42.5,16.953125 c 0,9.71875 -8,16.75 -17.5,17.84375 C 32.59375,36.375 39.90625,43.0625 39.90625,52.015625 39.90625,59.6875 32,65.296875 23,65.296875 c -9.09375,0 -17.09375,-5.46875 -17.09375,-13.28125 C 5.90625,48.59375 8.5,48 9.796875,48 c 2.109375,0 3.90625,1.296875 3.90625,3.890625 0,2.578125 -1.796875,3.875 -3.90625,3.875 -0.390625,0 -0.890625,0 -1.296875,-0.1875 C 11.40625,61.859375 19.296875,63 22.796875,63 c 3.5,0 10.109375,-1.671875 10.109375,-11.125 0,-2.765625 -0.40625,-7.6875 -3.8125,-12.03125 C 26.09375,36 22.703125,36 19.40625,35.6875 c -0.5,0 -2.8125,-0.234375 -3.203125,-0.234375 C 15.5,35.359375 15.09375,35.265625 15.09375,34.5 c 0,-0.703125 0.109375,-0.796875 2.109375,-0.796875 z"
       id="CMR17-51" />
    <path
       d="M 47.40625,40.71875 C 44.203125,40.109375 43,37.71875 43,35.828125 43,33.421875 44.90625,32.625 46.296875,32.625 c 3,0 5.109375,2.59375 5.109375,5.296875 0,4.1875 -4.8125,6.078125 -9,6.078125 C 36.296875,44 32.90625,38.015625 32,36.125 29.703125,44 23.5,44 21.703125,44 11.5,44 6.09375,30.9375 6.09375,28.734375 6.09375,28.34375 6.5,27.84375 7.203125,27.84375 c 0.796875,0 1,0.59375 1.203125,1 3.390625,11.078125 10.09375,13.171875 13,13.171875 4.5,0 5.390625,-4.203125 5.390625,-6.59375 0,-2.1875 -0.59375,-4.484375 -1.796875,-9.28125 L 21.59375,12.46875 C 20.09375,6.484375 17.203125,1 11.90625,1 c -0.5,0 -3,0 -5.109375,1.296875 3.609375,0.703125 4.40625,3.6875 4.40625,4.890625 0,2 -1.5,3.1875 -3.40625,3.1875 -2.390625,0 -5,-2.09375 -5,-5.28125 C 2.796875,0.890625 7.5,-1 11.796875,-1 16.59375,-1 20,2.796875 22.09375,6.890625 23.703125,1 28.703125,-1 32.40625,-1 42.59375,-1 48,12.078125 48,14.265625 c 0,0.5 -0.40625,0.90625 -1,0.90625 -0.90625,0 -1,-0.5 -1.296875,-1.296875 C 43,5.09375 37.203125,1 32.703125,1 c -3.5,0 -5.40625,2.59375 -5.40625,6.6875 0,2.1875 0.40625,3.78125 2,10.375 l 3.5,13.5625 c 1.5,6 4.90625,10.390625 9.5,10.390625 0.203125,0 3,0 5.109375,-1.296875 z"
       id="CMMI12-120" />
    <path
       d="m 22,-16.609375 c -6.40625,0 -6.796875,0.40625 -6.796875,4.28125 V 6.28125 c 2.890625,-4.1875 7.09375,-6.875 12.390625,-6.875 10,0 20.109375,8.765625 20.109375,22.28125 0,12.546875 -8.703125,22.09375 -19,22.09375 -6,0 -10.90625,-3.28125 -13.703125,-7.25 v 7.25 L 3.09375,42.6875 v -2.578125 c 5.90625,0 6.8125,-0.609375 6.8125,-5.375 v -47.0625 c 0,-3.78125 -0.40625,-4.28125 -6.8125,-4.28125 V -19.1875 C 5.5,-19 9.90625,-19 12.5,-19 c 2.59375,0 7.09375,0 9.5,-0.1875 z M 15.203125,31.4375 c 0,1.40625 0,3.484375 3.890625,7.171875 C 19.59375,39.015625 23,42 28,42 35.296875,42 41.296875,32.9375 41.296875,21.59375 41.296875,10.25 34.90625,1 27,1 23.40625,1 19.5,2.6875 16.5,7.375 15.203125,9.5625 15.203125,10.15625 15.203125,11.75 Z"
       id="CMR17-112" />
    <path
       d="m 40.703125,71.015625 c 0.5,1.28125 0.5,1.484375 0.5,1.6875 0,1.1875 -0.90625,1.796875 -1.703125,1.796875 -1.203125,0 -1.59375,-0.796875 -2,-2 L 5.09375,-21.515625 c -0.5,-1.296875 -0.5,-1.5 -0.5,-1.703125 C 4.59375,-24.40625 5.5,-25 6.296875,-25 c 1.203125,0 1.609375,0.796875 2,1.984375 z"
       id="CMR17-47" />
    <path
       d="m 41.5,30.203125 c 0,5.09375 -1,13.390625 -12.796875,13.390625 -7.90625,0 -12,-6.09375 -13.5,-10.09375 H 15.09375 V 43.59375 L 3.296875,42.5 v -2.59375 c 5.90625,0 6.796875,-0.609375 6.796875,-5.40625 V 6.6875 c 0,-3.8125 -0.390625,-4.296875 -6.796875,-4.296875 v -2.59375 C 5.703125,0 10.09375,0 12.703125,0 c 2.59375,0 7.09375,0 9.5,-0.203125 v 2.59375 c -6.40625,0 -6.796875,0.390625 -6.796875,4.296875 V 25.90625 C 15.40625,35.109375 21,42 28,42 c 7.40625,0 8.203125,-6.59375 8.203125,-11.40625 V 6.6875 c 0,-3.8125 -0.40625,-4.296875 -6.796875,-4.296875 v -2.59375 C 31.796875,0 36.203125,0 38.796875,0 c 2.609375,0 7.109375,0 9.5,-0.203125 v 2.59375 C 41.90625,2.390625 41.5,2.78125 41.5,6.6875 Z"
       id="CMR17-110" />
    <path
       d="m 67.59375,30.203125 c 0,4.984375 -0.890625,13.390625 -12.796875,13.390625 C 48,43.59375 43.296875,39 41.5,33.609375 h -0.09375 c -1.203125,8.203125 -7.109375,9.984375 -12.703125,9.984375 -7.90625,0 -12,-6.09375 -13.5,-10.09375 H 15.09375 V 43.59375 L 3.296875,42.5 v -2.59375 c 5.90625,0 6.796875,-0.609375 6.796875,-5.40625 V 6.6875 c 0,-3.8125 -0.390625,-4.296875 -6.796875,-4.296875 v -2.59375 C 5.703125,0 10.09375,0 12.703125,0 c 2.59375,0 7.09375,0 9.5,-0.203125 v 2.59375 c -6.40625,0 -6.796875,0.390625 -6.796875,4.296875 V 25.90625 C 15.40625,35.109375 21,42 28,42 c 7.40625,0 8.203125,-6.59375 8.203125,-11.40625 V 6.6875 c 0,-3.8125 -0.40625,-4.296875 -6.796875,-4.296875 v -2.59375 C 31.796875,0 36.203125,0 38.796875,0 c 2.609375,0 7.109375,0 9.5,-0.203125 v 2.59375 C 41.90625,2.390625 41.5,2.78125 41.5,6.6875 V 25.90625 C 41.5,35.109375 47.09375,42 54.09375,42 61.5,42 62.296875,35.40625 62.296875,30.59375 V 6.6875 C 62.296875,2.875 61.90625,2.390625 55.5,2.390625 v -2.59375 C 57.90625,0 62.296875,0 64.90625,0 67.5,0 72,0 74.40625,-0.203125 v 2.59375 c -6.40625,0 -6.8125,0.390625 -6.8125,4.296875 z"
       id="CMR17-109" />
    <path
       d="M 0,0 H -3.5"
       id="m5c169e4ec4"
       style="stroke:#000000;stroke-width:0.8" />
    <path
       d="m 65.90625,23 c 1.6875,0 3.5,0 3.5,2 0,2 -1.8125,2 -3.5,2 H 11.796875 c -1.703125,0 -3.5,0 -3.5,-2 0,-2 1.796875,-2 3.5,-2 z"
       id="CMSY10-0" />
    <path
       d="m 10.59375,34 c 0,23.65625 11.203125,29 17.703125,29 C 30.40625,63 35.5,62.640625 37.5,59 c -1.59375,0 -4.59375,0 -4.59375,-3.484375 0,-2.6875 2.1875,-3.59375 3.59375,-3.59375 0.90625,0 3.59375,0.390625 3.59375,3.703125 0,6.15625 -5,9.671875 -11.890625,9.671875 C 16.296875,65.296875 3.796875,52.96875 3.796875,31 3.796875,3.953125 15.09375,-2 23.09375,-2 32.796875,-2 42,6.671875 42,20.046875 42,32.515625 33.90625,41.59375 23.703125,41.59375 17.59375,41.59375 13.09375,37.609375 10.59375,30.625 Z m 12.5,-33.609375 C 10.796875,0.390625 10.796875,18.75 10.796875,22.4375 10.796875,29.625 14.203125,40 23.5,40 c 1.703125,0 6.59375,0 9.90625,-6.875 1.796875,-3.90625 1.796875,-7.984375 1.796875,-12.984375 0,-5.390625 0,-9.359375 -2.109375,-13.359375 -2.1875,-4.109375 -5.390625,-6.390625 -10,-6.390625 z"
       id="CMR17-54" />
    <path
       d="M 33.59375,64.40625 C 33.59375,66.5 33.5,66.5 31.703125,66.5 L 2,19.59375 V 17 H 27.796875 V 7.140625 C 27.796875,3.5 27.59375,2.5 20.59375,2.5 H 18.703125 V 0 c 3.203125,0 8.59375,0 12,0 3.390625,0 8.796875,0 12,0 v 2.5 h -1.90625 c -7,0 -7.203125,1 -7.203125,4.640625 V 17 h 10.203125 v 2.59375 H 33.59375 Z m -5.5,-6.546875 V 19.59375 H 4 Z"
       id="CMR17-52" />
    <path
       d="M 27.203125,35.375 C 33.5,38.546875 39.90625,43.328125 39.90625,50.984375 c 0,9.03125 -8.8125,14.3125 -16.90625,14.3125 -9.09375,0 -17.09375,-6.5625 -17.09375,-15.609375 0,-2.484375 0.59375,-6.765625 4.5,-10.546875 1,-0.984375 5.1875,-3.96875 7.890625,-5.859375 -4.5,-2.296875 -15,-7.75 -15,-18.6875 C 3.296875,4.359375 13.09375,-2 22.796875,-2 33.5,-2 42.5,5.65625 42.5,15.78125 c 0,9.0625 -6.09375,13.234375 -10.09375,15.921875 z M 14.09375,44.09375 c -0.796875,0.5 -4.796875,3.578125 -4.796875,8.265625 0,6.0625 6.296875,10.640625 13.5,10.640625 C 30.703125,63 36.5,57.4375 36.5,50.96875 36.5,41.703125 26.09375,36.421875 25.59375,36.421875 c -0.09375,0 -0.1875,0 -1,0.609375 z M 32.5,23.734375 C 34,22.640625 38.796875,19.375 38.796875,13.296875 38.796875,5.953125 31.40625,0.390625 23,0.390625 c -9.09375,0 -16,6.453125 -16,14.296875 0,7.859375 6.09375,14.40625 13,17.5 z"
       id="CMR17-56" />
    <path
       d="M 51.796875,68 H 5.09375 v -2.59375 c 6.90625,0 8,0 8,-4.5 V 7 c 0,-4.5 -1.09375,-4.5 -8,-4.5 V 0 c 2.90625,0 8.5,0 11.609375,0 4.09375,0 8.890625,0 13,0 V 2.5 H 27.5 c -7.59375,0 -7.796875,1 -7.796875,4.609375 V 61.5 c 0,3.40625 0.203125,3.90625 4.203125,3.90625 h 11 c 15.1875,0 16,-7 17.5,-19.5 h 1.796875 z"
       id="CMR17-0" />
    <path
       d="m 30.59375,-24.390625 c 0,0.09375 0,0.296875 -0.296875,0.59375 -4.59375,4.671875 -16.890625,17.4375 -16.890625,48.5 0,31.0625 12.09375,43.71875 17,48.6875 0,0.109375 0.1875,0.3125 0.1875,0.609375 0,0.296875 -0.296875,0.5 -0.6875,0.5 -1.109375,0 -9.609375,-7.375 -14.5,-18.34375 C 10.40625,45.109375 9,34.359375 9,24.8125 9,17.625 9.703125,5.484375 15.703125,-7.359375 20.5,-17.734375 28.703125,-25 29.90625,-25 c 0.5,0 0.6875,0.203125 0.6875,0.609375 z"
       id="CMR17-40" />
    <path
       d="m 45.09375,61.578125 v 2.1875 h -23.5 C 9.90625,63.765625 9.703125,65.078125 9.296875,67 H 7.5 L 4.59375,48.34375 h 1.8125 c 0.296875,1.890625 1,6.96875 2.1875,8.859375 C 9.203125,58 16.59375,58 18.296875,58 h 22 L 29.203125,41.578125 c -7.40625,-11.046875 -12.5,-25.96875 -12.5,-39 0,-1.1875 0,-4.578125 3.59375,-4.578125 3.609375,0 3.609375,3.390625 3.609375,4.671875 v 4.59375 c 0,16.296875 2.796875,27.046875 7.390625,33.921875 z"
       id="CMR17-55" />
    <path
       d="m 35.203125,29.125 c 0,-21.875 -9.109375,-28.640625 -16.609375,-28.640625 -2.296875,0 -7.890625,0 -10.1875,4.109375 2.59375,-0.40625 4.5,0.984375 4.5,3.5 0,2.71875 -2.203125,3.609375 -3.609375,3.609375 -0.890625,0 -3.59375,-0.40625 -3.59375,-3.796875 C 5.703125,1.109375 11.59375,-2 18.796875,-2 30.296875,-2 42,10.53125 42,32.390625 c 0,27.25 -11.203125,32.90625 -18.796875,32.90625 -9.90625,0 -19.40625,-8.609375 -19.40625,-21.890625 C 3.796875,31.109375 11.90625,22 22.09375,22 30.5,22 34.203125,29.734375 35.203125,33 Z m -12.90625,-5.53125 c -2.703125,0 -6.5,0.5 -9.59375,6.4375 -2.109375,3.859375 -2.109375,8.421875 -2.109375,13.265625 0,5.859375 0,9.90625 2.8125,14.265625 1.390625,2.078125 4,5.4375 9.796875,5.4375 C 35,63 35,45.078125 35,41.125 35,34.09375 31.796875,23.59375 22.296875,23.59375 Z"
       id="CMR17-57" />
    <path
       d="m 19.203125,25.296875 c 0,2.90625 -2.40625,5.296875 -5.296875,5.296875 -2.90625,0 -5.3125,-2.390625 -5.3125,-5.296875 C 8.59375,22.390625 11,20 13.90625,20 c 2.890625,0 5.296875,2.390625 5.296875,5.296875 z"
       id="CMSY10-1" />
    <path
       d="M 15,23.390625 C 15,33 19.09375,42 26.59375,42 27.296875,42 28,41.90625 28.703125,41.59375 c 0,0 -2.203125,-0.703125 -2.203125,-3.28125 0,-2.40625 1.90625,-3.40625 3.40625,-3.40625 1.1875,0 3.390625,0.703125 3.390625,3.5 0,3.203125 -3.203125,5.1875 -6.59375,5.1875 -7.609375,0 -10.90625,-7.390625 -11.90625,-10.890625 h -0.09375 V 43.59375 L 3.09375,42.5 V 39.90625 C 9,39.90625 9.90625,39.296875 9.90625,34.5 V 6.6875 C 9.90625,2.875 9.5,2.390625 3.09375,2.390625 v -2.59375 C 5.5,0 10.09375,0 12.703125,0 c 2.890625,0 8,0 10.703125,-0.203125 v 2.59375 C 16.203125,2.390625 15,2.390625 15,6.875 Z"
       id="CMR17-114" />
    <path
       d="M 36,25.828125 C 36,32.375 36,35.84375 31.796875,39.734375 28.09375,43 23.796875,44 20.40625,44 12.5,44 6.796875,37.609375 6.796875,30.796875 6.796875,27 9.796875,27 10.40625,27 11.703125,27 14,27.78125 14,30.53125 14,33 12.09375,34.078125 10.40625,34.078125 10,34.078125 9.5,33.96875 9.203125,33.875 c 2.09375,6.625 7.5,8.53125 11,8.53125 5,0 10.5,-4.453125 10.5,-12.953125 V 25 c -5.90625,0 -13,-0.796875 -18.609375,-3.796875 C 5.796875,17.703125 4,12.703125 4,8.90625 4,1.203125 13,-1 18.296875,-1 c 5.5,0 10.609375,3.171875 12.796875,8.984375 0.203125,-4.34375 3,-8.265625 7.40625,-8.265625 2.09375,0 7.40625,1.375 7.40625,9.140625 V 14.375 h -1.8125 V 8.78125 c 0,-6 -2.6875,-6.78125 -4,-6.78125 C 36,2 36,7.15625 36,11.53125 Z M 30.703125,13.59375 c 0,-8.640625 -6.203125,-13 -11.703125,-13 -5,0 -8.90625,3.703125 -8.90625,8.3125 0,2.984375 1.3125,8.28125 7.109375,11.484375 C 22,23.09375 27.5,23.5 30.703125,23.5 Z"
       id="CMR17-97" />
    <path
       d="M 29.203125,67.59375 V 65 C 35.09375,65 36,64.40625 36,59.6875 V 36.640625 c -0.40625,0.5 -4.5,6.953125 -12.59375,6.953125 C 13.203125,43.59375 3.296875,34.5 3.296875,21.3125 3.296875,8.203125 12.59375,-1 22.40625,-1 c 8.5,0 12.890625,6.265625 13.390625,6.9375 V -0.984375 H 47.90625 V 2 C 42,2 41.09375,2.59375 41.09375,7.390625 V 68.6875 Z m 6.59375,-55.796875 c 0,-3 -1.796875,-5.703125 -4.09375,-7.703125 -3.40625,-3 -6.796875,-3.5 -8.703125,-3.5 -2.90625,0 -13.296875,1.5 -13.296875,20.59375 C 9.703125,40.8125 21.296875,42 23.90625,42 28.5,42 32.203125,39.40625 34.5,35.796875 c 1.296875,-2.09375 1.296875,-2.390625 1.296875,-4.1875 z"
       id="CMR17-100" />
    <path
       d="m 30.90625,42.140625 c 0,1.8125 -0.109375,1.90625 -0.703125,1.90625 -0.40625,0 -0.5,-0.09375 -1.703125,-1.59375 -0.296875,-0.40625 -1.203125,-1.421875 -1.5,-1.8125 -3.203125,3.40625 -7.703125,3.40625 -9.40625,3.40625 C 6.5,44.046875 2.5,38.234375 2.5,32.4375 c 0,-9.03125 10.203125,-11.109375 13.09375,-11.734375 6.3125,-1.28125 8.5,-1.6875 10.609375,-3.5 1.296875,-1.1875 3.5,-3.390625 3.5,-6.984375 0,-4.21875 -2.40625,-9.625 -11.609375,-9.625 -8.6875,0 -11.796875,6.59375 -13.59375,15.359375 -0.296875,1.390625 -0.296875,1.5 -1.09375,1.5 -0.8125,0 -0.90625,-0.109375 -0.90625,-2.09375 v -14.375 c 0,-1.78125 0.09375,-1.890625 0.703125,-1.890625 0.5,0 0.59375,0.109375 1.09375,0.90625 C 4.90625,0.890625 6.40625,3.296875 7,4.3125 9,1.609375 12.5,-1 18.09375,-1 28,-1 33.296875,4.421875 33.296875,12.25 c 0,5.125 -2.703125,7.828125 -4,9.03125 -3,3.109375 -6.5,3.8125 -10.703125,4.609375 -5.5,1.21875 -12.5,2.625 -12.5,8.75 0,2.59375 1.40625,8.125 11.5,8.125 10.703125,0 11.3125,-10.046875 11.5,-13.265625 C 29.203125,29 29.703125,28.890625 30,28.890625 c 0.90625,0 0.90625,0.3125 0.90625,2.015625 z"
       id="CMR17-115" />
    <path
       d="m 26.296875,24.703125 c 0,7.171875 -0.703125,19.3125 -6.703125,32.15625 -4.796875,10.375 -13,17.640625 -14.1875,17.640625 -0.3125,0 -0.703125,-0.109375 -0.703125,-0.609375 0,-0.1875 0.09375,-0.296875 0.203125,-0.5 4.796875,-4.984375 17,-17.640625 17,-48.640625 0,-31.109375 -12.109375,-43.765625 -17,-48.765625 C 4.796875,-24.203125 4.703125,-24.3125 4.703125,-24.5 c 0,-0.5 0.390625,-0.5 0.703125,-0.5 1.09375,0 9.59375,7.375 14.5,18.34375 5,11.046875 6.390625,21.796875 6.390625,31.359375 z"
       id="CMR17-41" />
    <path
       d="m 38.90625,27.890625 -20,19.90625 C 17.703125,49 17.5,49.1875 16.703125,49.1875 c -1,0 -2,-0.890625 -2,-2 0,-0.6875 0.203125,-0.890625 1.296875,-2 L 36,25.09375 16,5 C 14.90625,3.890625 14.703125,3.6875 14.703125,3 c 0,-1.109375 1,-2 2,-2 0.796875,0 1,0.1875 2.203125,1.390625 L 38.796875,22.296875 59.5,1.59375 C 59.703125,1.5 60.40625,1 61,1 c 1.203125,0 2,0.890625 2,2 0,0.1875 0,0.59375 -0.296875,1.09375 -0.109375,0.203125 -16,15.90625 -21,21 L 60,43.390625 c 0.5,0.609375 2,1.90625 2.5,2.5 C 62.59375,46.09375 63,46.5 63,47.1875 c 0,1.109375 -0.796875,2 -2,2 -0.796875,0 -1.203125,-0.390625 -2.296875,-1.5 z"
       id="CMSY10-2" />
    <path
       d="M 0,3 C 0.795609,3 1.55874,2.683901 2.12132,2.12132 2.683901,1.55874 3,0.795609 3,0 3,-0.795609 2.683901,-1.55874 2.12132,-2.12132 1.55874,-2.683901 0.795609,-3 0,-3 -0.795609,-3 -1.55874,-2.683901 -2.12132,-2.12132 -2.683901,-1.55874 -3,-0.795609 -3,0 -3,0.795609 -2.683901,1.55874 -2.12132,2.12132 -1.55874,2.683901 -0.795609,3 0,3 Z"
       id="m88ea757f64"
       style="stroke:#ff0000" />
    <path
       d="M 34.90625,35 C 33,35 30.203125,35 30.203125,31.515625 c 0,-2.796875 2.296875,-3.59375 3.59375,-3.59375 0.703125,0 3.609375,0.3125 3.609375,3.703125 0,6.921875 -6.8125,12.171875 -14.5,12.171875 -10.609375,0 -19.609375,-9.765625 -19.609375,-22.5 C 3.296875,8.0625 12.703125,-1 22.90625,-1 c 12.390625,0 15.5,11.578125 15.5,12.6875 0,0.40625 -0.109375,0.703125 -0.8125,0.703125 -0.6875,0 -0.796875,-0.09375 -1.1875,-1.40625 -2.609375,-8.171875 -8.3125,-10.1875 -12.609375,-10.1875 -6.390625,0 -14.09375,5.875 -14.09375,20.59375 C 9.703125,36.53125 17.09375,42 23,42 c 3.90625,0 9.703125,-1.796875 11.90625,-7 z"
       id="CMR17-99" />
    <path
       d="M 43.09375,21.1875 C 43.09375,34 33.796875,44 22.90625,44 12,44 2.703125,34 2.703125,21.1875 2.703125,8.609375 12,-1 22.90625,-1 c 10.890625,0 20.1875,9.609375 20.1875,22.1875 z M 22.90625,0.796875 c -4.703125,0 -8.703125,2.796875 -11,6.703125 -2.5,4.484375 -2.8125,10.09375 -2.8125,14.5 0,4.203125 0.203125,9.40625 2.8125,13.90625 2,3.296875 5.890625,6.5 11,6.5 4.5,0 8.296875,-2.5 10.6875,-6 C 36.703125,31.703125 36.703125,25.109375 36.703125,22 c 0,-3.90625 -0.203125,-9.890625 -2.90625,-14.703125 -2.796875,-4.59375 -7.09375,-6.5 -10.890625,-6.5 z"
       id="CMR17-111" />
    <path
       d="M 29.40625,42.078125 V 39.5 c 5.890625,0 6.796875,-0.609375 6.796875,-5.34375 V 16.125 c 0,-8.3125 -4.5,-15.53125 -11.90625,-15.53125 -8.203125,0 -8.890625,4.84375 -8.890625,10 V 43.171875 L 3.296875,42.078125 V 39.5 c 4,0 6.703125,0 6.796875,-3.96875 v -19 c 0,-6.640625 0,-10.890625 2.609375,-13.671875 C 14,1.578125 16.5,-1 23.703125,-1 c 8.5,0 11.796875,6.890625 12.59375,8.90625 H 36.40625 V -0.984375 H 48.296875 V 2 C 42.40625,2 41.5,2.59375 41.5,7.390625 v 35.78125 z"
       id="CMR17-117" />
    <path
       d="m 15.09375,40 h 14 v 2.578125 h -14 V 61 H 13.296875 C 13.09375,50.703125 9.59375,41.6875 1.09375,41.6875 V 40 H 9.796875 V 12.046875 C 9.796875,10.15625 9.796875,-1 21.40625,-1 c 5.890625,0 9.296875,5.78125 9.296875,13.140625 V 17.8125 H 28.90625 V 12.234375 C 28.90625,5.375 26.203125,0.796875 22,0.796875 c -2.90625,0 -6.90625,1.984375 -6.90625,11.046875 z"
       id="CMR17-116" />
    <path
       d="M 38.09375,23 C 38.5,23.40625 38.5,23.609375 38.5,24.625 38.5,34.96875 33.09375,44 21.703125,44 c -10.609375,0 -19,-10.109375 -19,-22.390625 0,-13 9.5,-22.609375 20.09375,-22.609375 C 34,-1 38.40625,9.484375 38.40625,11.5625 c 0,0.6875 -0.609375,0.6875 -0.8125,0.6875 -0.6875,0 -0.796875,-0.203125 -1.1875,-1.375 C 34.203125,4.140625 28.703125,0.796875 23.5,0.796875 19.203125,0.796875 14.90625,3.171875 12.203125,7.5 9.09375,12.546875 9.09375,18.375 9.09375,23 Z M 9.203125,24.5 c 0.703125,14.640625 8.390625,17.90625 12.390625,17.90625 6.8125,0 11.40625,-6.515625 11.5,-17.90625 z"
       id="CMR17-101" />
    <path
       d="m 15.5,61.078125 c 0,2.1875 -1.796875,4.078125 -4.09375,4.078125 -2.203125,0 -4.109375,-1.78125 -4.109375,-4.078125 C 7.296875,58.890625 9.09375,57 11.40625,57 13.59375,57 15.5,58.796875 15.5,61.078125 Z M 3.796875,42.28125 v -2.578125 c 5.609375,0 6.40625,-0.609375 6.40625,-5.375 V 6.671875 c 0,-3.796875 -0.40625,-4.28125 -6.796875,-4.28125 v -2.59375 C 5.796875,0 10.09375,0 12.59375,0 c 2.40625,0 6.5,0 8.8125,-0.203125 v 2.59375 c -5.90625,0 -6.109375,0.59375 -6.109375,4.171875 V 43.375 Z"
       id="CMR17-105" />
    <path
       d="M 15.296875,68.6875 3.40625,67.59375 V 65 c 5.890625,0 6.796875,-0.59375 6.796875,-5.359375 V 6.65625 c 0,-3.78125 -0.40625,-4.265625 -6.796875,-4.265625 v -2.59375 C 5.796875,0 10.203125,0 12.703125,0 c 2.59375,0 7,0 9.390625,-0.203125 v 2.59375 c -6.390625,0 -6.796875,0.390625 -6.796875,4.265625 z"
       id="CMR17-108" />
    <path
       d="m 39.90625,43.1875 c -2.40625,0 -9.8125,0 -11.703125,-0.390625 -0.609375,-0.21875 -0.796875,-0.21875 -2,-0.21875 h -11.40625 v 11.625 C 14.796875,63.640625 22.40625,68 28.40625,68 c 1.890625,0 6.1875,-0.5 8.390625,-3.921875 -1,0 -4.203125,0 -4.203125,-3.484375 0,-2.390625 1.609375,-3.59375 3.609375,-3.59375 1.796875,0 3.59375,1 3.59375,3.703125 0,5 -4.796875,8.890625 -11,8.890625 C 20.90625,69.59375 9.90625,65.125 9.90625,54.203125 v -11.625 h -8 V 40 h 8 V 6.671875 C 9.90625,2.875 9.5,2.390625 3.09375,2.390625 v -2.59375 C 5.5,0 9.90625,0 12.40625,0 c 2.59375,0 7,0 9.390625,-0.203125 v 2.59375 C 15.40625,2.390625 15,2.78125 15,6.671875 V 40 H 29.703125 C 34,40 34.796875,39.09375 34.796875,34.71875 V 6.671875 C 34.796875,2.875 34.40625,2.390625 28,2.390625 v -2.59375 C 30.40625,0 34.796875,0 37.296875,0 c 2.609375,0 7,0 9.40625,-0.203125 v 2.59375 c -6.40625,0 -6.796875,0.390625 -6.796875,4.28125 z"
       id="CMR17-12" />
    <clipPath
       id="pb1a5ae8ff8">
      <rect
         height="217.44"
         width="334.79999"
         x="41.530357"
         y="17.202656"
         id="rect3109" />
    </clipPath>
    <defs
       id="defs5436">
      <path
         d="M 0,3 C 0.795609,3 1.55874,2.683901 2.12132,2.12132 2.683901,1.55874 3,0.795609 3,0 3,-0.795609 2.683901,-1.55874 2.12132,-2.12132 1.55874,-2.683901 0.795609,-3 0,-3 -0.795609,-3 -1.55874,-2.683901 -2.12132,-2.12132 -2.683901,-1.55874 -3,-0.795609 -3,0 -3,0.795609 -2.683901,1.55874 -2.12132,2.12132 -1.55874,2.683901 -0.795609,3 0,3 Z"
         id="path5434"
         style="stroke:#ff0000" />
    </defs>
    <defs
       id="defs5418">
      <path
         d="m 38.90625,27.890625 -20,19.90625 C 17.703125,49 17.5,49.1875 16.703125,49.1875 c -1,0 -2,-0.890625 -2,-2 0,-0.6875 0.203125,-0.890625 1.296875,-2 L 36,25.09375 16,5 C 14.90625,3.890625 14.703125,3.6875 14.703125,3 c 0,-1.109375 1,-2 2,-2 0.796875,0 1,0.1875 2.203125,1.390625 L 38.796875,22.296875 59.5,1.59375 C 59.703125,1.5 60.40625,1 61,1 c 1.203125,0 2,0.890625 2,2 0,0.1875 0,0.59375 -0.296875,1.09375 -0.109375,0.203125 -16,15.90625 -21,21 L 60,43.390625 c 0.5,0.609375 2,1.90625 2.5,2.5 C 62.59375,46.09375 63,46.5 63,47.1875 c 0,1.109375 -0.796875,2 -2,2 -0.796875,0 -1.203125,-0.390625 -2.296875,-1.5 z"
         id="path5416" />
    </defs>
    <defs
       id="defs5344">
      <path
         d="M 27.203125,35.375 C 33.5,38.546875 39.90625,43.328125 39.90625,50.984375 c 0,9.03125 -8.8125,14.3125 -16.90625,14.3125 -9.09375,0 -17.09375,-6.5625 -17.09375,-15.609375 0,-2.484375 0.59375,-6.765625 4.5,-10.546875 1,-0.984375 5.1875,-3.96875 7.890625,-5.859375 -4.5,-2.296875 -15,-7.75 -15,-18.6875 C 3.296875,4.359375 13.09375,-2 22.796875,-2 33.5,-2 42.5,5.65625 42.5,15.78125 c 0,9.0625 -6.09375,13.234375 -10.09375,15.921875 z M 14.09375,44.09375 c -0.796875,0.5 -4.796875,3.578125 -4.796875,8.265625 0,6.0625 6.296875,10.640625 13.5,10.640625 C 30.703125,63 36.5,57.4375 36.5,50.96875 36.5,41.703125 26.09375,36.421875 25.59375,36.421875 c -0.09375,0 -0.1875,0 -1,0.609375 z M 32.5,23.734375 C 34,22.640625 38.796875,19.375 38.796875,13.296875 38.796875,5.953125 31.40625,0.390625 23,0.390625 c -9.09375,0 -16,6.453125 -16,14.296875 0,7.859375 6.09375,14.40625 13,17.5 z"
         id="path5342" />
    </defs>
    <defs
       id="defs5372">
      <path
         d="M 51.796875,68 H 5.09375 v -2.59375 c 6.90625,0 8,0 8,-4.5 V 7 c 0,-4.5 -1.09375,-4.5 -8,-4.5 V 0 c 2.90625,0 8.5,0 11.609375,0 4.09375,0 8.890625,0 13,0 V 2.5 H 27.5 c -7.59375,0 -7.796875,1 -7.796875,4.609375 V 61.5 c 0,3.40625 0.203125,3.90625 4.203125,3.90625 h 11 c 15.1875,0 16,-7 17.5,-19.5 h 1.796875 z"
         id="path5352" />
      <path
         d="m 30.59375,-24.390625 c 0,0.09375 0,0.296875 -0.296875,0.59375 -4.59375,4.671875 -16.890625,17.4375 -16.890625,48.5 0,31.0625 12.09375,43.71875 17,48.6875 0,0.109375 0.1875,0.3125 0.1875,0.609375 0,0.296875 -0.296875,0.5 -0.6875,0.5 -1.109375,0 -9.609375,-7.375 -14.5,-18.34375 C 10.40625,45.109375 9,34.359375 9,24.8125 9,17.625 9.703125,5.484375 15.703125,-7.359375 20.5,-17.734375 28.703125,-25 29.90625,-25 c 0.5,0 0.6875,0.203125 0.6875,0.609375 z"
         id="path5354" />
      <path
         d="m 45.09375,61.578125 v 2.1875 h -23.5 C 9.90625,63.765625 9.703125,65.078125 9.296875,67 H 7.5 L 4.59375,48.34375 h 1.8125 c 0.296875,1.890625 1,6.96875 2.1875,8.859375 C 9.203125,58 16.59375,58 18.296875,58 h 22 L 29.203125,41.578125 c -7.40625,-11.046875 -12.5,-25.96875 -12.5,-39 0,-1.1875 0,-4.578125 3.59375,-4.578125 3.609375,0 3.609375,3.390625 3.609375,4.671875 v 4.59375 c 0,16.296875 2.796875,27.046875 7.390625,33.921875 z"
         id="path5356" />
      <path
         d="m 35.203125,29.125 c 0,-21.875 -9.109375,-28.640625 -16.609375,-28.640625 -2.296875,0 -7.890625,0 -10.1875,4.109375 2.59375,-0.40625 4.5,0.984375 4.5,3.5 0,2.71875 -2.203125,3.609375 -3.609375,3.609375 -0.890625,0 -3.59375,-0.40625 -3.59375,-3.796875 C 5.703125,1.109375 11.59375,-2 18.796875,-2 30.296875,-2 42,10.53125 42,32.390625 c 0,27.25 -11.203125,32.90625 -18.796875,32.90625 -9.90625,0 -19.40625,-8.609375 -19.40625,-21.890625 C 3.796875,31.109375 11.90625,22 22.09375,22 30.5,22 34.203125,29.734375 35.203125,33 Z m -12.90625,-5.53125 c -2.703125,0 -6.5,0.5 -9.59375,6.4375 -2.109375,3.859375 -2.109375,8.421875 -2.109375,13.265625 0,5.859375 0,9.90625 2.8125,14.265625 1.390625,2.078125 4,5.4375 9.796875,5.4375 C 35,63 35,45.078125 35,41.125 35,34.09375 31.796875,23.59375 22.296875,23.59375 Z"
         id="path5358" />
      <path
         d="m 19.203125,25.296875 c 0,2.90625 -2.40625,5.296875 -5.296875,5.296875 -2.90625,0 -5.3125,-2.390625 -5.3125,-5.296875 C 8.59375,22.390625 11,20 13.90625,20 c 2.890625,0 5.296875,2.390625 5.296875,5.296875 z"
         id="path5360" />
      <path
         d="M 15,23.390625 C 15,33 19.09375,42 26.59375,42 27.296875,42 28,41.90625 28.703125,41.59375 c 0,0 -2.203125,-0.703125 -2.203125,-3.28125 0,-2.40625 1.90625,-3.40625 3.40625,-3.40625 1.1875,0 3.390625,0.703125 3.390625,3.5 0,3.203125 -3.203125,5.1875 -6.59375,5.1875 -7.609375,0 -10.90625,-7.390625 -11.90625,-10.890625 h -0.09375 V 43.59375 L 3.09375,42.5 V 39.90625 C 9,39.90625 9.90625,39.296875 9.90625,34.5 V 6.6875 C 9.90625,2.875 9.5,2.390625 3.09375,2.390625 v -2.59375 C 5.5,0 10.09375,0 12.703125,0 c 2.890625,0 8,0 10.703125,-0.203125 v 2.59375 C 16.203125,2.390625 15,2.390625 15,6.875 Z"
         id="path5362" />
      <path
         d="M 36,25.828125 C 36,32.375 36,35.84375 31.796875,39.734375 28.09375,43 23.796875,44 20.40625,44 12.5,44 6.796875,37.609375 6.796875,30.796875 6.796875,27 9.796875,27 10.40625,27 11.703125,27 14,27.78125 14,30.53125 14,33 12.09375,34.078125 10.40625,34.078125 10,34.078125 9.5,33.96875 9.203125,33.875 c 2.09375,6.625 7.5,8.53125 11,8.53125 5,0 10.5,-4.453125 10.5,-12.953125 V 25 c -5.90625,0 -13,-0.796875 -18.609375,-3.796875 C 5.796875,17.703125 4,12.703125 4,8.90625 4,1.203125 13,-1 18.296875,-1 c 5.5,0 10.609375,3.171875 12.796875,8.984375 0.203125,-4.34375 3,-8.265625 7.40625,-8.265625 2.09375,0 7.40625,1.375 7.40625,9.140625 V 14.375 h -1.8125 V 8.78125 c 0,-6 -2.6875,-6.78125 -4,-6.78125 C 36,2 36,7.15625 36,11.53125 Z M 30.703125,13.59375 c 0,-8.640625 -6.203125,-13 -11.703125,-13 -5,0 -8.90625,3.703125 -8.90625,8.3125 0,2.984375 1.3125,8.28125 7.109375,11.484375 C 22,23.09375 27.5,23.5 30.703125,23.5 Z"
         id="path5364" />
      <path
         d="M 29.203125,67.59375 V 65 C 35.09375,65 36,64.40625 36,59.6875 V 36.640625 c -0.40625,0.5 -4.5,6.953125 -12.59375,6.953125 C 13.203125,43.59375 3.296875,34.5 3.296875,21.3125 3.296875,8.203125 12.59375,-1 22.40625,-1 c 8.5,0 12.890625,6.265625 13.390625,6.9375 V -0.984375 H 47.90625 V 2 C 42,2 41.09375,2.59375 41.09375,7.390625 V 68.6875 Z m 6.59375,-55.796875 c 0,-3 -1.796875,-5.703125 -4.09375,-7.703125 -3.40625,-3 -6.796875,-3.5 -8.703125,-3.5 -2.90625,0 -13.296875,1.5 -13.296875,20.59375 C 9.703125,40.8125 21.296875,42 23.90625,42 28.5,42 32.203125,39.40625 34.5,35.796875 c 1.296875,-2.09375 1.296875,-2.390625 1.296875,-4.1875 z"
         id="path5366" />
      <path
         d="m 30.90625,42.140625 c 0,1.8125 -0.109375,1.90625 -0.703125,1.90625 -0.40625,0 -0.5,-0.09375 -1.703125,-1.59375 -0.296875,-0.40625 -1.203125,-1.421875 -1.5,-1.8125 -3.203125,3.40625 -7.703125,3.40625 -9.40625,3.40625 C 6.5,44.046875 2.5,38.234375 2.5,32.4375 c 0,-9.03125 10.203125,-11.109375 13.09375,-11.734375 6.3125,-1.28125 8.5,-1.6875 10.609375,-3.5 1.296875,-1.1875 3.5,-3.390625 3.5,-6.984375 0,-4.21875 -2.40625,-9.625 -11.609375,-9.625 -8.6875,0 -11.796875,6.59375 -13.59375,15.359375 -0.296875,1.390625 -0.296875,1.5 -1.09375,1.5 -0.8125,0 -0.90625,-0.109375 -0.90625,-2.09375 v -14.375 c 0,-1.78125 0.09375,-1.890625 0.703125,-1.890625 0.5,0 0.59375,0.109375 1.09375,0.90625 C 4.90625,0.890625 6.40625,3.296875 7,4.3125 9,1.609375 12.5,-1 18.09375,-1 28,-1 33.296875,4.421875 33.296875,12.25 c 0,5.125 -2.703125,7.828125 -4,9.03125 -3,3.109375 -6.5,3.8125 -10.703125,4.609375 -5.5,1.21875 -12.5,2.625 -12.5,8.75 0,2.59375 1.40625,8.125 11.5,8.125 10.703125,0 11.3125,-10.046875 11.5,-13.265625 C 29.203125,29 29.703125,28.890625 30,28.890625 c 0.90625,0 0.90625,0.3125 0.90625,2.015625 z"
         id="path5368" />
      <path
         d="m 26.296875,24.703125 c 0,7.171875 -0.703125,19.3125 -6.703125,32.15625 -4.796875,10.375 -13,17.640625 -14.1875,17.640625 -0.3125,0 -0.703125,-0.109375 -0.703125,-0.609375 0,-0.1875 0.09375,-0.296875 0.203125,-0.5 4.796875,-4.984375 17,-17.640625 17,-48.640625 0,-31.109375 -12.109375,-43.765625 -17,-48.765625 C 4.796875,-24.203125 4.703125,-24.3125 4.703125,-24.5 c 0,-0.5 0.390625,-0.5 0.703125,-0.5 1.09375,0 9.59375,7.375 14.5,18.34375 5,11.046875 6.390625,21.796875 6.390625,31.359375 z"
         id="path5370" />
    </defs>
    <defs
       id="defs5168">
      <path
         d="M 47.40625,40.71875 C 44.203125,40.109375 43,37.71875 43,35.828125 43,33.421875 44.90625,32.625 46.296875,32.625 c 3,0 5.109375,2.59375 5.109375,5.296875 0,4.1875 -4.8125,6.078125 -9,6.078125 C 36.296875,44 32.90625,38.015625 32,36.125 29.703125,44 23.5,44 21.703125,44 11.5,44 6.09375,30.9375 6.09375,28.734375 6.09375,28.34375 6.5,27.84375 7.203125,27.84375 c 0.796875,0 1,0.59375 1.203125,1 3.390625,11.078125 10.09375,13.171875 13,13.171875 4.5,0 5.390625,-4.203125 5.390625,-6.59375 0,-2.1875 -0.59375,-4.484375 -1.796875,-9.28125 L 21.59375,12.46875 C 20.09375,6.484375 17.203125,1 11.90625,1 c -0.5,0 -3,0 -5.109375,1.296875 3.609375,0.703125 4.40625,3.6875 4.40625,4.890625 0,2 -1.5,3.1875 -3.40625,3.1875 -2.390625,0 -5,-2.09375 -5,-5.28125 C 2.796875,0.890625 7.5,-1 11.796875,-1 16.59375,-1 20,2.796875 22.09375,6.890625 23.703125,1 28.703125,-1 32.40625,-1 42.59375,-1 48,12.078125 48,14.265625 c 0,0.5 -0.40625,0.90625 -1,0.90625 -0.90625,0 -1,-0.5 -1.296875,-1.296875 C 43,5.09375 37.203125,1 32.703125,1 c -3.5,0 -5.40625,2.59375 -5.40625,6.6875 0,2.1875 0.40625,3.78125 2,10.375 l 3.5,13.5625 c 1.5,6 4.90625,10.390625 9.5,10.390625 0.203125,0 3,0 5.109375,-1.296875 z"
         id="path5158" />
      <path
         d="m 22,-16.609375 c -6.40625,0 -6.796875,0.40625 -6.796875,4.28125 V 6.28125 c 2.890625,-4.1875 7.09375,-6.875 12.390625,-6.875 10,0 20.109375,8.765625 20.109375,22.28125 0,12.546875 -8.703125,22.09375 -19,22.09375 -6,0 -10.90625,-3.28125 -13.703125,-7.25 v 7.25 L 3.09375,42.6875 v -2.578125 c 5.90625,0 6.8125,-0.609375 6.8125,-5.375 v -47.0625 c 0,-3.78125 -0.40625,-4.28125 -6.8125,-4.28125 V -19.1875 C 5.5,-19 9.90625,-19 12.5,-19 c 2.59375,0 7.09375,0 9.5,-0.1875 z M 15.203125,31.4375 c 0,1.40625 0,3.484375 3.890625,7.171875 C 19.59375,39.015625 23,42 28,42 35.296875,42 41.296875,32.9375 41.296875,21.59375 41.296875,10.25 34.90625,1 27,1 23.40625,1 19.5,2.6875 16.5,7.375 15.203125,9.5625 15.203125,10.15625 15.203125,11.75 Z"
         id="path5160" />
      <path
         d="m 40.703125,71.015625 c 0.5,1.28125 0.5,1.484375 0.5,1.6875 0,1.1875 -0.90625,1.796875 -1.703125,1.796875 -1.203125,0 -1.59375,-0.796875 -2,-2 L 5.09375,-21.515625 c -0.5,-1.296875 -0.5,-1.5 -0.5,-1.703125 C 4.59375,-24.40625 5.5,-25 6.296875,-25 c 1.203125,0 1.609375,0.796875 2,1.984375 z"
         id="path5162" />
      <path
         d="m 41.5,30.203125 c 0,5.09375 -1,13.390625 -12.796875,13.390625 -7.90625,0 -12,-6.09375 -13.5,-10.09375 H 15.09375 V 43.59375 L 3.296875,42.5 v -2.59375 c 5.90625,0 6.796875,-0.609375 6.796875,-5.40625 V 6.6875 c 0,-3.8125 -0.390625,-4.296875 -6.796875,-4.296875 v -2.59375 C 5.703125,0 10.09375,0 12.703125,0 c 2.59375,0 7.09375,0 9.5,-0.203125 v 2.59375 c -6.40625,0 -6.796875,0.390625 -6.796875,4.296875 V 25.90625 C 15.40625,35.109375 21,42 28,42 c 7.40625,0 8.203125,-6.59375 8.203125,-11.40625 V 6.6875 c 0,-3.8125 -0.40625,-4.296875 -6.796875,-4.296875 v -2.59375 C 31.796875,0 36.203125,0 38.796875,0 c 2.609375,0 7.109375,0 9.5,-0.203125 v 2.59375 C 41.90625,2.390625 41.5,2.78125 41.5,6.6875 Z"
         id="path5164" />
      <path
         d="m 67.59375,30.203125 c 0,4.984375 -0.890625,13.390625 -12.796875,13.390625 C 48,43.59375 43.296875,39 41.5,33.609375 h -0.09375 c -1.203125,8.203125 -7.109375,9.984375 -12.703125,9.984375 -7.90625,0 -12,-6.09375 -13.5,-10.09375 H 15.09375 V 43.59375 L 3.296875,42.5 v -2.59375 c 5.90625,0 6.796875,-0.609375 6.796875,-5.40625 V 6.6875 c 0,-3.8125 -0.390625,-4.296875 -6.796875,-4.296875 v -2.59375 C 5.703125,0 10.09375,0 12.703125,0 c 2.59375,0 7.09375,0 9.5,-0.203125 v 2.59375 c -6.40625,0 -6.796875,0.390625 -6.796875,4.296875 V 25.90625 C 15.40625,35.109375 21,42 28,42 c 7.40625,0 8.203125,-6.59375 8.203125,-11.40625 V 6.6875 c 0,-3.8125 -0.40625,-4.296875 -6.796875,-4.296875 v -2.59375 C 31.796875,0 36.203125,0 38.796875,0 c 2.609375,0 7.109375,0 9.5,-0.203125 v 2.59375 C 41.90625,2.390625 41.5,2.78125 41.5,6.6875 V 25.90625 C 41.5,35.109375 47.09375,42 54.09375,42 61.5,42 62.296875,35.40625 62.296875,30.59375 V 6.6875 C 62.296875,2.875 61.90625,2.390625 55.5,2.390625 v -2.59375 C 57.90625,0 62.296875,0 64.90625,0 67.5,0 72,0 74.40625,-0.203125 v 2.59375 c -6.40625,0 -6.8125,0.390625 -6.8125,4.296875 z"
         id="path5166" />
    </defs>
    <defs
       id="defs5144">
      <path
         d="M 22.09375,33.703125 C 31,33.703125 34.90625,25.96875 34.90625,17.03125 34.90625,5 28.5,0.390625 22.703125,0.390625 c -5.296875,0 -13.90625,2.640625 -16.609375,10.4375 0.5,-0.203125 1,-0.203125 1.5,-0.203125 2.40625,0 4.203125,1.59375 4.203125,4.1875 C 11.796875,17.703125 9.59375,19 7.59375,19 5.90625,19 3.296875,18.203125 3.296875,14.46875 3.296875,5.234375 12.296875,-2 22.90625,-2 34,-2 42.5,6.71875 42.5,16.953125 c 0,9.71875 -8,16.75 -17.5,17.84375 C 32.59375,36.375 39.90625,43.0625 39.90625,52.015625 39.90625,59.6875 32,65.296875 23,65.296875 c -9.09375,0 -17.09375,-5.46875 -17.09375,-13.28125 C 5.90625,48.59375 8.5,48 9.796875,48 c 2.109375,0 3.90625,1.296875 3.90625,3.890625 0,2.578125 -1.796875,3.875 -3.90625,3.875 -0.390625,0 -0.890625,0 -1.296875,-0.1875 C 11.40625,61.859375 19.296875,63 22.796875,63 c 3.5,0 10.109375,-1.671875 10.109375,-11.125 0,-2.765625 -0.40625,-7.6875 -3.8125,-12.03125 C 26.09375,36 22.703125,36 19.40625,35.6875 c -0.5,0 -2.8125,-0.234375 -3.203125,-0.234375 C 15.5,35.359375 15.09375,35.265625 15.09375,34.5 c 0,-0.703125 0.109375,-0.796875 2.109375,-0.796875 z"
         id="path5142" />
    </defs>
    <defs
       id="id-1072ea75-04a0-44a7-a276-a6ad668e5c49">
      <g
         id="id-c11270ff-70a7-402d-a87b-467d575e7d52">
        <symbol
           overflow="visible"
           id="id-e53d7477-7f2b-4927-8823-405f6a3ac38e">
          <path
             style="stroke:none;stroke-width:0"
             d=""
             id="id-1a84dc53-7026-428b-b45d-a10b8a879eb9" />
        </symbol>
        <symbol
           overflow="visible"
           id="id-8cf00f99-0fd3-497f-923c-0d63bdff22a5">
          <path
             style="stroke:none;stroke-width:0"
             d="M 3.328125,-3.015625 C 3.390625,-3.265625 3.625,-4.1875 4.3125,-4.1875 c 0.046875,0 0.296875,0 0.5,0.125 C 4.53125,-4 4.34375,-3.765625 4.34375,-3.515625 c 0,0.15625 0.109375,0.34375 0.375,0.34375 0.21875,0 0.53125,-0.171875 0.53125,-0.578125 0,-0.515625 -0.578125,-0.65625 -0.921875,-0.65625 -0.578125,0 -0.921875,0.53125 -1.046875,0.75 -0.25,-0.65625 -0.78125,-0.75 -1.078125,-0.75 -1.03125,0 -1.609375,1.28125 -1.609375,1.53125 0,0.109375 0.109375,0.109375 0.125,0.109375 0.078125,0 0.109375,-0.03125 0.125,-0.109375 0.34375,-1.0625 1,-1.3125 1.34375,-1.3125 0.1875,0 0.53125,0.09375 0.53125,0.671875 0,0.3125 -0.171875,0.96875 -0.53125,2.375 -0.15625,0.609375 -0.515625,1.03125 -0.953125,1.03125 -0.0625,0 -0.28125,0 -0.5,-0.125 0.25,-0.0625 0.46875,-0.265625 0.46875,-0.546875 0,-0.265625 -0.21875,-0.34375 -0.359375,-0.34375 -0.3125,0 -0.546875,0.25 -0.546875,0.578125 0,0.453125 0.484375,0.65625 0.921875,0.65625 0.671875,0 1.03125,-0.703125 1.046875,-0.75 0.125,0.359375 0.484375,0.75 1.078125,0.75 1.03125,0 1.59375,-1.28125 1.59375,-1.53125 0,-0.109375 -0.078125,-0.109375 -0.109375,-0.109375 -0.09375,0 -0.109375,0.046875 -0.140625,0.109375 -0.328125,1.078125 -1,1.3125 -1.3125,1.3125 -0.390625,0 -0.546875,-0.3125 -0.546875,-0.65625 0,-0.21875 0.046875,-0.4375 0.15625,-0.875 z m 0,0"
             id="id-d607e204-77dc-4ae4-990a-257fac5c6c6b" />
        </symbol>
      </g>
    </defs>
  </defs>
  <g
     inkscape:label="Vrstva 1"
     inkscape:groupmode="layer"
     id="layer1">
    <path
       id="path3910"
       style="fill:none;stroke:#0000ff;stroke-width:0.5;stroke-miterlimit:4;stroke-dasharray:none;marker-end:url(#marker2103)"
       d="m -2.6716384,-20.274585 c 0.713105,0.714523 1.70136301,1.156965 2.79350701,1.156965 2.17391399,0 3.93621899,-1.752998 3.93621899,-3.915431 0,-2.162434 -1.762305,-3.915433 -3.93621899,-3.915433 -2.17391501,0 -3.93622101,1.752999 -3.93622101,3.915433 0,1.076057 0,0.658209 0,1.978108"
       sodipodi:nodetypes="cssssc" />
    <ellipse
       style="fill:#0000ff;stroke:#0000ff;stroke-width:0.7;stroke-miterlimit:4;stroke-dasharray:none"
       id="ellipse3912"
       cx="-0.0074933949"
       cy="-23.033052"
       rx="1.9587886"
       ry="1.8717418"
       transform="scale(-1,1)" />
    <path
       style="fill:none;stroke:#0000ff;stroke-width:0.264582;stroke-linecap:butt;stroke-linejoin:miter;stroke-miterlimit:4;stroke-dasharray:1.05833, 2.11666;stroke-dashoffset:0;stroke-opacity:1"
       d="M 153.29828,30.374741 H 7.9881483"
       id="path9249"
       sodipodi:nodetypes="cc" />
    <path
       style="fill:none;stroke:#ff0000;stroke-width:0.264582;stroke-linecap:butt;stroke-linejoin:miter;stroke-miterlimit:4;stroke-dasharray:1.05833, 2.11666;stroke-dashoffset:0;stroke-opacity:1"
       d="M 153.29828,18.039471 H 7.9881493"
       id="path22924"
       sodipodi:nodetypes="cc" />
    <path
       style="fill:#000000;fill-opacity:1;stroke:none;stroke-width:0"
       d="m 81.389881,5.9506584 c 0.02205,-0.0882 0.104731,-0.413412 0.347266,-0.413412 0.01654,0 0.104731,0 0.176389,0.0441 -0.09922,0.02205 -0.165365,0.104731 -0.165365,0.192926 0,0.05512 0.03859,0.121267 0.132292,0.121267 0.07717,0 0.187414,-0.06063 0.187414,-0.203949 0,-0.181902 -0.20395,-0.231511 -0.325218,-0.231511 -0.203949,0 -0.325217,0.187413 -0.369314,0.264583 -0.08819,-0.23151 -0.275608,-0.264583 -0.380339,-0.264583 -0.363802,0 -0.567752,0.451997 -0.567752,0.540191 0,0.03858 0.03858,0.03858 0.0441,0.03858 0.02756,0 0.03858,-0.01102 0.0441,-0.03858 0.121268,-0.374826 0.352778,-0.463021 0.474046,-0.463021 0.06615,0 0.187413,0.03307 0.187413,0.237023 0,0.110243 -0.06063,0.341754 -0.187413,0.837848 -0.05512,0.214974 -0.181901,0.363802 -0.336242,0.363802 -0.02205,0 -0.09922,0 -0.176389,-0.0441 0.08819,-0.02205 0.165365,-0.09371 0.165365,-0.192926 0,-0.09371 -0.07717,-0.121267 -0.12678,-0.121267 -0.110243,0 -0.192925,0.08819 -0.192925,0.20395 0,0.159852 0.170877,0.23151 0.325217,0.23151 0.237023,0 0.363803,-0.248047 0.369315,-0.264583 0.0441,0.126779 0.170877,0.264583 0.380338,0.264583 0.363803,0 0.56224,-0.451997 0.56224,-0.540191 0,-0.03858 -0.02756,-0.03858 -0.03858,-0.03858 -0.03307,0 -0.03858,0.01654 -0.04961,0.03858 -0.115755,0.380339 -0.352778,0.463021 -0.463021,0.463021 -0.137804,0 -0.192926,-0.110243 -0.192926,-0.231511 0,-0.07717 0.01654,-0.15434 0.05512,-0.30868 z m 0,0"
       id="id-05659fc3-e94d-4ad1-b4db-fbffb92c2852" />
    <path
       style="fill:none;stroke:#000000;stroke-width:0.264582;stroke-linecap:butt;stroke-linejoin:miter;stroke-miterlimit:4;stroke-dasharray:2.11666, 0.529169, 0.264582, 0.529169;stroke-dashoffset:0;stroke-opacity:1;marker-end:url(#Arrow1Mend)"
       d="M 78.86984,79.605591 V 5.3930094"
       id="path22305" />
    <ellipse
       style="fill:none;stroke:#000000;stroke-width:0.3;stroke-miterlimit:4;stroke-dasharray:none;marker-mid:url(#Arrow1Mend);marker-end:url(#Arrow1Mend)"
       id="ellipse1858"
       cx="-42.103958"
       cy="78.869873"
       rx="24.497456"
       ry="24.356758"
       transform="rotate(-90)" />
    <ellipse
       style="fill:none;stroke:#000000;stroke-width:0.3;stroke-miterlimit:4;stroke-dasharray:none;marker-mid:url(#Arrow1Mend);marker-end:url(#Arrow1Mend)"
       id="ellipse1860"
       cx="-42.667564"
       cy="78.869873"
       rx="20.394032"
       ry="20.276899"
       transform="rotate(-90)" />
    <ellipse
       style="fill:none;stroke:#000000;stroke-width:0.3;stroke-miterlimit:4;stroke-dasharray:none;marker-mid:url(#Arrow1Mend);marker-end:url(#Arrow1Mend)"
       id="ellipse1862"
       cx="-42.667564"
       cy="78.869873"
       rx="18.342318"
       ry="18.236971"
       transform="rotate(-90)" />
    <ellipse
       style="fill:none;stroke:#000000;stroke-width:0.3;stroke-miterlimit:4;stroke-dasharray:none;marker-mid:url(#Arrow1Mend);marker-end:url(#Arrow1Mend)"
       id="ellipse1864"
       cx="-42.667564"
       cy="78.869873"
       rx="16.290604"
       ry="16.197041"
       transform="rotate(-90)" />
    <ellipse
       style="fill:none;stroke:#000000;stroke-width:0.3;stroke-miterlimit:4;stroke-dasharray:none;marker-mid:url(#Arrow1Mend);marker-end:url(#Arrow1Mend)"
       id="ellipse1866"
       cx="-42.667564"
       cy="78.869873"
       rx="12.187178"
       ry="12.117182"
       transform="rotate(-90)" />
    <ellipse
       style="fill:none;stroke:#000000;stroke-width:0.3;stroke-miterlimit:4;stroke-dasharray:none;marker-mid:url(#Arrow1Mend);marker-end:url(#Arrow1Mend)"
       id="ellipse1868"
       cx="-42.667564"
       cy="78.869873"
       rx="4.9135122"
       ry="4.8860493"
       transform="rotate(-90)" />
    <ellipse
       style="fill:none;stroke:#000000;stroke-width:0.3;stroke-miterlimit:4;stroke-dasharray:none;marker-mid:url(#Arrow1Mend);marker-end:url(#Arrow1Mend)"
       id="ellipse1870"
       cx="-41.950256"
       cy="78.869873"
       rx="32.699142"
       ry="32.506821"
       transform="rotate(-90)" />
    <path
       id="path3914"
       style="fill:none;stroke:#ff0000;stroke-width:0.5;stroke-miterlimit:4;stroke-dasharray:none;marker-end:url(#marker5301)"
       d="m 81.628446,20.718721 c 0.714523,-0.71311 1.156965,-1.70137 1.156965,-2.79351 0,-2.17391 -1.752998,-3.93622 -3.915431,-3.93622 -2.162434,0 -3.915433,1.76231 -3.915433,3.93622 0,2.17391 1.752999,3.93622 3.915433,3.93622 1.076057,0 0.658209,0 1.978108,0"
       sodipodi:nodetypes="cssssc" />
    <ellipse
       style="fill:#ff0000;stroke:#ff0000;stroke-width:0.7;stroke-miterlimit:4;stroke-dasharray:none"
       id="ellipse3916"
       cx="18.039589"
       cy="78.869972"
       rx="1.9587886"
       ry="1.8717418"
       transform="matrix(0,1,1,0,0,0)" />
    <path
       style="fill:none;stroke:#000000;stroke-width:0.264583;stroke-linecap:butt;stroke-linejoin:miter;stroke-miterlimit:4;stroke-dasharray:2.11666, 0.529166, 0.264583, 0.529166;stroke-dashoffset:0;stroke-opacity:1;marker-end:url(#marker2103)"
       d="M 114.05974,42.66757 H 43.679864"
       id="path22449" />
    <g
       transform="matrix(0.352778,0,0,0.352778,43.063235,39.050078)"
       ns1:version="1.8.1"
       ns1:texconverter="pdflatex"
       ns1:pdfconverter="inkscape"
       ns1:text="$y$"
       ns1:preamble="C:\Users\MrMai\AppData\Roaming\inkscape\extensions\textext\default_packages.tex"
       ns1:scale="1.0"
       ns1:alignment="middle center"
       ns1:stroke-to-path="0"
       ns1:jacobian_sqrt="0.352778"
       id="g22887">
      <defs
         id="id-54c7666c-2210-4cb2-9300-bc1993665e2d">
        <g
           id="id-edb0e056-d4fb-4b26-a5ad-901f11fb9f84">
          <symbol
             overflow="visible"
             id="id-2a795b58-c946-47cf-a1d9-8764c080b234">
            <path
               style="stroke:none;stroke-width:0"
               d=""
               id="id-f63509a7-a0d1-4472-8c26-bc676ca32406" />
          </symbol>
          <symbol
             overflow="visible"
             id="id-73280e6f-47e1-409a-b395-424e9d684413">
            <path
               style="stroke:none;stroke-width:0"
               d="m 4.84375,-3.796875 c 0.046875,-0.140625 0.046875,-0.15625 0.046875,-0.234375 0,-0.171875 -0.140625,-0.265625 -0.296875,-0.265625 -0.09375,0 -0.25,0.0625 -0.34375,0.203125 -0.015625,0.0625 -0.109375,0.359375 -0.140625,0.546875 -0.078125,0.25 -0.140625,0.53125 -0.203125,0.796875 l -0.453125,1.796875 c -0.03125,0.140625 -0.46875,0.84375 -1.125,0.84375 -0.5,0 -0.609375,-0.4375 -0.609375,-0.8125 C 1.71875,-1.375 1.890625,-2 2.21875,-2.875 2.375,-3.28125 2.421875,-3.390625 2.421875,-3.59375 c 0,-0.4375 -0.3125,-0.8125 -0.8125,-0.8125 -0.953125,0 -1.3125,1.453125 -1.3125,1.53125 0,0.109375 0.09375,0.109375 0.109375,0.109375 0.109375,0 0.109375,-0.03125 0.15625,-0.1875 0.28125,-0.9375 0.671875,-1.234375 1.015625,-1.234375 0.078125,0 0.25,0 0.25,0.3125 0,0.25 -0.109375,0.515625 -0.171875,0.703125 -0.40625,1.0625 -0.578125,1.625 -0.578125,2.09375 0,0.890625 0.625,1.1875 1.21875,1.1875 0.390625,0 0.71875,-0.171875 1,-0.453125 -0.125,0.515625 -0.25,1.015625 -0.640625,1.546875 -0.265625,0.328125 -0.640625,0.625 -1.09375,0.625 -0.140625,0 -0.59375,-0.03125 -0.765625,-0.421875 0.15625,0 0.296875,0 0.421875,-0.125 C 1.328125,1.203125 1.421875,1.0625 1.421875,0.875 1.421875,0.5625 1.15625,0.53125 1.0625,0.53125 0.828125,0.53125 0.5,0.6875 0.5,1.171875 c 0,0.5 0.4375,0.875 1.0625,0.875 1.015625,0 2.046875,-0.90625 2.328125,-2.03125 z m 0,0"
               id="id-9b94fad7-0cf1-4edf-b70b-d53d275bae89" />
          </symbol>
        </g>
      </defs>
      <g
         id="id-b4a807aa-1ea8-4e6f-a7c5-634547955cd9"
         transform="translate(-149.009,-130.359)">
        <g
           style="fill:#000000;fill-opacity:1"
           id="id-51039d82-187a-4f87-a1b6-efc29a8beb4b">
          <g
             transform="translate(148.712,134.765)"
             id="g22883">
            <path
               style="stroke:none;stroke-width:0"
               d="m 4.84375,-3.796875 c 0.046875,-0.140625 0.046875,-0.15625 0.046875,-0.234375 0,-0.171875 -0.140625,-0.265625 -0.296875,-0.265625 -0.09375,0 -0.25,0.0625 -0.34375,0.203125 -0.015625,0.0625 -0.109375,0.359375 -0.140625,0.546875 -0.078125,0.25 -0.140625,0.53125 -0.203125,0.796875 l -0.453125,1.796875 c -0.03125,0.140625 -0.46875,0.84375 -1.125,0.84375 -0.5,0 -0.609375,-0.4375 -0.609375,-0.8125 C 1.71875,-1.375 1.890625,-2 2.21875,-2.875 2.375,-3.28125 2.421875,-3.390625 2.421875,-3.59375 c 0,-0.4375 -0.3125,-0.8125 -0.8125,-0.8125 -0.953125,0 -1.3125,1.453125 -1.3125,1.53125 0,0.109375 0.09375,0.109375 0.109375,0.109375 0.109375,0 0.109375,-0.03125 0.15625,-0.1875 0.28125,-0.9375 0.671875,-1.234375 1.015625,-1.234375 0.078125,0 0.25,0 0.25,0.3125 0,0.25 -0.109375,0.515625 -0.171875,0.703125 -0.40625,1.0625 -0.578125,1.625 -0.578125,2.09375 0,0.890625 0.625,1.1875 1.21875,1.1875 0.390625,0 0.71875,-0.171875 1,-0.453125 -0.125,0.515625 -0.25,1.015625 -0.640625,1.546875 -0.265625,0.328125 -0.640625,0.625 -1.09375,0.625 -0.140625,0 -0.59375,-0.03125 -0.765625,-0.421875 0.15625,0 0.296875,0 0.421875,-0.125 C 1.328125,1.203125 1.421875,1.0625 1.421875,0.875 1.421875,0.5625 1.15625,0.53125 1.0625,0.53125 0.828125,0.53125 0.5,0.6875 0.5,1.171875 c 0,0.5 0.4375,0.875 1.0625,0.875 1.015625,0 2.046875,-0.90625 2.328125,-2.03125 z m 0,0"
               id="id-c7fb6823-a4b3-475f-9195-b230e52f5176" />
          </g>
        </g>
      </g>
    </g>
    <ellipse
       style="fill:#00ff00;stroke:#00ff00;stroke-width:0.7;stroke-miterlimit:4;stroke-dasharray:none"
       id="ellipse1153"
       cx="-78.869858"
       cy="60.778255"
       rx="1.9587886"
       ry="1.8717418"
       transform="scale(-1,1)" />
    <path
       id="path3891"
       style="fill:none;stroke:#0000ff;stroke-width:0.5;stroke-miterlimit:4;stroke-dasharray:none;marker-end:url(#marker3351)"
       d="m 81.628309,27.69561 c 0.714523,0.71311 1.156965,1.70137 1.156965,2.79351 0,2.17391 -1.752998,3.93622 -3.915431,3.93622 -2.162434,0 -3.915433,-1.76231 -3.915433,-3.93622 0,-2.17391 1.752999,-3.93622 3.915433,-3.93622 1.076057,0 0.658209,0 1.978108,0"
       sodipodi:nodetypes="cssssc" />
    <ellipse
       style="fill:#0000ff;stroke:#0000ff;stroke-width:0.7;stroke-miterlimit:4;stroke-dasharray:none"
       id="ellipse3893"
       cx="-30.374743"
       cy="78.869843"
       rx="1.9587886"
       ry="1.8717418"
       transform="rotate(-90)" />
    <path
       style="fill:none;stroke:#00ff00;stroke-width:0.264582;stroke-linecap:butt;stroke-linejoin:miter;stroke-miterlimit:4;stroke-dasharray:1.05833, 2.11666;stroke-dashoffset:0;stroke-opacity:1"
       d="M 153.29828,60.778259 H 7.9881713"
       id="path1191"
       sodipodi:nodetypes="cc" />
    <g
       id="g13746"
       transform="translate(2.5644363,-5.0192896)">
      <path
         style="fill:none;stroke:#000000;stroke-width:0.264583px;stroke-linecap:butt;stroke-linejoin:miter;stroke-opacity:1"
         d="m 25.565387,47.686849 c 0,-7.14375 -15.9270427,-11.170361 -15.9270427,-18.342316 0,-7.171955 15.9270427,-6.528517 15.9270427,-19.096225"
         id="path4554"
         sodipodi:nodetypes="czc" />
      <path
         style="fill:none;stroke:#000000;stroke-width:0.264583;stroke-linecap:butt;stroke-linejoin:miter;stroke-miterlimit:4;stroke-dasharray:2.11666, 0.529166, 0.264583, 0.529166;stroke-dashoffset:0;stroke-opacity:1;marker-end:url(#Arrow1Mend)"
         d="M 25.565386,85.12539 V 10.248309"
         id="path4987" />
      <path
         style="fill:none;stroke:#000000;stroke-width:0.264583;stroke-linecap:butt;stroke-linejoin:miter;stroke-miterlimit:4;stroke-dasharray:2.11666, 0.529166, 0.264583, 0.529166;stroke-dashoffset:0;stroke-opacity:1;marker-end:url(#Arrow1Mend)"
         d="M 25.565385,47.686852 H 4.4724073"
         id="path4989" />
      <g
         id="g9214"
         transform="rotate(-90,41.211741,44.198567)">
        <circle
           style="fill:none;stroke:#000000;stroke-width:0.264583;stroke-miterlimit:4;stroke-dasharray:none;stroke-dashoffset:0"
           id="path5093"
           cx="56.075012"
           cy="20.588747"
           r="1.3677086" />
        <circle
           style="fill:#000000;stroke:#000000;stroke-width:0.264583;stroke-miterlimit:4;stroke-dasharray:none;stroke-dashoffset:0"
           id="path8973"
           cx="56.075012"
           cy="20.588747"
           r="0.3677085" />
      </g>
      <path
         id="path9110"
         style="fill:none;stroke:#000000;stroke-width:0.264583px;stroke-linecap:butt;stroke-linejoin:miter;stroke-opacity:1"
         d="m 18.56898,66.996283 -1.934232,-1.934231 m 1e-6,1.934231 1.934232,-1.934231 m 0,0 a 1.3677086,1.3677086 0 0 1 10e-7,1.934231 1.3677086,1.3677086 0 0 1 -1.934233,0 1.3677086,1.3677086 0 0 1 0,-1.934232 1.3677086,1.3677086 0 0 1 1.934232,10e-7 z" />
      <g
         transform="matrix(0.352778,0,0,0.352778,27.088413,10.479454)"
         ns1:version="1.8.1"
         ns1:texconverter="pdflatex"
         ns1:pdfconverter="inkscape"
         ns1:text="$x$"
         ns1:preamble="C:\Users\MrMai\AppData\Roaming\inkscape\extensions\textext\default_packages.tex"
         ns1:scale="1.0"
         ns1:alignment="middle center"
         ns1:stroke-to-path="0"
         ns1:jacobian_sqrt="0.352778"
         id="g23099">
        <defs
           id="defs23089">
          <g
             id="g23087">
            <symbol
               overflow="visible"
               id="symbol23081">
              <path
                 style="stroke:none;stroke-width:0"
                 d=""
                 id="path23079" />
            </symbol>
            <symbol
               overflow="visible"
               id="symbol23085">
              <path
                 style="stroke:none;stroke-width:0"
                 d="M 3.328125,-3.015625 C 3.390625,-3.265625 3.625,-4.1875 4.3125,-4.1875 c 0.046875,0 0.296875,0 0.5,0.125 C 4.53125,-4 4.34375,-3.765625 4.34375,-3.515625 c 0,0.15625 0.109375,0.34375 0.375,0.34375 0.21875,0 0.53125,-0.171875 0.53125,-0.578125 0,-0.515625 -0.578125,-0.65625 -0.921875,-0.65625 -0.578125,0 -0.921875,0.53125 -1.046875,0.75 -0.25,-0.65625 -0.78125,-0.75 -1.078125,-0.75 -1.03125,0 -1.609375,1.28125 -1.609375,1.53125 0,0.109375 0.109375,0.109375 0.125,0.109375 0.078125,0 0.109375,-0.03125 0.125,-0.109375 0.34375,-1.0625 1,-1.3125 1.34375,-1.3125 0.1875,0 0.53125,0.09375 0.53125,0.671875 0,0.3125 -0.171875,0.96875 -0.53125,2.375 -0.15625,0.609375 -0.515625,1.03125 -0.953125,1.03125 -0.0625,0 -0.28125,0 -0.5,-0.125 0.25,-0.0625 0.46875,-0.265625 0.46875,-0.546875 0,-0.265625 -0.21875,-0.34375 -0.359375,-0.34375 -0.3125,0 -0.546875,0.25 -0.546875,0.578125 0,0.453125 0.484375,0.65625 0.921875,0.65625 0.671875,0 1.03125,-0.703125 1.046875,-0.75 0.125,0.359375 0.484375,0.75 1.078125,0.75 1.03125,0 1.59375,-1.28125 1.59375,-1.53125 0,-0.109375 -0.078125,-0.109375 -0.109375,-0.109375 -0.09375,0 -0.109375,0.046875 -0.140625,0.109375 -0.328125,1.078125 -1,1.3125 -1.3125,1.3125 -0.390625,0 -0.546875,-0.3125 -0.546875,-0.65625 0,-0.21875 0.046875,-0.4375 0.15625,-0.875 z m 0,0"
                 id="path23083" />
            </symbol>
          </g>
        </defs>
        <g
           id="g23097"
           transform="translate(-149.009,-130.359)">
          <g
             style="fill:#000000;fill-opacity:1"
             id="g23095">
            <g
               transform="translate(148.712,134.765)"
               id="g23093">
              <path
                 style="stroke:none;stroke-width:0"
                 d="M 3.328125,-3.015625 C 3.390625,-3.265625 3.625,-4.1875 4.3125,-4.1875 c 0.046875,0 0.296875,0 0.5,0.125 C 4.53125,-4 4.34375,-3.765625 4.34375,-3.515625 c 0,0.15625 0.109375,0.34375 0.375,0.34375 0.21875,0 0.53125,-0.171875 0.53125,-0.578125 0,-0.515625 -0.578125,-0.65625 -0.921875,-0.65625 -0.578125,0 -0.921875,0.53125 -1.046875,0.75 -0.25,-0.65625 -0.78125,-0.75 -1.078125,-0.75 -1.03125,0 -1.609375,1.28125 -1.609375,1.53125 0,0.109375 0.109375,0.109375 0.125,0.109375 0.078125,0 0.109375,-0.03125 0.125,-0.109375 0.34375,-1.0625 1,-1.3125 1.34375,-1.3125 0.1875,0 0.53125,0.09375 0.53125,0.671875 0,0.3125 -0.171875,0.96875 -0.53125,2.375 -0.15625,0.609375 -0.515625,1.03125 -0.953125,1.03125 -0.0625,0 -0.28125,0 -0.5,-0.125 0.25,-0.0625 0.46875,-0.265625 0.46875,-0.546875 0,-0.265625 -0.21875,-0.34375 -0.359375,-0.34375 -0.3125,0 -0.546875,0.25 -0.546875,0.578125 0,0.453125 0.484375,0.65625 0.921875,0.65625 0.671875,0 1.03125,-0.703125 1.046875,-0.75 0.125,0.359375 0.484375,0.75 1.078125,0.75 1.03125,0 1.59375,-1.28125 1.59375,-1.53125 0,-0.109375 -0.078125,-0.109375 -0.109375,-0.109375 -0.09375,0 -0.109375,0.046875 -0.140625,0.109375 -0.328125,1.078125 -1,1.3125 -1.3125,1.3125 -0.390625,0 -0.546875,-0.3125 -0.546875,-0.65625 0,-0.21875 0.046875,-0.4375 0.15625,-0.875 z m 0,0"
                 id="path23091" />
            </g>
          </g>
        </g>
      </g>
      <path
         style="fill:none;stroke:#000000;stroke-width:0.264583px;stroke-linecap:butt;stroke-linejoin:miter;stroke-opacity:1"
         d="m 25.565386,47.686849 c 0,7.14375 -15.9270427,11.170361 -15.9270427,18.342316 0,7.171955 15.9270427,6.528517 15.9270427,19.096225"
         id="path23809"
         sodipodi:nodetypes="czc" />
      <g
         transform="matrix(0.352778,0,0,0.352778,4.6183273,42.273939)"
         ns1:version="1.8.1"
         ns1:texconverter="pdflatex"
         ns1:pdfconverter="inkscape"
         ns1:text="$|\\psi|^2$"
         ns1:preamble="C:\Users\MrMai\AppData\Roaming\inkscape\extensions\textext\default_packages.tex"
         ns1:scale="1.0"
         ns1:alignment="middle center"
         ns1:stroke-to-path="0"
         ns1:inkscapeversion="1.1.2"
         ns1:jacobian_sqrt="0.352778"
         id="g1459">
        <defs
           id="id-6fbd5ffa-0998-4eb0-9117-6af41812d630">
          <g
             id="id-6a364f99-079c-4c64-8b7a-a0cc5da2e4ad">
            <symbol
               overflow="visible"
               id="id-768f7678-20a0-4031-9671-9828bbde8043">
              <path
                 style="stroke:none;stroke-width:0"
                 d=""
                 id="id-a453005e-5f5a-4051-ab38-27252a54b00e" />
            </symbol>
            <symbol
               overflow="visible"
               id="id-bc390849-ea2a-4a02-9fff-8f6986362e78">
              <path
                 style="stroke:none;stroke-width:0"
                 d="m 1.578125,-7.125 c 0,-0.171875 0,-0.359375 -0.1875,-0.359375 -0.203125,0 -0.203125,0.1875 -0.203125,0.359375 v 9.265625 c 0,0.171875 0,0.359375 0.203125,0.359375 0.1875,0 0.1875,-0.1875 0.1875,-0.359375 z m 0,0"
                 id="id-178a1d05-69ca-4528-ba02-3e27213ab8e2" />
            </symbol>
            <symbol
               overflow="visible"
               id="id-0bf49733-5561-4b9b-b93f-02527a00830d">
              <path
                 style="stroke:none;stroke-width:0"
                 d=""
                 id="id-bf80b47b-f1e4-4ea4-89ec-f4dbcea1cd0e" />
            </symbol>
            <symbol
               overflow="visible"
               id="id-1734be67-8a23-4f72-8170-cae992282f98">
              <path
                 style="stroke:none;stroke-width:0"
                 d="m 4.8125,-6.65625 c 0,-0.046875 0.015625,-0.109375 0.015625,-0.15625 0,-0.09375 -0.0625,-0.109375 -0.109375,-0.109375 -0.109375,0 -0.109375,0.03125 -0.15625,0.203125 L 2.90625,-0.125 c -0.75,-0.09375 -1.125,-0.46875 -1.125,-1.125 0,-0.203125 0,-0.453125 0.53125,-1.84375 0.046875,-0.125 0.109375,-0.296875 0.109375,-0.5 0,-0.4375 -0.3125,-0.8125 -0.8125,-0.8125 -0.953125,0 -1.3125,1.453125 -1.3125,1.53125 0,0.109375 0.09375,0.109375 0.109375,0.109375 0.109375,0 0.109375,-0.03125 0.15625,-0.1875 0.28125,-0.9375 0.671875,-1.234375 1.015625,-1.234375 0.078125,0 0.25,0 0.25,0.3125 0,0.265625 -0.109375,0.515625 -0.234375,0.859375 C 1.109375,-1.75 1.109375,-1.5 1.109375,-1.328125 1.109375,-0.375 1.890625,0.03125 2.84375,0.09375 2.765625,0.453125 2.765625,0.46875 2.625,1 2.609375,1.109375 2.40625,1.90625 2.40625,1.9375 c 0,0.015625 0,0.109375 0.109375,0.109375 0.03125,0 0.078125,0 0.09375,-0.046875 0.03125,-0.015625 0.09375,-0.265625 0.125,-0.40625 l 0.375,-1.484375 c 0.375,0 1.25,0 2.1875,-1.0625 0.40625,-0.46875 0.609375,-0.90625 0.71875,-1.203125 0.09375,-0.25 0.3125,-1.109375 0.3125,-1.546875 0,-0.5625 -0.265625,-0.703125 -0.4375,-0.703125 -0.25,0 -0.5,0.265625 -0.5,0.484375 0,0.125 0.0625,0.1875 0.15625,0.265625 0.109375,0.109375 0.359375,0.359375 0.359375,0.84375 0,0.640625 -0.515625,1.453125 -0.875,1.8125 -0.875,0.890625 -1.515625,0.890625 -1.875,0.890625 z m 0,0"
                 id="id-c977abce-ce0d-42b7-ad0d-e60259e59b4d" />
            </symbol>
            <symbol
               overflow="visible"
               id="id-54af625e-3959-4c53-9f3a-8be2fbd737a1">
              <path
                 style="stroke:none;stroke-width:0"
                 d=""
                 id="id-54d6e80d-aebd-4446-b2a8-065d3572cdbd" />
            </symbol>
            <symbol
               overflow="visible"
               id="id-85b9a028-cd12-42a4-8439-15237d0b0e22">
              <path
                 style="stroke:none;stroke-width:0"
                 d="M 3.515625,-1.265625 H 3.28125 c -0.015625,0.15625 -0.09375,0.5625 -0.1875,0.625 C 3.046875,-0.59375 2.515625,-0.59375 2.40625,-0.59375 H 1.125 c 0.734375,-0.640625 0.984375,-0.84375 1.390625,-1.171875 0.515625,-0.40625 1,-0.84375 1,-1.5 0,-0.84375 -0.734375,-1.359375 -1.625,-1.359375 -0.859375,0 -1.453125,0.609375 -1.453125,1.25 0,0.34375 0.296875,0.390625 0.375,0.390625 0.15625,0 0.359375,-0.125 0.359375,-0.375 0,-0.125 -0.046875,-0.375 -0.40625,-0.375 C 0.984375,-4.21875 1.453125,-4.375 1.78125,-4.375 c 0.703125,0 1.0625,0.546875 1.0625,1.109375 0,0.609375 -0.4375,1.078125 -0.65625,1.328125 L 0.515625,-0.265625 C 0.4375,-0.203125 0.4375,-0.1875 0.4375,0 h 2.875 z m 0,0"
                 id="id-eab9aba6-1e45-46b0-8321-8b3da76980d2" />
            </symbol>
          </g>
        </defs>
        <g
           id="id-3bbe451f-3705-430b-94a5-9663d35797d3"
           transform="translate(-149.9,-126.524)">
          <g
             style="fill:#000000;fill-opacity:1"
             id="id-bd1f4565-d134-4d4a-b406-944a7eb62e36">
            <g
               transform="translate(148.712,134.765)"
               id="g1443">
              <path
                 style="stroke:none;stroke-width:0"
                 d="m 1.578125,-7.125 c 0,-0.171875 0,-0.359375 -0.1875,-0.359375 -0.203125,0 -0.203125,0.1875 -0.203125,0.359375 v 9.265625 c 0,0.171875 0,0.359375 0.203125,0.359375 0.1875,0 0.1875,-0.1875 0.1875,-0.359375 z m 0,0"
                 id="id-09020866-be7c-4797-a49f-49e703f3ca01" />
            </g>
          </g>
          <g
             style="fill:#000000;fill-opacity:1"
             id="id-5e58109a-c8d9-442b-8d91-9ef027bac965">
            <g
               transform="translate(151.48,134.765)"
               id="g1447">
              <path
                 style="stroke:none;stroke-width:0"
                 d="m 4.8125,-6.65625 c 0,-0.046875 0.015625,-0.109375 0.015625,-0.15625 0,-0.09375 -0.0625,-0.109375 -0.109375,-0.109375 -0.109375,0 -0.109375,0.03125 -0.15625,0.203125 L 2.90625,-0.125 c -0.75,-0.09375 -1.125,-0.46875 -1.125,-1.125 0,-0.203125 0,-0.453125 0.53125,-1.84375 0.046875,-0.125 0.109375,-0.296875 0.109375,-0.5 0,-0.4375 -0.3125,-0.8125 -0.8125,-0.8125 -0.953125,0 -1.3125,1.453125 -1.3125,1.53125 0,0.109375 0.09375,0.109375 0.109375,0.109375 0.109375,0 0.109375,-0.03125 0.15625,-0.1875 0.28125,-0.9375 0.671875,-1.234375 1.015625,-1.234375 0.078125,0 0.25,0 0.25,0.3125 0,0.265625 -0.109375,0.515625 -0.234375,0.859375 C 1.109375,-1.75 1.109375,-1.5 1.109375,-1.328125 1.109375,-0.375 1.890625,0.03125 2.84375,0.09375 2.765625,0.453125 2.765625,0.46875 2.625,1 2.609375,1.109375 2.40625,1.90625 2.40625,1.9375 c 0,0.015625 0,0.109375 0.109375,0.109375 0.03125,0 0.078125,0 0.09375,-0.046875 0.03125,-0.015625 0.09375,-0.265625 0.125,-0.40625 l 0.375,-1.484375 c 0.375,0 1.25,0 2.1875,-1.0625 0.40625,-0.46875 0.609375,-0.90625 0.71875,-1.203125 0.09375,-0.25 0.3125,-1.109375 0.3125,-1.546875 0,-0.5625 -0.265625,-0.703125 -0.4375,-0.703125 -0.25,0 -0.5,0.265625 -0.5,0.484375 0,0.125 0.0625,0.1875 0.15625,0.265625 0.109375,0.109375 0.359375,0.359375 0.359375,0.84375 0,0.640625 -0.515625,1.453125 -0.875,1.8125 -0.875,0.890625 -1.515625,0.890625 -1.875,0.890625 z m 0,0"
                 id="id-f575a0dd-aa94-463c-be5b-14497f86c033" />
            </g>
          </g>
          <g
             style="fill:#000000;fill-opacity:1"
             id="id-b9b8f753-30e4-4613-8d81-ed26e50726f4">
            <g
               transform="translate(158.327,134.765)"
               id="g1451">
              <path
                 style="stroke:none;stroke-width:0"
                 d="m 1.578125,-7.125 c 0,-0.171875 0,-0.359375 -0.1875,-0.359375 -0.203125,0 -0.203125,0.1875 -0.203125,0.359375 v 9.265625 c 0,0.171875 0,0.359375 0.203125,0.359375 0.1875,0 0.1875,-0.1875 0.1875,-0.359375 z m 0,0"
                 id="id-a62054fc-892f-4601-a3d5-fa1319ca6c3e" />
            </g>
          </g>
          <g
             style="fill:#000000;fill-opacity:1"
             id="id-ac89de56-4e06-46b6-a823-69d2ac9f3809">
            <g
               transform="translate(161.094,131.149)"
               id="g1455">
              <path
                 style="stroke:none;stroke-width:0"
                 d="M 3.515625,-1.265625 H 3.28125 c -0.015625,0.15625 -0.09375,0.5625 -0.1875,0.625 C 3.046875,-0.59375 2.515625,-0.59375 2.40625,-0.59375 H 1.125 c 0.734375,-0.640625 0.984375,-0.84375 1.390625,-1.171875 0.515625,-0.40625 1,-0.84375 1,-1.5 0,-0.84375 -0.734375,-1.359375 -1.625,-1.359375 -0.859375,0 -1.453125,0.609375 -1.453125,1.25 0,0.34375 0.296875,0.390625 0.375,0.390625 0.15625,0 0.359375,-0.125 0.359375,-0.375 0,-0.125 -0.046875,-0.375 -0.40625,-0.375 C 0.984375,-4.21875 1.453125,-4.375 1.78125,-4.375 c 0.703125,0 1.0625,0.546875 1.0625,1.109375 0,0.609375 -0.4375,1.078125 -0.65625,1.328125 L 0.515625,-0.265625 C 0.4375,-0.203125 0.4375,-0.1875 0.4375,0 h 2.875 z m 0,0"
                 id="id-3f87aa42-b50c-4858-af49-34d74302aac2" />
            </g>
          </g>
        </g>
      </g>
    </g>
    <g
       id="g13697"
       transform="translate(2.5644363,-5.0192896)">
      <path
         style="fill:none;stroke:#000000;stroke-width:0.264583;stroke-linecap:butt;stroke-linejoin:miter;stroke-miterlimit:4;stroke-dasharray:2.11666, 0.529166, 0.264583, 0.529166;stroke-dashoffset:0;stroke-opacity:1;marker-end:url(#Arrow1Mend)"
         d="M 139.27308,85.12539 V 10.248309"
         id="path7980" />
      <path
         style="fill:none;stroke:#000000;stroke-width:0.264584;stroke-linecap:butt;stroke-linejoin:miter;stroke-miterlimit:4;stroke-dasharray:2.11666, 0.529166, 0.264584, 0.529166;stroke-dashoffset:0;stroke-opacity:1;marker-end:url(#Arrow1Mend)"
         d="M 150.73384,47.686852 H 119.44781"
         id="path7982"
         sodipodi:nodetypes="cc" />
      <path
         style="fill:none;stroke:#000000;stroke-width:0.264583px;stroke-linecap:butt;stroke-linejoin:miter;stroke-opacity:1"
         d="M 139.27308,47.686852 C 133.28624,41.60647 122.8687,41.607736 122.8687,35.394033 c 0,-3.914165 10.18176,-5.021842 16.40438,-5.817878 4.21994,-0.53984 7.35588,-3.139314 7.35588,-6.517392 0,-3.51221 -5.48714,-6.142037 -5.90903,-10.16617"
         id="path10845"
         sodipodi:nodetypes="csssc" />
      <g
         transform="matrix(0.352778,0,0,0.352778,119.16,44.0028)"
         ns1:version="1.8.1"
         ns1:texconverter="pdflatex"
         ns1:pdfconverter="inkscape"
         ns1:text="$\\Gamma_\\mathrm{m}$"
         ns1:preamble="C:\Users\MrMai\AppData\Roaming\inkscape\extensions\textext\default_packages.tex"
         ns1:scale="1.0"
         ns1:alignment="middle center"
         ns1:stroke-to-path="0"
         ns1:inkscapeversion="1.1.2"
         ns1:jacobian_sqrt="0.352778"
         id="g11536">
        <defs
           id="id-fce49c66-86fa-4f2b-9fec-70072abcf2db">
          <g
             id="id-96955fb8-e14b-4cb3-8254-c79be686775b">
            <symbol
               overflow="visible"
               id="id-65521dc2-16fd-49d5-826e-3110734c24c7">
              <path
                 style="stroke:none"
                 d=""
                 id="id-853ac96c-11eb-42e1-85ce-1da3f4af8e5f" />
            </symbol>
            <symbol
               overflow="visible"
               id="id-8bc42e05-b13a-4b1b-aa68-46b920f68739">
              <path
                 style="stroke:none"
                 d="m 5.515625,-6.78125 h -5.1875 v 0.3125 H 0.5625 c 0.765625,0 0.796875,0.109375 0.796875,0.46875 v 5.21875 c 0,0.359375 -0.03125,0.46875 -0.796875,0.46875 H 0.328125 V 0 c 0.34375,-0.03125 1.125,-0.03125 1.515625,-0.03125 0.40625,0 1.3125,0 1.671875,0.03125 V -0.3125 H 3.1875 C 2.25,-0.3125 2.25,-0.4375 2.25,-0.78125 v -5.296875 c 0,-0.328125 0.015625,-0.390625 0.484375,-0.390625 h 1.03125 c 1.421875,0 1.625,0.59375 1.78125,1.9375 h 0.25 z m 0,0"
                 id="id-d3b676ca-359b-4e09-9ebb-f1e615f56ab5" />
            </symbol>
            <symbol
               overflow="visible"
               id="id-3bd7bda0-22d3-40d1-a13e-a292f09c6289">
              <path
                 style="stroke:none"
                 d=""
                 id="id-ccc48bb2-915f-4d50-80b0-51235b229914" />
            </symbol>
            <symbol
               overflow="visible"
               id="id-0a650c7f-e9d2-4153-b602-9b8c8ced4534">
              <path
                 style="stroke:none"
                 d="m 5.734375,-2.109375 c 0,-0.609375 -0.3125,-0.96875 -1.046875,-0.96875 -0.5625,0 -0.9375,0.296875 -1.125,0.65625 -0.140625,-0.5 -0.515625,-0.65625 -1.015625,-0.65625 -0.578125,0 -0.9375,0.3125 -1.140625,0.6875 v -0.6875 L 0.375,-3 v 0.25 c 0.46875,0 0.53125,0.046875 0.53125,0.390625 v 1.8125 C 0.90625,-0.25 0.828125,-0.25 0.375,-0.25 V 0 C 0.390625,0 0.875,-0.03125 1.171875,-0.03125 1.421875,-0.03125 1.90625,0 1.96875,0 v -0.25 c -0.453125,0 -0.515625,0 -0.515625,-0.296875 V -1.8125 c 0,-0.71875 0.578125,-1.0625 1.03125,-1.0625 0.484375,0 0.546875,0.375 0.546875,0.734375 v 1.59375 C 3.03125,-0.25 2.96875,-0.25 2.515625,-0.25 V 0 C 2.53125,0 3.015625,-0.03125 3.3125,-0.03125 3.5625,-0.03125 4.046875,0 4.109375,0 v -0.25 c -0.453125,0 -0.515625,0 -0.515625,-0.296875 V -1.8125 c 0,-0.71875 0.578125,-1.0625 1.03125,-1.0625 0.484375,0 0.546875,0.375 0.546875,0.734375 v 1.59375 C 5.171875,-0.25 5.109375,-0.25 4.65625,-0.25 V 0 c 0.015625,0 0.5,-0.03125 0.796875,-0.03125 C 5.703125,-0.03125 6.1875,0 6.25,0 v -0.25 c -0.453125,0 -0.515625,0 -0.515625,-0.296875 z m 0,0"
                 id="id-cca0d39e-dfc5-4f29-8673-78ee12372805" />
            </symbol>
          </g>
        </defs>
        <g
           id="id-86da79be-6b57-426c-ba67-3088e3a337fd"
           transform="translate(-149.04,-127.984)">
          <g
             style="fill:#000000;fill-opacity:1"
             id="id-7e7f1518-1ccb-40a8-aba0-d27b4c33594f">
            <g
               transform="translate(148.712,134.765)"
               id="g12051">
              <path
                 style="stroke:none"
                 d="m 5.515625,-6.78125 h -5.1875 v 0.3125 H 0.5625 c 0.765625,0 0.796875,0.109375 0.796875,0.46875 v 5.21875 c 0,0.359375 -0.03125,0.46875 -0.796875,0.46875 H 0.328125 V 0 c 0.34375,-0.03125 1.125,-0.03125 1.515625,-0.03125 0.40625,0 1.3125,0 1.671875,0.03125 V -0.3125 H 3.1875 C 2.25,-0.3125 2.25,-0.4375 2.25,-0.78125 v -5.296875 c 0,-0.328125 0.015625,-0.390625 0.484375,-0.390625 h 1.03125 c 1.421875,0 1.625,0.59375 1.78125,1.9375 h 0.25 z m 0,0"
                 id="id-103b12f5-b414-4eeb-af4e-fadfbe81f1d2" />
            </g>
          </g>
          <g
             style="fill:#000000;fill-opacity:1"
             id="id-bb2d946c-e187-4dd2-b19e-f5fc0f5f4f98">
            <g
               transform="translate(154.939,136.259)"
               id="g12055">
              <path
                 style="stroke:none"
                 d="m 5.734375,-2.109375 c 0,-0.609375 -0.3125,-0.96875 -1.046875,-0.96875 -0.5625,0 -0.9375,0.296875 -1.125,0.65625 -0.140625,-0.5 -0.515625,-0.65625 -1.015625,-0.65625 -0.578125,0 -0.9375,0.3125 -1.140625,0.6875 v -0.6875 L 0.375,-3 v 0.25 c 0.46875,0 0.53125,0.046875 0.53125,0.390625 v 1.8125 C 0.90625,-0.25 0.828125,-0.25 0.375,-0.25 V 0 C 0.390625,0 0.875,-0.03125 1.171875,-0.03125 1.421875,-0.03125 1.90625,0 1.96875,0 v -0.25 c -0.453125,0 -0.515625,0 -0.515625,-0.296875 V -1.8125 c 0,-0.71875 0.578125,-1.0625 1.03125,-1.0625 0.484375,0 0.546875,0.375 0.546875,0.734375 v 1.59375 C 3.03125,-0.25 2.96875,-0.25 2.515625,-0.25 V 0 C 2.53125,0 3.015625,-0.03125 3.3125,-0.03125 3.5625,-0.03125 4.046875,0 4.109375,0 v -0.25 c -0.453125,0 -0.515625,0 -0.515625,-0.296875 V -1.8125 c 0,-0.71875 0.578125,-1.0625 1.03125,-1.0625 0.484375,0 0.546875,0.375 0.546875,0.734375 v 1.59375 C 5.171875,-0.25 5.109375,-0.25 4.65625,-0.25 V 0 c 0.015625,0 0.5,-0.03125 0.796875,-0.03125 C 5.703125,-0.03125 6.1875,0 6.25,0 v -0.25 c -0.453125,0 -0.515625,0 -0.515625,-0.296875 z m 0,0"
                 id="id-4ae816f4-043d-4819-8b94-a87f46619142" />
            </g>
          </g>
        </g>
      </g>
      <g
         transform="matrix(0.352778,0,0,0.352778,141.09891,9.9986917)"
         ns1:version="1.8.1"
         ns1:texconverter="pdflatex"
         ns1:pdfconverter="inkscape"
         ns1:text="$x_\\mathrm{p}$"
         ns1:preamble="C:\Users\MrMai\AppData\Roaming\inkscape\extensions\textext\default_packages.tex"
         ns1:scale="1.0"
         ns1:alignment="middle center"
         ns1:stroke-to-path="0"
         ns1:inkscapeversion="1.1.2"
         ns1:jacobian_sqrt="0.352778"
         id="g13064">
        <defs
           id="id-01b2c8c4-482d-48f1-968c-7636d3ece0d3">
          <g
             id="id-b13ca3b7-3e9a-4c50-8595-5d562cdf54b7">
            <symbol
               overflow="visible"
               id="id-4b98b901-001a-4a8b-8c75-4d1be5f3944a">
              <path
                 style="stroke:none;stroke-width:0"
                 d=""
                 id="id-20484b1f-b6f4-487e-a8f6-d5dceab1b630" />
            </symbol>
            <symbol
               overflow="visible"
               id="id-d586ae1f-0efa-450c-8003-6c1e9f9078f7">
              <path
                 style="stroke:none;stroke-width:0"
                 d="M 3.328125,-3.015625 C 3.390625,-3.265625 3.625,-4.1875 4.3125,-4.1875 c 0.046875,0 0.296875,0 0.5,0.125 C 4.53125,-4 4.34375,-3.765625 4.34375,-3.515625 c 0,0.15625 0.109375,0.34375 0.375,0.34375 0.21875,0 0.53125,-0.171875 0.53125,-0.578125 0,-0.515625 -0.578125,-0.65625 -0.921875,-0.65625 -0.578125,0 -0.921875,0.53125 -1.046875,0.75 -0.25,-0.65625 -0.78125,-0.75 -1.078125,-0.75 -1.03125,0 -1.609375,1.28125 -1.609375,1.53125 0,0.109375 0.109375,0.109375 0.125,0.109375 0.078125,0 0.109375,-0.03125 0.125,-0.109375 0.34375,-1.0625 1,-1.3125 1.34375,-1.3125 0.1875,0 0.53125,0.09375 0.53125,0.671875 0,0.3125 -0.171875,0.96875 -0.53125,2.375 -0.15625,0.609375 -0.515625,1.03125 -0.953125,1.03125 -0.0625,0 -0.28125,0 -0.5,-0.125 0.25,-0.0625 0.46875,-0.265625 0.46875,-0.546875 0,-0.265625 -0.21875,-0.34375 -0.359375,-0.34375 -0.3125,0 -0.546875,0.25 -0.546875,0.578125 0,0.453125 0.484375,0.65625 0.921875,0.65625 0.671875,0 1.03125,-0.703125 1.046875,-0.75 0.125,0.359375 0.484375,0.75 1.078125,0.75 1.03125,0 1.59375,-1.28125 1.59375,-1.53125 0,-0.109375 -0.078125,-0.109375 -0.109375,-0.109375 -0.09375,0 -0.109375,0.046875 -0.140625,0.109375 -0.328125,1.078125 -1,1.3125 -1.3125,1.3125 -0.390625,0 -0.546875,-0.3125 -0.546875,-0.65625 0,-0.21875 0.046875,-0.4375 0.15625,-0.875 z m 0,0"
                 id="id-4c3f2db8-576d-4581-b6f5-0931cfbc9d53" />
            </symbol>
            <symbol
               overflow="visible"
               id="id-e492279b-1b0d-4982-b2a0-c82287aa58b0">
              <path
                 style="stroke:none;stroke-width:0"
                 d=""
                 id="id-be473dee-7b1e-4d44-85e8-e0bcb917c8ca" />
            </symbol>
            <symbol
               overflow="visible"
               id="id-f8f3373e-2ecc-4f44-a62d-4d9c8323f054">
              <path
                 style="stroke:none;stroke-width:0"
                 d="m 1.9375,1.09375 c -0.453125,0 -0.515625,0 -0.515625,-0.296875 v -1.125 C 1.453125,-0.296875 1.78125,0.0625 2.359375,0.0625 3.28125,0.0625 4.0625,-0.625 4.0625,-1.5 c 0,-0.859375 -0.703125,-1.578125 -1.59375,-1.578125 -0.390625,0 -0.796875,0.15625 -1.078125,0.4375 v -0.4375 L 0.34375,-3 v 0.25 c 0.484375,0 0.515625,0.046875 0.515625,0.328125 v 3.21875 c 0,0.296875 -0.0625,0.296875 -0.515625,0.296875 v 0.265625 c 0.015625,0 0.5,-0.03125 0.796875,-0.03125 0.25,0 0.734375,0.015625 0.796875,0.03125 z M 1.421875,-2.328125 C 1.625,-2.671875 2.03125,-2.84375 2.390625,-2.84375 c 0.59375,0 1.046875,0.609375 1.046875,1.34375 0,0.796875 -0.53125,1.375 -1.109375,1.375 -0.625,0 -0.890625,-0.53125 -0.90625,-0.578125 z m 0,0"
                 id="id-44fb3efc-a67e-4c93-82bf-2428408551d6" />
            </symbol>
          </g>
        </defs>
        <g
           id="id-fecc9c03-3f50-49d5-afd6-2966ec4995ea"
           transform="translate(-149.009,-130.359)">
          <g
             style="fill:#000000;fill-opacity:1"
             id="id-c2854c76-c5d1-4f61-b1a3-9e8098ad27b3">
            <g
               transform="translate(148.712,134.765)"
               id="g13056">
              <path
                 style="stroke:none;stroke-width:0"
                 d="M 3.328125,-3.015625 C 3.390625,-3.265625 3.625,-4.1875 4.3125,-4.1875 c 0.046875,0 0.296875,0 0.5,0.125 C 4.53125,-4 4.34375,-3.765625 4.34375,-3.515625 c 0,0.15625 0.109375,0.34375 0.375,0.34375 0.21875,0 0.53125,-0.171875 0.53125,-0.578125 0,-0.515625 -0.578125,-0.65625 -0.921875,-0.65625 -0.578125,0 -0.921875,0.53125 -1.046875,0.75 -0.25,-0.65625 -0.78125,-0.75 -1.078125,-0.75 -1.03125,0 -1.609375,1.28125 -1.609375,1.53125 0,0.109375 0.109375,0.109375 0.125,0.109375 0.078125,0 0.109375,-0.03125 0.125,-0.109375 0.34375,-1.0625 1,-1.3125 1.34375,-1.3125 0.1875,0 0.53125,0.09375 0.53125,0.671875 0,0.3125 -0.171875,0.96875 -0.53125,2.375 -0.15625,0.609375 -0.515625,1.03125 -0.953125,1.03125 -0.0625,0 -0.28125,0 -0.5,-0.125 0.25,-0.0625 0.46875,-0.265625 0.46875,-0.546875 0,-0.265625 -0.21875,-0.34375 -0.359375,-0.34375 -0.3125,0 -0.546875,0.25 -0.546875,0.578125 0,0.453125 0.484375,0.65625 0.921875,0.65625 0.671875,0 1.03125,-0.703125 1.046875,-0.75 0.125,0.359375 0.484375,0.75 1.078125,0.75 1.03125,0 1.59375,-1.28125 1.59375,-1.53125 0,-0.109375 -0.078125,-0.109375 -0.109375,-0.109375 -0.09375,0 -0.109375,0.046875 -0.140625,0.109375 -0.328125,1.078125 -1,1.3125 -1.3125,1.3125 -0.390625,0 -0.546875,-0.3125 -0.546875,-0.65625 0,-0.21875 0.046875,-0.4375 0.15625,-0.875 z m 0,0"
                 id="id-1abf2acb-6f9c-4de9-b7a3-af032f7d107f" />
            </g>
          </g>
          <g
             style="fill:#000000;fill-opacity:1"
             id="id-962e2865-d29b-40dd-9a34-eaac51932692">
            <g
               transform="translate(154.406,136.259)"
               id="g13060">
              <path
                 style="stroke:none;stroke-width:0"
                 d="m 1.9375,1.09375 c -0.453125,0 -0.515625,0 -0.515625,-0.296875 v -1.125 C 1.453125,-0.296875 1.78125,0.0625 2.359375,0.0625 3.28125,0.0625 4.0625,-0.625 4.0625,-1.5 c 0,-0.859375 -0.703125,-1.578125 -1.59375,-1.578125 -0.390625,0 -0.796875,0.15625 -1.078125,0.4375 v -0.4375 L 0.34375,-3 v 0.25 c 0.484375,0 0.515625,0.046875 0.515625,0.328125 v 3.21875 c 0,0.296875 -0.0625,0.296875 -0.515625,0.296875 v 0.265625 c 0.015625,0 0.5,-0.03125 0.796875,-0.03125 0.25,0 0.734375,0.015625 0.796875,0.03125 z M 1.421875,-2.328125 C 1.625,-2.671875 2.03125,-2.84375 2.390625,-2.84375 c 0.59375,0 1.046875,0.609375 1.046875,1.34375 0,0.796875 -0.53125,1.375 -1.109375,1.375 -0.625,0 -0.890625,-0.53125 -0.90625,-0.578125 z m 0,0"
                 id="id-8c342e67-918f-42c6-b4af-46b11d7a7236" />
            </g>
          </g>
        </g>
      </g>
      <path
         style="fill:none;stroke:#000000;stroke-width:0.264583px;stroke-linecap:butt;stroke-linejoin:miter;stroke-opacity:1"
         d="m 139.27308,47.686852 c -5.98684,6.080382 -16.40438,6.079116 -16.40438,12.292819 0,3.914165 10.18176,5.021842 16.40438,5.817878 4.21994,0.53984 7.35588,3.139314 7.35588,6.517392 0,3.51221 -5.48714,6.142037 -5.90903,10.16617"
         id="path13553"
         sodipodi:nodetypes="csssc" />
    </g>
    <text
       xml:space="preserve"
       style="font-size:4.23333px;line-height:1.25;font-family:'Latin Modern Roman';-inkscape-font-specification:'Latin Modern Roman, Bold';font-variant-ligatures:none;white-space:pre;stroke-width:0.264583;font-weight:bold;font-style:normal;font-stretch:normal;font-variant:normal;font-variant-caps:normal;font-variant-numeric:normal;font-variant-east-asian:normal;stroke-linecap:butt;stroke-linejoin:round"
       x="6.7468753"
       y="7.6729174"
       id="text15334"><tspan
         id="tspan15332"
         style="stroke-width:0.264583;font-weight:bold;-inkscape-font-specification:'Latin Modern Roman, Bold';font-family:'Latin Modern Roman';font-style:normal;font-stretch:normal;font-variant:normal;font-size:4.2333298px;font-variant-ligatures:none;font-variant-caps:normal;font-variant-numeric:normal;font-variant-east-asian:normal"
         x="6.7468753"
         y="7.6729174">a</tspan></text>
    <text
       xml:space="preserve"
       style="font-size:4.23333px;line-height:1.25;font-family:'Latin Modern Roman';-inkscape-font-specification:'Latin Modern Roman, Normal';font-variant-ligatures:none;stroke-width:0.264583"
       x="43.693459"
       y="8.1830339"
       id="text27796"><tspan
         sodipodi:role="line"
         id="tspan27794"
         style="font-weight:bold;stroke-width:0.264583"
         x="43.693459"
         y="8.1830339">b</tspan></text>
    <text
       xml:space="preserve"
       style="font-size:4.23333px;line-height:1.25;font-family:'Latin Modern Roman';-inkscape-font-specification:'Latin Modern Roman, Normal';font-variant-ligatures:none;stroke-width:0.264583"
       x="121.31323"
       y="7.6729174"
       id="text30506"><tspan
         sodipodi:role="line"
         id="tspan30504"
         style="font-weight:bold;stroke-width:0.264583"
         x="121.31323"
         y="7.6729174">c</tspan></text>
  </g>
</svg>
