<?xml version="1.0" encoding="UTF-8" standalone="no"?>
<!-- Created with Inkscape (http://www.inkscape.org/) -->

<svg
   width="160mm"
   height="297mm"
   viewBox="0 0 160 297"
   version="1.1"
   id="svg5"
   sodipodi:docname="xposdependenceintuition.svg"
   xmlns:inkscape="http://www.inkscape.org/namespaces/inkscape"
   xmlns:sodipodi="http://sodipodi.sourceforge.net/DTD/sodipodi-0.dtd"
   xmlns="http://www.w3.org/2000/svg"
   xmlns:svg="http://www.w3.org/2000/svg"
   xmlns:ns1="http://www.iki.fi/pav/software/textext/">
  <sodipodi:namedview
     id="namedview7"
     pagecolor="#ffffff"
     bordercolor="#eeeeee"
     borderopacity="1"
     inkscape:pageshadow="0"
     inkscape:pageopacity="0"
     inkscape:pagecheckerboard="0"
     inkscape:document-units="mm"
     showgrid="false"
     showguides="true"
     inkscape:guide-bbox="true"
     inkscape:snap-bbox="true"
     inkscape:snap-bbox-midpoints="true"
     inkscape:snap-intersection-paths="true"
     inkscape:object-paths="true"
     inkscape:snap-smooth-nodes="true"
     inkscape:snap-bbox-edge-midpoints="true"
     inkscape:snap-midpoints="true"
     inkscape:snap-object-midpoints="true"
     inkscape:zoom="2.8284271"
     inkscape:cx="216.55145"
     inkscape:cy="230.16326"
     inkscape:window-width="1920"
     inkscape:window-height="1129"
     inkscape:window-x="-4"
     inkscape:window-y="-1208"
     inkscape:window-maximized="1"
     inkscape:current-layer="layer1">
    <sodipodi:guide
       position="40,292.2375"
       orientation="-1,0"
       id="guide4434"
       inkscape:label=""
       inkscape:locked="false"
       inkscape:color="rgb(0,0,255)" />
    <sodipodi:guide
       position="120,258.37084"
       orientation="-1,0"
       id="guide4950"
       inkscape:label=""
       inkscape:locked="false"
       inkscape:color="rgb(0,0,255)" />
    <sodipodi:guide
       position="80,246.46459"
       orientation="-1,0"
       id="guide4952"
       inkscape:label=""
       inkscape:locked="false"
       inkscape:color="rgb(0,0,255)" />
    <sodipodi:guide
       position="7.2564287,232.31456"
       orientation="0,-1"
       id="guide22270" />
    <sodipodi:guide
       position="58.342316,232.31456"
       orientation="1,0"
       id="guide23529" />
  </sodipodi:namedview>
  <defs
     id="defs2">
    <marker
       style="overflow:visible;"
       id="marker2103"
       refX="0.0"
       refY="0.0"
       orient="auto"
       inkscape:stockid="Arrow1Mend"
       inkscape:isstock="true">
      <path
         transform="scale(0.4) rotate(180) translate(10,0)"
         style="fill-rule:evenodd;fill:context-stroke;stroke:context-stroke;stroke-width:1.0pt;"
         d="M 0.0,0.0 L 5.0,-5.0 L -12.5,0.0 L 5.0,5.0 L 0.0,0.0 z "
         id="path2101" />
    </marker>
    <marker
       style="overflow:visible;"
       id="Arrow1Mend"
       refX="0.0"
       refY="0.0"
       orient="auto"
       inkscape:stockid="Arrow1Mend"
       inkscape:isstock="true">
      <path
         transform="scale(0.4) rotate(180) translate(10,0)"
         style="fill-rule:evenodd;fill:context-stroke;stroke:context-stroke;stroke-width:1.0pt;"
         d="M 0.0,0.0 L 5.0,-5.0 L -12.5,0.0 L 5.0,5.0 L 0.0,0.0 z "
         id="path1495" />
    </marker>
    <marker
       style="overflow:visible"
       id="Arrow1Lend"
       refX="0"
       refY="0"
       orient="auto"
       inkscape:stockid="Arrow1Lend"
       inkscape:isstock="true">
      <path
         transform="matrix(-0.8,0,0,-0.8,-10,0)"
         style="fill:context-stroke;fill-rule:evenodd;stroke:context-stroke;stroke-width:1pt"
         d="M 0,0 5,-5 -12.5,0 5,5 Z"
         id="path1489" />
    </marker>
  </defs>
  <g
     inkscape:label="Vrstva 1"
     inkscape:groupmode="layer"
     id="layer1">
    <g
       id="g4723"
       transform="translate(-1.5673409,23.326073)">
      <ellipse
         style="fill:none;stroke:#000000;stroke-width:0.3;stroke-miterlimit:4;stroke-dasharray:none;marker-mid:url(#Arrow1Mend);marker-end:url(#Arrow1Mend)"
         id="ellipse1858"
         cx="42.130947"
         cy="41.359375"
         rx="24.497456"
         ry="24.356758" />
      <ellipse
         style="fill:none;stroke:#000000;stroke-width:0.3;stroke-miterlimit:4;stroke-dasharray:none;marker-mid:url(#Arrow1Mend);marker-end:url(#Arrow1Mend)"
         id="ellipse1860"
         cx="41.567341"
         cy="41.359375"
         rx="20.394032"
         ry="20.276899" />
      <ellipse
         style="fill:none;stroke:#000000;stroke-width:0.3;stroke-miterlimit:4;stroke-dasharray:none;marker-mid:url(#Arrow1Mend);marker-end:url(#Arrow1Mend)"
         id="ellipse1862"
         cx="41.567341"
         cy="41.359375"
         rx="18.342318"
         ry="18.236971" />
      <ellipse
         style="fill:none;stroke:#000000;stroke-width:0.3;stroke-miterlimit:4;stroke-dasharray:none;marker-mid:url(#Arrow1Mend);marker-end:url(#Arrow1Mend)"
         id="ellipse1864"
         cx="41.567341"
         cy="41.359375"
         rx="16.290604"
         ry="16.197041" />
      <ellipse
         style="fill:none;stroke:#000000;stroke-width:0.3;stroke-miterlimit:4;stroke-dasharray:none;marker-mid:url(#Arrow1Mend);marker-end:url(#Arrow1Mend)"
         id="ellipse1866"
         cx="41.567341"
         cy="41.359375"
         rx="12.187178"
         ry="12.117182" />
      <ellipse
         style="fill:none;stroke:#000000;stroke-width:0.3;stroke-miterlimit:4;stroke-dasharray:none;marker-mid:url(#Arrow1Mend);marker-end:url(#Arrow1Mend)"
         id="ellipse1868"
         cx="41.567341"
         cy="41.359375"
         rx="4.9135122"
         ry="4.8860493" />
      <ellipse
         style="fill:none;stroke:#000000;stroke-width:0.3;stroke-miterlimit:4;stroke-dasharray:none;marker-mid:url(#Arrow1Mend);marker-end:url(#Arrow1Mend)"
         id="ellipse1870"
         cx="42.284649"
         cy="41.359375"
         rx="32.699142"
         ry="32.506821" />
    </g>
    <g
       id="g4731"
       transform="translate(-0.67181812,24.158187)">
      <path
         id="path1894"
         style="fill:none;stroke:#0000ff;stroke-width:0.5;stroke-miterlimit:4;stroke-dasharray:none;marker-end:url(#marker2103)"
         d="m 55.643721,43.285719 c -0.713105,0.714523 -1.701363,1.156965 -2.793507,1.156965 -2.173914,0 -3.936219,-1.752998 -3.936219,-3.915431 0,-2.162434 1.762305,-3.915433 3.936219,-3.915433 2.173915,0 3.936221,1.752999 3.936221,3.915433 0,1.076057 0,0.658209 0,1.978108"
         sodipodi:nodetypes="cssssc" />
      <ellipse
         style="fill:#0000ff;stroke:#0000ff;stroke-width:0.7;stroke-miterlimit:4;stroke-dasharray:none"
         id="path3596"
         cx="52.964596"
         cy="40.527252"
         rx="1.9587886"
         ry="1.8717418" />
    </g>
    <path
       id="path3910"
       style="fill:none;stroke:#0000ff;stroke-width:0.5;stroke-miterlimit:4;stroke-dasharray:none;marker-end:url(#marker2103)"
       d="m -2.6716384,-20.274585 c 0.713105,0.714523 1.70136301,1.156965 2.79350701,1.156965 2.17391399,0 3.93621899,-1.752998 3.93621899,-3.915431 0,-2.162434 -1.762305,-3.915433 -3.93621899,-3.915433 -2.17391501,0 -3.93622101,1.752999 -3.93622101,3.915433 0,1.076057 0,0.658209 0,1.978108"
       sodipodi:nodetypes="cssssc" />
    <ellipse
       style="fill:#0000ff;stroke:#0000ff;stroke-width:0.7;stroke-miterlimit:4;stroke-dasharray:none"
       id="ellipse3912"
       cx="-0.0074933949"
       cy="-23.033052"
       rx="1.9587886"
       ry="1.8717418"
       transform="scale(-1,1)" />
    <g
       id="g4727"
       transform="translate(-78.291896,24.025898)">
      <path
         id="path3914"
         style="fill:none;stroke:#ff0000;stroke-width:0.5;stroke-miterlimit:4;stroke-dasharray:none;marker-end:url(#marker2103)"
         d="m 140.24085,43.418011 c 0.71311,0.714523 1.70137,1.156965 2.79351,1.156965 2.17391,0 3.93622,-1.752998 3.93622,-3.915431 0,-2.162434 -1.76231,-3.915433 -3.93622,-3.915433 -2.17391,0 -3.93622,1.752999 -3.93622,3.915433 0,1.076057 0,0.658209 0,1.978108"
         sodipodi:nodetypes="cssssc" />
      <ellipse
         style="fill:#ff0000;stroke:#ff0000;stroke-width:0.7;stroke-miterlimit:4;stroke-dasharray:none"
         id="ellipse3916"
         cx="-142.91998"
         cy="40.659542"
         rx="1.9587886"
         ry="1.8717418"
         transform="scale(-1,1)" />
    </g>
    <path
       style="fill:none;stroke:#000000;stroke-width:0.264583px;stroke-linecap:butt;stroke-linejoin:miter;stroke-opacity:1"
       d="m 40,25.057932 c 7.14375,0 11.170361,-15.9270425 18.342316,-15.9270425 7.171955,0 6.528517,15.9270425 19.096225,15.9270425"
       id="path4554"
       sodipodi:nodetypes="czc" />
    <path
       style="fill:none;stroke:#000000;stroke-width:0.264583;stroke-linecap:butt;stroke-linejoin:miter;stroke-miterlimit:4;stroke-dasharray:2.11666, 0.529166, 0.264583, 0.529166;stroke-dashoffset:0;stroke-opacity:1;marker-end:url(#Arrow1Mend)"
       d="M 2.5614589,25.057931 H 77.43854"
       id="path4987" />
    <path
       style="fill:none;stroke:#000000;stroke-width:0.264583;stroke-linecap:butt;stroke-linejoin:miter;stroke-miterlimit:4;stroke-dasharray:2.11666, 0.529166, 0.264583, 0.529166;stroke-dashoffset:0;stroke-opacity:1;marker-end:url(#Arrow1Mend)"
       d="M 39.999997,25.05793 V 3.9649493"
       id="path4989" />
    <g
       id="g9214"
       transform="translate(2.2765498,-3.4943363)">
      <circle
         style="fill:none;stroke:#000000;stroke-width:0.264583;stroke-miterlimit:4;stroke-dasharray:none;stroke-dashoffset:0"
         id="path5093"
         cx="56.075012"
         cy="20.588747"
         r="1.3677086" />
      <circle
         style="fill:#000000;stroke:#000000;stroke-width:0.264583;stroke-miterlimit:4;stroke-dasharray:none;stroke-dashoffset:0"
         id="path8973"
         cx="56.075012"
         cy="20.588747"
         r="0.3677085" />
    </g>
    <path
       id="path9110"
       style="fill:none;stroke:#000000;stroke-width:0.264583px;stroke-linecap:butt;stroke-linejoin:miter;stroke-opacity:1"
       d="m 22.983442,17.983985 1.934231,-1.934232 m -1.934231,1e-6 1.934231,1.934232 m 0,0 a 1.3677086,1.3677086 0 0 1 -1.934231,10e-7 1.3677086,1.3677086 0 0 1 0,-1.934233 1.3677086,1.3677086 0 0 1 1.934232,0 1.3677086,1.3677086 0 0 1 -1e-6,1.934232 z" />
    <path
       style="fill:none;stroke:#0000ff;stroke-width:0.264583;stroke-linecap:butt;stroke-linejoin:miter;stroke-miterlimit:4;stroke-dasharray:1.05833, 2.11666;stroke-dashoffset:0;stroke-opacity:1"
       d="M 52.292818,64.685439 V 5.2028638"
       id="path9249" />
    <text
       xml:space="preserve"
       style="font-size:4.23333px;line-height:1.25;font-family:'Latin Modern Math';-inkscape-font-specification:'Latin Modern Math, Normal';font-variant-ligatures:none;stroke-width:0.264583"
       x="5.238483"
       y="36.856468"
       id="text15218"><tspan
         sodipodi:role="line"
         id="tspan15216"
         style="stroke-width:0.264583"
         x="5.238483"
         y="36.856468">aii)</tspan></text>
    <path
       style="fill:none;stroke:#000000;stroke-width:0.264582;stroke-linecap:butt;stroke-linejoin:miter;stroke-miterlimit:4;stroke-dasharray:2.11666, 0.529169, 0.264582, 0.529169;stroke-dashoffset:0;stroke-opacity:1;marker-end:url(#Arrow1Mend)"
       d="M 3.0619678,64.68544 H 77.27455"
       id="path22305" />
    <path
       style="fill:none;stroke:#000000;stroke-width:0.264583;stroke-linecap:butt;stroke-linejoin:miter;stroke-miterlimit:4;stroke-dasharray:2.11666, 0.529166, 0.264583, 0.529166;stroke-dashoffset:0;stroke-opacity:1;marker-end:url(#marker2103)"
       d="M 39.999989,99.875422 V 29.495464"
       id="path22449" />
    <g
       transform="matrix(0.352778,0,0,0.352778,75.537343,66.213381)"
       ns1:version="1.8.1"
       ns1:texconverter="pdflatex"
       ns1:pdfconverter="inkscape"
       ns1:text="$x$"
       ns1:preamble="C:\Users\MrMai\AppData\Roaming\inkscape\extensions\textext\default_packages.tex"
       ns1:scale="1.0"
       ns1:alignment="middle center"
       ns1:stroke-to-path="0"
       ns1:jacobian_sqrt="0.352778"
       id="g22723">
      <defs
         id="id-1072ea75-04a0-44a7-a276-a6ad668e5c49">
        <g
           id="id-c11270ff-70a7-402d-a87b-467d575e7d52">
          <symbol
             overflow="visible"
             id="id-e53d7477-7f2b-4927-8823-405f6a3ac38e">
            <path
               style="stroke:none;stroke-width:0"
               d=""
               id="id-1a84dc53-7026-428b-b45d-a10b8a879eb9" />
          </symbol>
          <symbol
             overflow="visible"
             id="id-8cf00f99-0fd3-497f-923c-0d63bdff22a5">
            <path
               style="stroke:none;stroke-width:0"
               d="M 3.328125,-3.015625 C 3.390625,-3.265625 3.625,-4.1875 4.3125,-4.1875 c 0.046875,0 0.296875,0 0.5,0.125 C 4.53125,-4 4.34375,-3.765625 4.34375,-3.515625 c 0,0.15625 0.109375,0.34375 0.375,0.34375 0.21875,0 0.53125,-0.171875 0.53125,-0.578125 0,-0.515625 -0.578125,-0.65625 -0.921875,-0.65625 -0.578125,0 -0.921875,0.53125 -1.046875,0.75 -0.25,-0.65625 -0.78125,-0.75 -1.078125,-0.75 -1.03125,0 -1.609375,1.28125 -1.609375,1.53125 0,0.109375 0.109375,0.109375 0.125,0.109375 0.078125,0 0.109375,-0.03125 0.125,-0.109375 0.34375,-1.0625 1,-1.3125 1.34375,-1.3125 0.1875,0 0.53125,0.09375 0.53125,0.671875 0,0.3125 -0.171875,0.96875 -0.53125,2.375 -0.15625,0.609375 -0.515625,1.03125 -0.953125,1.03125 -0.0625,0 -0.28125,0 -0.5,-0.125 0.25,-0.0625 0.46875,-0.265625 0.46875,-0.546875 0,-0.265625 -0.21875,-0.34375 -0.359375,-0.34375 -0.3125,0 -0.546875,0.25 -0.546875,0.578125 0,0.453125 0.484375,0.65625 0.921875,0.65625 0.671875,0 1.03125,-0.703125 1.046875,-0.75 0.125,0.359375 0.484375,0.75 1.078125,0.75 1.03125,0 1.59375,-1.28125 1.59375,-1.53125 0,-0.109375 -0.078125,-0.109375 -0.109375,-0.109375 -0.09375,0 -0.109375,0.046875 -0.140625,0.109375 -0.328125,1.078125 -1,1.3125 -1.3125,1.3125 -0.390625,0 -0.546875,-0.3125 -0.546875,-0.65625 0,-0.21875 0.046875,-0.4375 0.15625,-0.875 z m 0,0"
               id="id-d607e204-77dc-4ae4-990a-257fac5c6c6b" />
          </symbol>
        </g>
      </defs>
      <g
         id="id-6f3ed113-9043-4521-8aa7-0163ab64df38"
         transform="translate(-149.009,-130.359)">
        <g
           style="fill:#000000;fill-opacity:1"
           id="id-0ce428e9-0264-4ab6-9928-a456c0c9c4d6">
          <g
             transform="translate(148.712,134.765)"
             id="g22719">
            <path
               style="stroke:none;stroke-width:0"
               d="M 3.328125,-3.015625 C 3.390625,-3.265625 3.625,-4.1875 4.3125,-4.1875 c 0.046875,0 0.296875,0 0.5,0.125 C 4.53125,-4 4.34375,-3.765625 4.34375,-3.515625 c 0,0.15625 0.109375,0.34375 0.375,0.34375 0.21875,0 0.53125,-0.171875 0.53125,-0.578125 0,-0.515625 -0.578125,-0.65625 -0.921875,-0.65625 -0.578125,0 -0.921875,0.53125 -1.046875,0.75 -0.25,-0.65625 -0.78125,-0.75 -1.078125,-0.75 -1.03125,0 -1.609375,1.28125 -1.609375,1.53125 0,0.109375 0.109375,0.109375 0.125,0.109375 0.078125,0 0.109375,-0.03125 0.125,-0.109375 0.34375,-1.0625 1,-1.3125 1.34375,-1.3125 0.1875,0 0.53125,0.09375 0.53125,0.671875 0,0.3125 -0.171875,0.96875 -0.53125,2.375 -0.15625,0.609375 -0.515625,1.03125 -0.953125,1.03125 -0.0625,0 -0.28125,0 -0.5,-0.125 0.25,-0.0625 0.46875,-0.265625 0.46875,-0.546875 0,-0.265625 -0.21875,-0.34375 -0.359375,-0.34375 -0.3125,0 -0.546875,0.25 -0.546875,0.578125 0,0.453125 0.484375,0.65625 0.921875,0.65625 0.671875,0 1.03125,-0.703125 1.046875,-0.75 0.125,0.359375 0.484375,0.75 1.078125,0.75 1.03125,0 1.59375,-1.28125 1.59375,-1.53125 0,-0.109375 -0.078125,-0.109375 -0.109375,-0.109375 -0.09375,0 -0.109375,0.046875 -0.140625,0.109375 -0.328125,1.078125 -1,1.3125 -1.3125,1.3125 -0.390625,0 -0.546875,-0.3125 -0.546875,-0.65625 0,-0.21875 0.046875,-0.4375 0.15625,-0.875 z m 0,0"
               id="id-05659fc3-e94d-4ad1-b4db-fbffb92c2852" />
          </g>
        </g>
      </g>
    </g>
    <g
       transform="matrix(0.352778,0,0,0.352778,41.669066,28.550906)"
       ns1:version="1.8.1"
       ns1:texconverter="pdflatex"
       ns1:pdfconverter="inkscape"
       ns1:text="$y$"
       ns1:preamble="C:\Users\MrMai\AppData\Roaming\inkscape\extensions\textext\default_packages.tex"
       ns1:scale="1.0"
       ns1:alignment="middle center"
       ns1:stroke-to-path="0"
       ns1:jacobian_sqrt="0.352778"
       id="g22887">
      <defs
         id="id-54c7666c-2210-4cb2-9300-bc1993665e2d">
        <g
           id="id-edb0e056-d4fb-4b26-a5ad-901f11fb9f84">
          <symbol
             overflow="visible"
             id="id-2a795b58-c946-47cf-a1d9-8764c080b234">
            <path
               style="stroke:none;stroke-width:0"
               d=""
               id="id-f63509a7-a0d1-4472-8c26-bc676ca32406" />
          </symbol>
          <symbol
             overflow="visible"
             id="id-73280e6f-47e1-409a-b395-424e9d684413">
            <path
               style="stroke:none;stroke-width:0"
               d="m 4.84375,-3.796875 c 0.046875,-0.140625 0.046875,-0.15625 0.046875,-0.234375 0,-0.171875 -0.140625,-0.265625 -0.296875,-0.265625 -0.09375,0 -0.25,0.0625 -0.34375,0.203125 -0.015625,0.0625 -0.109375,0.359375 -0.140625,0.546875 -0.078125,0.25 -0.140625,0.53125 -0.203125,0.796875 l -0.453125,1.796875 c -0.03125,0.140625 -0.46875,0.84375 -1.125,0.84375 -0.5,0 -0.609375,-0.4375 -0.609375,-0.8125 C 1.71875,-1.375 1.890625,-2 2.21875,-2.875 2.375,-3.28125 2.421875,-3.390625 2.421875,-3.59375 c 0,-0.4375 -0.3125,-0.8125 -0.8125,-0.8125 -0.953125,0 -1.3125,1.453125 -1.3125,1.53125 0,0.109375 0.09375,0.109375 0.109375,0.109375 0.109375,0 0.109375,-0.03125 0.15625,-0.1875 0.28125,-0.9375 0.671875,-1.234375 1.015625,-1.234375 0.078125,0 0.25,0 0.25,0.3125 0,0.25 -0.109375,0.515625 -0.171875,0.703125 -0.40625,1.0625 -0.578125,1.625 -0.578125,2.09375 0,0.890625 0.625,1.1875 1.21875,1.1875 0.390625,0 0.71875,-0.171875 1,-0.453125 -0.125,0.515625 -0.25,1.015625 -0.640625,1.546875 -0.265625,0.328125 -0.640625,0.625 -1.09375,0.625 -0.140625,0 -0.59375,-0.03125 -0.765625,-0.421875 0.15625,0 0.296875,0 0.421875,-0.125 C 1.328125,1.203125 1.421875,1.0625 1.421875,0.875 1.421875,0.5625 1.15625,0.53125 1.0625,0.53125 0.828125,0.53125 0.5,0.6875 0.5,1.171875 c 0,0.5 0.4375,0.875 1.0625,0.875 1.015625,0 2.046875,-0.90625 2.328125,-2.03125 z m 0,0"
               id="id-9b94fad7-0cf1-4edf-b70b-d53d275bae89" />
          </symbol>
        </g>
      </defs>
      <g
         id="id-b4a807aa-1ea8-4e6f-a7c5-634547955cd9"
         transform="translate(-149.009,-130.359)">
        <g
           style="fill:#000000;fill-opacity:1"
           id="id-51039d82-187a-4f87-a1b6-efc29a8beb4b">
          <g
             transform="translate(148.712,134.765)"
             id="g22883">
            <path
               style="stroke:none;stroke-width:0"
               d="m 4.84375,-3.796875 c 0.046875,-0.140625 0.046875,-0.15625 0.046875,-0.234375 0,-0.171875 -0.140625,-0.265625 -0.296875,-0.265625 -0.09375,0 -0.25,0.0625 -0.34375,0.203125 -0.015625,0.0625 -0.109375,0.359375 -0.140625,0.546875 -0.078125,0.25 -0.140625,0.53125 -0.203125,0.796875 l -0.453125,1.796875 c -0.03125,0.140625 -0.46875,0.84375 -1.125,0.84375 -0.5,0 -0.609375,-0.4375 -0.609375,-0.8125 C 1.71875,-1.375 1.890625,-2 2.21875,-2.875 2.375,-3.28125 2.421875,-3.390625 2.421875,-3.59375 c 0,-0.4375 -0.3125,-0.8125 -0.8125,-0.8125 -0.953125,0 -1.3125,1.453125 -1.3125,1.53125 0,0.109375 0.09375,0.109375 0.109375,0.109375 0.109375,0 0.109375,-0.03125 0.15625,-0.1875 0.28125,-0.9375 0.671875,-1.234375 1.015625,-1.234375 0.078125,0 0.25,0 0.25,0.3125 0,0.25 -0.109375,0.515625 -0.171875,0.703125 -0.40625,1.0625 -0.578125,1.625 -0.578125,2.09375 0,0.890625 0.625,1.1875 1.21875,1.1875 0.390625,0 0.71875,-0.171875 1,-0.453125 -0.125,0.515625 -0.25,1.015625 -0.640625,1.546875 -0.265625,0.328125 -0.640625,0.625 -1.09375,0.625 -0.140625,0 -0.59375,-0.03125 -0.765625,-0.421875 0.15625,0 0.296875,0 0.421875,-0.125 C 1.328125,1.203125 1.421875,1.0625 1.421875,0.875 1.421875,0.5625 1.15625,0.53125 1.0625,0.53125 0.828125,0.53125 0.5,0.6875 0.5,1.171875 c 0,0.5 0.4375,0.875 1.0625,0.875 1.015625,0 2.046875,-0.90625 2.328125,-2.03125 z m 0,0"
               id="id-c7fb6823-a4b3-475f-9195-b230e52f5176" />
          </g>
        </g>
      </g>
    </g>
    <path
       style="fill:none;stroke:#ff0000;stroke-width:0.264583;stroke-linecap:butt;stroke-linejoin:miter;stroke-miterlimit:4;stroke-dasharray:1.05833, 2.11666;stroke-dashoffset:0;stroke-opacity:1"
       d="M 64.628088,64.68544 V 5.2028643"
       id="path22924" />
    <g
       transform="matrix(0.352778,0,0,0.352778,75.537343,27.716506)"
       ns1:version="1.8.1"
       ns1:texconverter="pdflatex"
       ns1:pdfconverter="inkscape"
       ns1:text="$x$"
       ns1:preamble="C:\Users\MrMai\AppData\Roaming\inkscape\extensions\textext\default_packages.tex"
       ns1:scale="1.0"
       ns1:alignment="middle center"
       ns1:stroke-to-path="0"
       ns1:jacobian_sqrt="0.352778"
       id="g23099">
      <defs
         id="defs23089">
        <g
           id="g23087">
          <symbol
             overflow="visible"
             id="symbol23081">
            <path
               style="stroke:none;stroke-width:0"
               d=""
               id="path23079" />
          </symbol>
          <symbol
             overflow="visible"
             id="symbol23085">
            <path
               style="stroke:none;stroke-width:0"
               d="M 3.328125,-3.015625 C 3.390625,-3.265625 3.625,-4.1875 4.3125,-4.1875 c 0.046875,0 0.296875,0 0.5,0.125 C 4.53125,-4 4.34375,-3.765625 4.34375,-3.515625 c 0,0.15625 0.109375,0.34375 0.375,0.34375 0.21875,0 0.53125,-0.171875 0.53125,-0.578125 0,-0.515625 -0.578125,-0.65625 -0.921875,-0.65625 -0.578125,0 -0.921875,0.53125 -1.046875,0.75 -0.25,-0.65625 -0.78125,-0.75 -1.078125,-0.75 -1.03125,0 -1.609375,1.28125 -1.609375,1.53125 0,0.109375 0.109375,0.109375 0.125,0.109375 0.078125,0 0.109375,-0.03125 0.125,-0.109375 0.34375,-1.0625 1,-1.3125 1.34375,-1.3125 0.1875,0 0.53125,0.09375 0.53125,0.671875 0,0.3125 -0.171875,0.96875 -0.53125,2.375 -0.15625,0.609375 -0.515625,1.03125 -0.953125,1.03125 -0.0625,0 -0.28125,0 -0.5,-0.125 0.25,-0.0625 0.46875,-0.265625 0.46875,-0.546875 0,-0.265625 -0.21875,-0.34375 -0.359375,-0.34375 -0.3125,0 -0.546875,0.25 -0.546875,0.578125 0,0.453125 0.484375,0.65625 0.921875,0.65625 0.671875,0 1.03125,-0.703125 1.046875,-0.75 0.125,0.359375 0.484375,0.75 1.078125,0.75 1.03125,0 1.59375,-1.28125 1.59375,-1.53125 0,-0.109375 -0.078125,-0.109375 -0.109375,-0.109375 -0.09375,0 -0.109375,0.046875 -0.140625,0.109375 -0.328125,1.078125 -1,1.3125 -1.3125,1.3125 -0.390625,0 -0.546875,-0.3125 -0.546875,-0.65625 0,-0.21875 0.046875,-0.4375 0.15625,-0.875 z m 0,0"
               id="path23083" />
          </symbol>
        </g>
      </defs>
      <g
         id="g23097"
         transform="translate(-149.009,-130.359)">
        <g
           style="fill:#000000;fill-opacity:1"
           id="g23095">
          <g
             transform="translate(148.712,134.765)"
             id="g23093">
            <path
               style="stroke:none;stroke-width:0"
               d="M 3.328125,-3.015625 C 3.390625,-3.265625 3.625,-4.1875 4.3125,-4.1875 c 0.046875,0 0.296875,0 0.5,0.125 C 4.53125,-4 4.34375,-3.765625 4.34375,-3.515625 c 0,0.15625 0.109375,0.34375 0.375,0.34375 0.21875,0 0.53125,-0.171875 0.53125,-0.578125 0,-0.515625 -0.578125,-0.65625 -0.921875,-0.65625 -0.578125,0 -0.921875,0.53125 -1.046875,0.75 -0.25,-0.65625 -0.78125,-0.75 -1.078125,-0.75 -1.03125,0 -1.609375,1.28125 -1.609375,1.53125 0,0.109375 0.109375,0.109375 0.125,0.109375 0.078125,0 0.109375,-0.03125 0.125,-0.109375 0.34375,-1.0625 1,-1.3125 1.34375,-1.3125 0.1875,0 0.53125,0.09375 0.53125,0.671875 0,0.3125 -0.171875,0.96875 -0.53125,2.375 -0.15625,0.609375 -0.515625,1.03125 -0.953125,1.03125 -0.0625,0 -0.28125,0 -0.5,-0.125 0.25,-0.0625 0.46875,-0.265625 0.46875,-0.546875 0,-0.265625 -0.21875,-0.34375 -0.359375,-0.34375 -0.3125,0 -0.546875,0.25 -0.546875,0.578125 0,0.453125 0.484375,0.65625 0.921875,0.65625 0.671875,0 1.03125,-0.703125 1.046875,-0.75 0.125,0.359375 0.484375,0.75 1.078125,0.75 1.03125,0 1.59375,-1.28125 1.59375,-1.53125 0,-0.109375 -0.078125,-0.109375 -0.109375,-0.109375 -0.09375,0 -0.109375,0.046875 -0.140625,0.109375 -0.328125,1.078125 -1,1.3125 -1.3125,1.3125 -0.390625,0 -0.546875,-0.3125 -0.546875,-0.65625 0,-0.21875 0.046875,-0.4375 0.15625,-0.875 z m 0,0"
               id="path23091" />
          </g>
        </g>
      </g>
    </g>
    <path
       style="fill:none;stroke:#000000;stroke-width:0.264583px;stroke-linecap:butt;stroke-linejoin:miter;stroke-opacity:1"
       d="m 40,25.057931 c -7.14375,0 -11.170361,-15.9270425 -18.342316,-15.9270425 -7.171955,0 -6.528517,15.9270425 -19.096225,15.9270425"
       id="path23809"
       sodipodi:nodetypes="czc" />
  </g>
</svg>
